<svg width="24" height="25" viewBox="0 0 24 25" fill="none" xmlns="http://www.w3.org/2000/svg">
<path d="M5 11.75C4.58579 11.75 4.25 12.0858 4.25 12.5C4.25 12.9142 4.58579 13.25 5 13.25V11.75ZM19.5303 13.0303C19.8232 12.7374 19.8232 12.2626 19.5303 11.9697L14.7574 7.1967C14.4645 6.90381 13.9896 6.90381 13.6967 7.1967C13.4038 7.48959 13.4038 7.96447 13.6967 8.25736L17.9393 12.5L13.6967 16.7426C13.4038 17.0355 13.4038 17.5104 13.6967 17.8033C13.9896 18.0962 14.4645 18.0962 14.7574 17.8033L19.5303 13.0303ZM5 13.25L19 13.25V11.75L5 11.75V13.25Z" fill="white"/>
</svg>
