<svg width="22" height="20" viewBox="0 0 22 20" fill="none" xmlns="http://www.w3.org/2000/svg">
<path d="M10.0489 0.801565C10.3483 -0.119746 11.6517 -0.119748 11.9511 0.801562L13.6942 6.16631C13.828 6.57833 14.212 6.85729 14.6452 6.85729H20.2861C21.2548 6.85729 21.6576 8.09691 20.8738 8.66631L16.3103 11.9819C15.9598 12.2365 15.8132 12.6879 15.947 13.0999L17.6902 18.4647C17.9895 19.386 16.935 20.1521 16.1513 19.5827L11.5878 16.2671C11.2373 16.0125 10.7627 16.0125 10.4122 16.2671L5.84869 19.5827C5.06498 20.1521 4.0105 19.386 4.30985 18.4647L6.05296 13.0999C6.18683 12.6879 6.04018 12.2365 5.68969 11.9819L1.12616 8.66631C0.342451 8.09691 0.745225 6.85729 1.71395 6.85729H7.35477C7.788 6.85729 8.17196 6.57833 8.30583 6.16631L10.0489 0.801565Z" fill="#151515"/>
</svg>
