<svg width="240" height="240" viewBox="0 0 240 240" fill="none" xmlns="http://www.w3.org/2000/svg">
<path opacity="0.07" d="M120.002 223.283C177.043 223.283 223.285 177.042 223.285 120C223.285 62.9584 177.043 16.717 120.002 16.717C62.9601 16.717 16.7188 62.9584 16.7188 120C16.7188 177.042 62.9601 223.283 120.002 223.283Z" fill="#653DFF"/>
<path opacity="0.13" d="M120 0C53.7253 0 0 53.7253 0 120C0 186.275 53.7253 240 120 240C186.275 240 240 186.275 240 120C240 53.7253 186.275 0 120 0ZM120 231.965C58.1637 231.965 8.03456 181.836 8.03456 120C8.03456 58.1637 58.1637 8.03456 120 8.03456C181.836 8.03456 231.965 58.1637 231.965 120C231.965 181.836 181.836 231.965 120 231.965Z" fill="#99AFFF"/>
<path opacity="0.07" d="M120.002 223.283C177.043 223.283 223.285 177.042 223.285 120C223.285 62.9584 177.043 16.717 120.002 16.717C62.9601 16.717 16.7188 62.9584 16.7188 120C16.7188 177.042 62.9601 223.283 120.002 223.283Z" fill="#C5C5C5"/>
<path opacity="0.19" d="M120.002 223.283C177.043 223.283 223.285 177.042 223.285 120C223.285 62.9584 177.043 16.717 120.002 16.717C62.9601 16.717 16.7188 62.9584 16.7188 120C16.7188 177.042 62.9601 223.283 120.002 223.283Z" fill="#99AFFF"/>
<path d="M193.27 67.2372L158.629 32.5268L227.367 32.021L193.27 67.2372Z" fill="#FFCB00"/>
<path d="M169.719 69.1112L170.732 44.6941L227.369 32.021L169.719 69.1112Z" fill="#F2A400"/>
<path d="M169.719 69.1115L176.871 50.7454L185.201 59.1507L169.719 69.1115Z" fill="#F5BD00"/>
<path d="M227.366 32.021L176.867 50.7451L193.268 67.2372L227.366 32.021Z" fill="#FFCB00"/>
<path d="M125.239 55.0427C122.141 52.8223 117.973 52.8229 114.876 55.0433L51.1523 100.746L51.2928 186.36L188.808 186.623L188.85 100.634L125.239 55.0427Z" fill="#481AB6"/>
<path d="M169.211 73.7334H70.7869C66.2286 73.7334 62.5332 77.4288 62.5332 81.9871V162.131C62.5332 166.689 66.2284 170.384 70.7869 170.384H169.211C173.769 170.384 177.465 166.689 177.465 162.131V81.9871C177.465 77.4288 173.77 73.7334 169.211 73.7334Z" fill="white"/>
<path d="M188.85 100.634L188.808 186.622H51.1523V100.745L119.994 155.886L188.85 100.634Z" fill="#653DFF"/>
<path d="M110.759 113.894C112.134 110.563 113.971 108.064 116.272 106.399C118.572 104.733 120.832 103.9 123.053 103.9C124.586 103.9 125.908 104.285 127.019 105.051C128.129 105.818 129.041 106.809 129.755 108.025C130.469 109.242 131.01 110.642 131.381 112.229C131.75 113.815 131.936 115.401 131.936 116.987C131.936 118.786 131.75 120.398 131.381 121.826C131.645 121.826 131.883 121.839 132.095 121.865C132.305 121.892 132.543 121.905 132.808 121.905C133.919 121.905 134.843 121.706 135.585 121.31C136.324 120.913 136.919 120.372 137.369 119.684C137.818 118.997 138.149 118.204 138.36 117.305C138.571 116.406 138.678 115.454 138.678 114.449C138.678 111.435 138.214 108.885 137.29 106.795C136.364 104.707 135.135 103.028 133.602 101.759C132.067 100.49 130.323 99.5777 128.367 99.0226C126.41 98.4674 124.401 98.1898 122.339 98.1898C119.008 98.1898 116.046 98.7722 113.456 99.9348C110.865 101.098 108.683 102.671 106.913 104.654C105.14 106.637 103.78 108.925 102.828 111.515C101.876 114.106 101.4 116.803 101.4 119.605C101.4 123.094 101.902 126.029 102.907 128.408C103.911 130.788 105.247 132.719 106.913 134.198C108.578 135.679 110.454 136.736 112.544 137.371C114.632 138.005 116.734 138.323 118.849 138.323C121.81 138.323 124.798 137.874 127.812 136.974C130.826 136.076 133.628 134.992 136.219 133.723C136.906 133.459 137.488 133.326 137.964 133.326C138.916 133.326 139.682 133.643 140.264 134.278C140.845 134.912 141.137 135.626 141.137 136.419C141.137 137.583 140.316 138.68 138.678 139.711C137.038 140.742 135.042 141.642 132.69 142.407C130.336 143.173 127.891 143.782 125.353 144.232C122.815 144.68 120.646 144.906 118.849 144.906C114.83 144.906 111.314 144.178 108.301 142.725C105.287 141.271 102.788 139.354 100.805 136.975C98.8224 134.595 97.3416 131.912 96.3637 128.924C95.3847 125.938 94.8965 122.91 94.8965 119.843C94.8965 115.984 95.583 112.335 96.9585 108.897C98.3329 105.461 100.223 102.461 102.629 99.8952C105.035 97.3312 107.89 95.3087 111.195 93.8277C114.499 92.3481 118.056 91.6069 121.863 91.6069C125.036 91.6069 128.022 92.0964 130.826 93.0742C133.628 94.0532 136.086 95.4932 138.202 97.3969C140.316 99.3004 141.995 101.667 143.238 104.496C144.48 107.325 145.102 110.59 145.102 114.291C145.102 115.93 144.89 117.596 144.468 119.288C144.044 120.98 143.357 122.487 142.406 123.808C141.454 125.131 140.211 126.215 138.678 127.06C137.144 127.907 135.267 128.329 133.047 128.329C132.359 128.329 131.566 128.29 130.667 128.21C129.767 128.131 129.053 127.933 128.526 127.615C127.415 128.991 126.093 130.114 124.56 130.986C123.026 131.859 121.467 132.295 119.88 132.295C118.611 132.295 117.368 131.978 116.153 131.343C114.936 130.709 113.865 129.836 112.94 128.726C112.015 127.615 111.275 126.32 110.72 124.839C110.164 123.36 109.887 121.746 109.887 120.001C109.887 117.939 110.177 115.904 110.759 113.894ZM118.532 112.942C117.739 113.894 117.17 114.992 116.827 116.234C116.482 117.477 116.311 118.653 116.311 119.763C116.311 120.346 116.377 120.98 116.51 121.667C116.641 122.355 116.853 122.989 117.144 123.57C117.434 124.153 117.831 124.641 118.334 125.038C118.836 125.434 119.456 125.633 120.198 125.633C121.149 125.633 121.955 125.369 122.617 124.839C123.277 124.311 123.819 123.624 124.243 122.777C124.665 121.932 124.969 120.98 125.155 119.922C125.34 118.865 125.432 117.808 125.432 116.749C125.432 116.009 125.393 115.256 125.314 114.489C125.234 113.723 125.088 113.035 124.877 112.427C124.665 111.819 124.388 111.316 124.044 110.92C123.7 110.523 123.264 110.325 122.736 110.325C121.995 110.325 121.215 110.642 120.396 111.277C119.575 111.911 118.955 112.466 118.532 112.942Z" fill="#FFCB00"/>
<path d="M114.201 141.27L51.4668 186.623H188.809L125.199 141.27C121.917 138.897 117.484 138.897 114.201 141.27Z" fill="#6022F4"/>
<path d="M158.592 55.9002C156.956 55.9002 155.655 55.6247 154.711 55.0763L155.416 54.2731C157.531 55.5014 162.089 54.6419 163.667 54.2073L164.056 55.142C163.993 55.1595 162.488 55.5706 160.606 55.7801C159.887 55.8602 159.215 55.9002 158.592 55.9002Z" fill="#F2A400"/>
<path d="M37.4126 170.41C35.499 170.41 33.635 170.336 31.8723 170.188L31.9965 169.206C33.718 169.35 35.5403 169.424 37.4126 169.424C39.2366 169.424 41.1583 169.354 43.1243 169.218L43.2276 170.201C41.2274 170.34 39.271 170.41 37.4126 170.41ZM20.8135 167.97C17.1574 166.7 14.0027 164.917 11.4367 162.67L12.3259 161.998C14.7754 164.144 17.7915 165.847 21.2901 167.063L20.8135 167.97ZM5.52803 154.721C4.28682 152.019 3.47248 148.972 3.10742 145.667L4.31611 145.579C4.67131 148.796 5.46155 151.756 6.66479 154.376L5.52803 154.721ZM67.3192 148.646L67.1266 147.672C70.7825 147.194 74.2085 145.967 77.0344 144.125L77.7936 144.895C74.8039 146.844 71.182 148.141 67.3192 148.646ZM55.9123 147.917C52.2895 146.981 48.9527 145.426 45.9947 143.295L46.7993 142.556C49.6298 144.595 52.8194 146.082 56.2796 146.976L55.9123 147.917ZM84.6454 137.445L83.53 137.056C84.8904 134.474 85.6669 131.537 85.8382 128.327L87.0505 128.37C86.8729 131.699 86.0637 134.752 84.6454 137.445ZM4.38401 136.514L3.17559 136.424C3.51407 133.427 4.13895 130.365 5.03273 127.323L6.21304 127.552C5.33261 130.549 4.71719 133.564 4.38401 136.514ZM38.9803 135.971C37.2679 133.357 35.9764 130.423 35.1416 127.248L36.3282 127.042C37.1393 130.126 38.392 132.974 40.0512 135.507L38.9803 135.971ZM84.9032 119.34C84.1313 116.21 82.9428 113.342 81.3709 110.817L82.4536 110.371C84.0749 112.976 85.2994 115.929 86.093 119.146L84.9032 119.34ZM9.6066 118.905L8.4863 118.526C9.212 117.108 9.95403 115.867 10.6919 114.835C11.7394 113.37 12.971 111.937 14.3526 110.576L15.2883 111.204C13.9488 112.524 12.7552 113.913 11.7409 115.331C11.0298 116.325 10.3117 117.528 9.6066 118.905ZM33.9061 118.068C33.8789 117.357 33.8651 116.636 33.8651 115.926C33.8651 113.575 34.0158 111.197 34.3131 108.856L35.5203 108.957C35.2271 111.265 35.0786 113.609 35.0786 115.926C35.0786 116.626 35.0922 117.336 35.119 118.037L33.9061 118.068ZM23.3837 105.043L22.6672 104.246C25.6964 102.444 29.016 100.893 32.5335 99.6379L33.021 100.542C29.5843 101.768 26.3418 103.282 23.3837 105.043ZM74.7958 103.666C72.1134 101.659 68.9741 100.082 65.4648 98.9807L65.9019 98.0599C69.5539 99.2065 72.8225 100.848 75.6174 102.939L74.7958 103.666ZM37.4007 99.9983L36.2204 99.7691C37.0866 96.8192 38.2047 93.8542 39.5435 90.9564L40.6795 91.3035C39.3583 94.1631 38.2552 97.0884 37.4007 99.9983ZM43.6171 97.8224L43.3817 96.8542C46.4265 96.3644 49.4694 96.116 52.426 96.116C52.427 96.116 52.4282 96.116 52.4294 96.116C53.2013 96.116 53.9776 96.1332 54.737 96.167L54.6705 97.1524C53.9333 97.1195 53.1793 97.1028 52.4295 97.1028C52.4283 97.1028 52.4273 97.1028 52.4261 97.1028C49.5483 97.1029 46.5846 97.345 43.6171 97.8224ZM45.2285 82.9876L44.1501 82.535C45.8663 79.8307 47.8009 77.1583 49.9004 74.5922L50.9107 75.1389C48.836 77.6748 46.9243 80.3155 45.2285 82.9876ZM57.6233 67.8434L56.6948 67.2079C59.6627 64.3397 61.7402 62.756 61.9914 62.5669C62.7845 61.8469 63.5947 61.1373 64.3999 60.4576L65.2738 61.1423C64.4721 61.819 63.6654 62.5257 62.876 63.2428L62.8339 63.2774C62.8127 63.2934 60.6685 64.9004 57.6233 67.8434ZM73.5302 55.0222L72.777 54.2483C75.8222 52.2878 78.9933 50.559 82.2023 49.1094L82.7914 49.9722C79.6398 51.3959 76.524 53.0949 73.5302 55.0222ZM146.749 52.0471C143.424 50.5675 140.019 49.2654 136.629 48.1767L137.074 47.2589C140.511 48.3626 143.962 49.6822 147.332 51.1813L146.749 52.0471ZM92.9772 46.3196L92.595 45.3829C96.1933 44.4119 99.9225 43.7272 103.679 43.3477L103.828 44.3272C100.151 44.6986 96.5001 45.3689 92.9772 46.3196ZM125.98 45.4381C122.279 44.7253 118.57 44.2665 114.956 44.075L115.035 43.0901C118.717 43.2852 122.493 43.7522 126.259 44.4777L125.98 45.4381Z" fill="#F2A400"/>
</svg>
