<?xml version="1.0" encoding="utf-8"?>
<svg viewBox="0 0 527 494" fill="none" xmlns="http://www.w3.org/2000/svg">
  <defs>
    <clipPath id="clip0_996_6230">
      <path d="M0 16C0 7.16346 7.16344 0 16 0H511C519.837 0 527 7.16344 527 16V478C527 486.837 519.837 494 511 494H16C7.16344 494 0 486.837 0 478V16Z" fill="white"/>
    </clipPath>
    <linearGradient id="paint0_linear_996_6230" x1="263.5" y1="0" x2="263.9" y2="331.571" gradientUnits="userSpaceOnUse">
      <stop stop-color="#E2FFBD"/>
      <stop offset="1" stop-color="#F8F8F8" stop-opacity="0"/>
      <stop offset="1" stop-color="#F8F8F8" stop-opacity="0"/>
    </linearGradient>
    <clipPath id="clip1_996_6230">
      <path d="M20 113C20 108.582 23.5817 105 28 105H166.333C170.752 105 174.333 108.582 174.333 113V243C174.333 247.418 170.752 251 166.333 251H28C23.5817 251 20 247.418 20 243V113Z" fill="white"/>
    </clipPath>
    <clipPath id="clip2_996_6230">
      <path d="M186.333 113C186.333 108.582 189.915 105 194.333 105H332.667C337.085 105 340.667 108.582 340.667 113V243C340.667 247.418 337.085 251 332.667 251H194.333C189.915 251 186.333 247.418 186.333 243V113Z" fill="white"/>
    </clipPath>
    <clipPath id="clip3_996_6230">
      <path d="M352.667 113C352.667 108.582 356.248 105 360.667 105H499C503.418 105 507 108.582 507 113V243C507 247.418 503.418 251 499 251H360.667C356.248 251 352.667 247.418 352.667 243V113Z" fill="white"/>
    </clipPath>
    <clipPath id="clip4_996_6230">
      <path d="M20 271C20 266.582 23.5817 263 28 263H166.333C170.752 263 174.333 266.582 174.333 271V401C174.333 405.418 170.752 409 166.333 409H28C23.5817 409 20 405.418 20 401V271Z" fill="white"/>
    </clipPath>
    <clipPath id="clip5_996_6230">
      <path d="M186.333 271C186.333 266.582 189.915 263 194.333 263H332.667C337.085 263 340.667 266.582 340.667 271V401C340.667 405.418 337.085 409 332.667 409H194.333C189.915 409 186.333 405.418 186.333 401V271Z" fill="white"/>
    </clipPath>
    <clipPath id="clip6_996_6230">
      <path d="M352.667 271C352.667 266.582 356.248 263 360.667 263H499C503.418 263 507 266.582 507 271V401C507 405.418 503.418 409 499 409H360.667C356.248 409 352.667 405.418 352.667 401V271Z" fill="white"/>
    </clipPath>
    <clipPath id="clip7_996_6230">
      <path d="M20 429C20 424.582 23.5817 421 28 421H166.333C170.752 421 174.333 424.582 174.333 429V559C174.333 563.418 170.752 567 166.333 567H28C23.5817 567 20 563.418 20 559V429Z" fill="white"/>
    </clipPath>
    <clipPath id="clip8_996_6230">
      <path d="M186.333 429C186.333 424.582 189.915 421 194.333 421H332.667C337.085 421 340.667 424.582 340.667 429V559C340.667 563.418 337.085 567 332.667 567H194.333C189.915 567 186.333 563.418 186.333 559V429Z" fill="white"/>
    </clipPath>
    <clipPath id="clip9_996_6230">
      <path d="M352.667 429C352.667 424.582 356.248 421 360.667 421H499C503.418 421 507 424.582 507 429V559C507 563.418 503.418 567 499 567H360.667C356.248 567 352.667 563.418 352.667 559V429Z" fill="white"/>
    </clipPath>
    <linearGradient id="paint1_linear_996_6230" x1="263.5" y1="266" x2="263.5" y2="494" gradientUnits="userSpaceOnUse">
      <stop stop-color="white" stop-opacity="0"/>
      <stop offset="0.71" stop-color="white"/>
    </linearGradient>
  </defs>
  <g clip-path="url(#clip0_996_6230)" transform="matrix(1, 0, 0, 1, 7.105427357601002e-15, 0)">
    <path d="M0 16C0 7.16346 7.16344 0 16 0H511C519.837 0 527 7.16344 527 16V478C527 486.837 519.837 494 511 494H16C7.16344 494 0 486.837 0 478V16Z" fill="url(#paint0_linear_996_6230)"/>
    <path d="M32.4964 28.326H30.1058C30.0376 27.9339 29.9119 27.5866 29.7287 27.2841C29.5455 26.9773 29.3175 26.7173 29.0447 26.5043C28.772 26.2912 28.4609 26.1314 28.1115 26.0249C27.7663 25.9141 27.3935 25.8587 26.9929 25.8587C26.2813 25.8587 25.6506 26.0376 25.1009 26.3956C24.5511 26.7493 24.1207 27.2692 23.8097 27.9553C23.4986 28.6371 23.343 29.4702 23.343 30.4545C23.343 31.456 23.4986 32.2997 23.8097 32.9858C24.125 33.6676 24.5554 34.1832 25.1009 34.5327C25.6506 34.8778 26.2791 35.0504 26.9865 35.0504C27.3786 35.0504 27.745 34.9993 28.0859 34.897C28.4311 34.7905 28.7401 34.6349 29.0128 34.4304C29.2898 34.2259 29.522 33.9744 29.7095 33.6761C29.9013 33.3778 30.0334 33.0369 30.1058 32.6534L32.4964 32.6662C32.407 33.2884 32.2131 33.8722 31.9148 34.4176C31.6207 34.9631 31.2351 35.4446 30.7578 35.8622C30.2805 36.2756 29.7223 36.5994 29.0831 36.8338C28.4439 37.0639 27.7344 37.179 26.9545 37.179C25.804 37.179 24.777 36.9126 23.8736 36.38C22.9702 35.8473 22.2585 35.0781 21.7386 34.0724C21.2188 33.0668 20.9588 31.8608 20.9588 30.4545C20.9588 29.044 21.2209 27.8381 21.745 26.8366C22.2692 25.831 22.983 25.0618 23.8864 24.5291C24.7898 23.9964 25.8125 23.7301 26.9545 23.7301C27.6832 23.7301 28.3608 23.8324 28.9872 24.0369C29.6136 24.2415 30.1719 24.5419 30.6619 24.9382C31.152 25.3303 31.5547 25.8118 31.87 26.3828C32.1896 26.9496 32.3984 27.5973 32.4964 28.326ZM36.8798 31.2472V37H34.5659V23.9091H36.8287V28.8501H36.9437C37.1738 28.2962 37.5297 27.8594 38.0112 27.5398C38.497 27.2159 39.1149 27.054 39.8649 27.054C40.5467 27.054 41.1412 27.1967 41.6483 27.4822C42.1554 27.7678 42.5474 28.1854 42.8244 28.7351C43.1056 29.2848 43.2463 29.956 43.2463 30.7486V37H40.9324V31.1065C40.9324 30.446 40.7619 29.9325 40.421 29.5661C40.0843 29.1953 39.6113 29.0099 39.002 29.0099C38.5929 29.0099 38.2264 29.0994 37.9025 29.2784C37.5829 29.4531 37.3315 29.7067 37.1483 30.0391C36.9693 30.3714 36.8798 30.7741 36.8798 31.2472ZM49.8876 37.1918C48.9288 37.1918 48.0978 36.9808 47.3947 36.5589C46.6916 36.1371 46.1461 35.5469 45.7583 34.7884C45.3748 34.0298 45.1831 33.1435 45.1831 32.1293C45.1831 31.1151 45.3748 30.2266 45.7583 29.4638C46.1461 28.701 46.6916 28.1087 47.3947 27.6868C48.0978 27.2649 48.9288 27.054 49.8876 27.054C50.8464 27.054 51.6774 27.2649 52.3805 27.6868C53.0836 28.1087 53.627 28.701 54.0105 29.4638C54.3983 30.2266 54.5922 31.1151 54.5922 32.1293C54.5922 33.1435 54.3983 34.0298 54.0105 34.7884C53.627 35.5469 53.0836 36.1371 52.3805 36.5589C51.6774 36.9808 50.8464 37.1918 49.8876 37.1918ZM49.9004 35.3381C50.4203 35.3381 50.8549 35.1953 51.2044 34.9098C51.5538 34.62 51.8137 34.2322 51.9842 33.7464C52.1589 33.2607 52.2463 32.7195 52.2463 32.1229C52.2463 31.522 52.1589 30.9787 51.9842 30.4929C51.8137 30.0028 51.5538 29.6129 51.2044 29.3232C50.8549 29.0334 50.4203 28.8885 49.9004 28.8885C49.3677 28.8885 48.9245 29.0334 48.5708 29.3232C48.2214 29.6129 47.9593 30.0028 47.7846 30.4929C47.6142 30.9787 47.5289 31.522 47.5289 32.1229C47.5289 32.7195 47.6142 33.2607 47.7846 33.7464C47.9593 34.2322 48.2214 34.62 48.5708 34.9098C48.9245 35.1953 49.3677 35.3381 49.9004 35.3381ZM60.8388 37.1918C59.88 37.1918 59.049 36.9808 58.3459 36.5589C57.6428 36.1371 57.0973 35.5469 56.7095 34.7884C56.326 34.0298 56.1342 33.1435 56.1342 32.1293C56.1342 31.1151 56.326 30.2266 56.7095 29.4638C57.0973 28.701 57.6428 28.1087 58.3459 27.6868C59.049 27.2649 59.88 27.054 60.8388 27.054C61.7976 27.054 62.6286 27.2649 63.3317 27.6868C64.0348 28.1087 64.5781 28.701 64.9616 29.4638C65.3494 30.2266 65.5433 31.1151 65.5433 32.1293C65.5433 33.1435 65.3494 34.0298 64.9616 34.7884C64.5781 35.5469 64.0348 36.1371 63.3317 36.5589C62.6286 36.9808 61.7976 37.1918 60.8388 37.1918ZM60.8516 35.3381C61.3714 35.3381 61.8061 35.1953 62.1555 34.9098C62.505 34.62 62.7649 34.2322 62.9354 33.7464C63.1101 33.2607 63.1974 32.7195 63.1974 32.1229C63.1974 31.522 63.1101 30.9787 62.9354 30.4929C62.7649 30.0028 62.505 29.6129 62.1555 29.3232C61.8061 29.0334 61.3714 28.8885 60.8516 28.8885C60.3189 28.8885 59.8757 29.0334 59.522 29.3232C59.1726 29.6129 58.9105 30.0028 58.7358 30.4929C58.5653 30.9787 58.4801 31.522 58.4801 32.1229C58.4801 32.7195 58.5653 33.2607 58.7358 33.7464C58.9105 34.2322 59.1726 34.62 59.522 34.9098C59.8757 35.1953 60.3189 35.3381 60.8516 35.3381ZM75.2672 29.777L73.1578 30.0071C73.0982 29.794 72.9938 29.5938 72.8446 29.4062C72.6998 29.2188 72.5037 29.0675 72.2566 28.9524C72.0094 28.8374 71.7069 28.7798 71.3489 28.7798C70.8674 28.7798 70.4625 28.8842 70.1344 29.093C69.8105 29.3018 69.6507 29.5724 69.655 29.9048C69.6507 30.1903 69.7551 30.4226 69.9682 30.6016C70.1855 30.7805 70.5435 30.9276 71.0421 31.0426L72.7168 31.4006C73.6458 31.6009 74.3361 31.9183 74.7878 32.353C75.2438 32.7876 75.4739 33.3565 75.4782 34.0597C75.4739 34.6776 75.2928 35.223 74.9348 35.696C74.5811 36.1648 74.089 36.5312 73.4583 36.7955C72.8276 37.0597 72.1032 37.1918 71.285 37.1918C70.0833 37.1918 69.1159 36.9403 68.383 36.4375C67.65 35.9304 67.2132 35.2251 67.0726 34.3217L69.329 34.1044C69.4313 34.5476 69.6486 34.8821 69.981 35.108C70.3134 35.3338 70.7459 35.4467 71.2786 35.4467C71.8283 35.4467 72.2694 35.3338 72.6017 35.108C72.9384 34.8821 73.1067 34.603 73.1067 34.2706C73.1067 33.9893 72.998 33.7571 72.7807 33.5739C72.5676 33.3906 72.2353 33.25 71.7836 33.152L70.1088 32.8004C69.1671 32.6044 68.4703 32.2741 68.0186 31.8097C67.5669 31.3409 67.3432 30.7486 67.3475 30.0327C67.3432 29.4276 67.5073 28.9034 67.8397 28.4602C68.1763 28.0128 68.6429 27.6676 69.2395 27.4247C69.8404 27.1776 70.5328 27.054 71.3169 27.054C72.4675 27.054 73.373 27.299 74.0336 27.7891C74.6983 28.2791 75.1096 28.9418 75.2672 29.777ZM81.7328 37.1918C80.7484 37.1918 79.8983 36.9872 79.1824 36.5781C78.4707 36.1648 77.9231 35.581 77.5396 34.8267C77.1561 34.0682 76.9643 33.1754 76.9643 32.1484C76.9643 31.1385 77.1561 30.2521 77.5396 29.4893C77.9274 28.7223 78.4686 28.1257 79.1632 27.6996C79.8578 27.2692 80.6738 27.054 81.6113 27.054C82.2164 27.054 82.7875 27.152 83.3244 27.348C83.8656 27.5398 84.3429 27.8381 84.7562 28.2429C85.1738 28.6477 85.502 29.1634 85.7406 29.7898C85.9792 30.4119 86.0985 31.1534 86.0985 32.0142V32.7237H78.051V31.1641H83.8805C83.8762 30.7209 83.7804 30.3267 83.5929 29.9815C83.4054 29.6321 83.1433 29.3572 82.8066 29.157C82.4743 28.9567 82.0865 28.8565 81.6433 28.8565C81.1703 28.8565 80.7548 28.9716 80.3968 29.2017C80.0389 29.4276 79.7598 29.7259 79.5595 30.0966C79.3635 30.4631 79.2633 30.8658 79.2591 31.3047V32.6662C79.2591 33.2372 79.3635 33.7273 79.5723 34.1364C79.7811 34.5412 80.073 34.8523 80.448 35.0696C80.823 35.2827 81.2619 35.3892 81.7647 35.3892C82.1014 35.3892 82.4061 35.3423 82.6788 35.2486C82.9515 35.1506 83.188 35.0078 83.3883 34.8203C83.5886 34.6328 83.7399 34.4006 83.8422 34.1236L86.0027 34.3665C85.8663 34.9375 85.6064 35.4361 85.2228 35.8622C84.8436 36.2841 84.3578 36.6122 83.7654 36.8466C83.1731 37.0767 82.4956 37.1918 81.7328 37.1918ZM94.5472 37L91.7731 27.1818H94.1317L95.8576 34.0852H95.9471L97.7113 27.1818H100.044L101.809 34.0469H101.904L103.605 27.1818H105.97L103.189 37H100.779L98.9386 30.3651H98.8043L96.9634 37H94.5472ZM107.585 37V27.1818H109.899V37H107.585ZM108.749 25.7884C108.382 25.7884 108.067 25.6669 107.803 25.424C107.539 25.1768 107.406 24.8807 107.406 24.5355C107.406 24.1861 107.539 23.8899 107.803 23.647C108.067 23.3999 108.382 23.2763 108.749 23.2763C109.119 23.2763 109.435 23.3999 109.695 23.647C109.959 23.8899 110.091 24.1861 110.091 24.5355C110.091 24.8807 109.959 25.1768 109.695 25.424C109.435 25.6669 109.119 25.7884 108.749 25.7884ZM115.922 37.1726C115.151 37.1726 114.461 36.9744 113.851 36.5781C113.242 36.1818 112.76 35.6065 112.407 34.8523C112.053 34.098 111.876 33.1818 111.876 32.1037C111.876 31.0128 112.055 30.0923 112.413 29.3423C112.775 28.5881 113.263 28.0192 113.877 27.6357C114.49 27.2479 115.174 27.054 115.929 27.054C116.504 27.054 116.977 27.152 117.348 27.348C117.718 27.5398 118.012 27.772 118.23 28.0447C118.447 28.3132 118.615 28.5668 118.735 28.8054H118.831V23.9091H121.151V37H118.875V35.4531H118.735C118.615 35.6918 118.443 35.9453 118.217 36.2138C117.991 36.478 117.693 36.7038 117.322 36.8913C116.951 37.0788 116.485 37.1726 115.922 37.1726ZM116.568 35.2741C117.058 35.2741 117.475 35.142 117.821 34.8778C118.166 34.6094 118.428 34.2365 118.607 33.7592C118.786 33.282 118.875 32.7259 118.875 32.0909C118.875 31.456 118.786 30.9041 118.607 30.4354C118.432 29.9666 118.172 29.6023 117.827 29.3423C117.486 29.0824 117.066 28.9524 116.568 28.9524C116.052 28.9524 115.622 29.0866 115.277 29.3551C114.931 29.6236 114.672 29.9943 114.497 30.4673C114.322 30.9403 114.235 31.4815 114.235 32.0909C114.235 32.7045 114.322 33.2521 114.497 33.7337C114.676 34.2109 114.938 34.5881 115.283 34.8651C115.632 35.1378 116.061 35.2741 116.568 35.2741ZM127.887 40.8864C127.056 40.8864 126.342 40.7734 125.745 40.5476C125.149 40.326 124.669 40.0277 124.307 39.6527C123.945 39.2777 123.693 38.8622 123.553 38.4062L125.637 37.9013C125.73 38.093 125.867 38.2827 126.046 38.4702C126.225 38.6619 126.465 38.8196 126.768 38.9432C127.075 39.071 127.46 39.1349 127.925 39.1349C128.581 39.1349 129.124 38.9751 129.555 38.6555C129.985 38.3402 130.2 37.8203 130.2 37.0959V35.2358H130.085C129.966 35.4744 129.791 35.7195 129.561 35.9709C129.335 36.2223 129.035 36.4332 128.66 36.6037C128.289 36.7741 127.823 36.8594 127.26 36.8594C126.506 36.8594 125.822 36.6825 125.208 36.3288C124.599 35.9709 124.113 35.4382 123.751 34.7308C123.393 34.0192 123.214 33.1286 123.214 32.0589C123.214 30.9808 123.393 30.071 123.751 29.3295C124.113 28.5838 124.601 28.0192 125.215 27.6357C125.828 27.2479 126.512 27.054 127.267 27.054C127.842 27.054 128.315 27.152 128.686 27.348C129.061 27.5398 129.359 27.772 129.58 28.0447C129.802 28.3132 129.97 28.5668 130.085 28.8054H130.213V27.1818H132.495V37.1598C132.495 37.9993 132.295 38.6939 131.894 39.2436C131.494 39.7933 130.946 40.2045 130.252 40.4773C129.557 40.75 128.769 40.8864 127.887 40.8864ZM127.906 35.044C128.396 35.044 128.813 34.9247 129.159 34.6861C129.504 34.4474 129.766 34.1044 129.945 33.657C130.124 33.2095 130.213 32.6726 130.213 32.0462C130.213 31.4283 130.124 30.8871 129.945 30.4226C129.77 29.9581 129.51 29.598 129.165 29.3423C128.824 29.0824 128.404 28.9524 127.906 28.9524C127.39 28.9524 126.96 29.0866 126.615 29.3551C126.269 29.6236 126.009 29.9922 125.835 30.4609C125.66 30.9254 125.573 31.4538 125.573 32.0462C125.573 32.647 125.66 33.1733 125.835 33.625C126.014 34.0724 126.276 34.4219 126.621 34.6733C126.97 34.9205 127.399 35.044 127.906 35.044ZM139.213 37.1918C138.229 37.1918 137.379 36.9872 136.663 36.5781C135.951 36.1648 135.404 35.581 135.02 34.8267C134.637 34.0682 134.445 33.1754 134.445 32.1484C134.445 31.1385 134.637 30.2521 135.02 29.4893C135.408 28.7223 135.949 28.1257 136.644 27.6996C137.338 27.2692 138.154 27.054 139.092 27.054C139.697 27.054 140.268 27.152 140.805 27.348C141.346 27.5398 141.823 27.8381 142.237 28.2429C142.654 28.6477 142.982 29.1634 143.221 29.7898C143.46 30.4119 143.579 31.1534 143.579 32.0142V32.7237H135.531V31.1641H141.361C141.357 30.7209 141.261 30.3267 141.073 29.9815C140.886 29.6321 140.624 29.3572 140.287 29.157C139.955 28.9567 139.567 28.8565 139.124 28.8565C138.651 28.8565 138.235 28.9716 137.877 29.2017C137.519 29.4276 137.24 29.7259 137.04 30.0966C136.844 30.4631 136.744 30.8658 136.74 31.3047V32.6662C136.74 33.2372 136.844 33.7273 137.053 34.1364C137.262 34.5412 137.553 34.8523 137.928 35.0696C138.303 35.2827 138.742 35.3892 139.245 35.3892C139.582 35.3892 139.887 35.3423 140.159 35.2486C140.432 35.1506 140.669 35.0078 140.869 34.8203C141.069 34.6328 141.22 34.4006 141.323 34.1236L143.483 34.3665C143.347 34.9375 143.087 35.4361 142.703 35.8622C142.324 36.2841 141.838 36.6122 141.246 36.8466C140.654 37.0767 139.976 37.1918 139.213 37.1918ZM150.439 27.1818V28.9716H144.795V27.1818H150.439ZM146.189 24.8295H148.502V34.0469C148.502 34.358 148.549 34.5966 148.643 34.7628C148.741 34.9247 148.869 35.0355 149.027 35.0952C149.184 35.1548 149.359 35.1847 149.551 35.1847C149.696 35.1847 149.828 35.174 149.947 35.1527C150.071 35.1314 150.164 35.1122 150.228 35.0952L150.618 36.9041C150.495 36.9467 150.318 36.9936 150.088 37.0447C149.862 37.0959 149.585 37.1257 149.257 37.1342C148.677 37.1513 148.155 37.0639 147.691 36.8722C147.226 36.6761 146.858 36.3736 146.585 35.9645C146.316 35.5554 146.184 35.044 146.189 34.4304V24.8295Z" fill="#00070B"/>
    <path d="M28 55.5H499C503.142 55.5 506.5 58.8579 506.5 63V86C506.5 90.1421 503.142 93.5 499 93.5H28C23.8579 93.5 20.5 90.1421 20.5 86V63C20.5 58.8579 23.8579 55.5 28 55.5Z" fill="white"/>
    <path d="M28 55.5H499C503.142 55.5 506.5 58.8579 506.5 63V86C506.5 90.1421 503.142 93.5 499 93.5H28C23.8579 93.5 20.5 90.1421 20.5 86V63C20.5 58.8579 23.8579 55.5 28 55.5Z" stroke="#EBEBEB"/>
    <path d="M45.125 78.625L48.5 82" stroke="#B1B1B1" stroke-width="1.5" stroke-linecap="round" stroke-linejoin="round"/>
    <path d="M47 73.75C47 70.0221 43.978 67 40.25 67C36.5221 67 33.5 70.0221 33.5 73.75C33.5 77.478 36.5221 80.5 40.25 80.5C43.978 80.5 47 77.478 47 73.75Z" stroke="#B1B1B1" stroke-width="1.5" stroke-linejoin="round"/>
    <path d="M64.8011 72.3636C64.7415 71.8598 64.4995 71.4688 64.0753 71.1903C63.651 70.9119 63.1307 70.7727 62.5142 70.7727C62.0634 70.7727 61.669 70.8456 61.331 70.9915C60.9962 71.1373 60.7344 71.3378 60.5455 71.593C60.3598 71.8482 60.267 72.1383 60.267 72.4631C60.267 72.7348 60.3317 72.9685 60.4609 73.1641C60.5935 73.3563 60.7625 73.517 60.968 73.6463C61.1735 73.7723 61.389 73.8767 61.6143 73.9595C61.8397 74.0391 62.0469 74.1037 62.2358 74.1534L63.2699 74.4318C63.535 74.5014 63.83 74.5975 64.1548 74.7202C64.483 74.8428 64.7962 75.0102 65.0945 75.2223C65.3961 75.4311 65.6446 75.6996 65.8402 76.0277C66.0357 76.3558 66.1335 76.7585 66.1335 77.2358C66.1335 77.786 65.9893 78.2831 65.701 78.7273C65.416 79.1714 64.9983 79.5244 64.4482 79.7862C63.9013 80.0481 63.2367 80.179 62.4545 80.179C61.7254 80.179 61.094 80.0613 60.5604 79.826C60.0301 79.5907 59.6125 79.2625 59.3075 78.8416C59.0059 78.4207 58.8352 77.9318 58.7955 77.375H60.0682C60.1013 77.7595 60.2306 78.0777 60.456 78.3295C60.6847 78.5781 60.973 78.7637 61.321 78.8864C61.6723 79.0057 62.0502 79.0653 62.4545 79.0653C62.9252 79.0653 63.3478 78.9891 63.7223 78.8366C64.0968 78.6809 64.3935 78.4654 64.6122 78.1903C64.831 77.9119 64.9403 77.5871 64.9403 77.2159C64.9403 76.8778 64.8459 76.6027 64.657 76.3906C64.468 76.1785 64.2195 76.0062 63.9112 75.8736C63.603 75.741 63.2699 75.625 62.9119 75.5256L61.6591 75.1676C60.8636 74.9389 60.2339 74.6125 59.7699 74.1882C59.3059 73.764 59.0739 73.2088 59.0739 72.5227C59.0739 71.9527 59.228 71.4555 59.5362 71.0312C59.8478 70.6037 60.2654 70.2723 60.7891 70.0369C61.3161 69.7983 61.9044 69.679 62.554 69.679C63.2102 69.679 63.7936 69.7966 64.304 70.032C64.8144 70.264 65.2188 70.5821 65.517 70.9865C65.8187 71.3909 65.9777 71.8499 65.9943 72.3636H64.8011ZM71.2033 80.1591C70.4675 80.1591 69.8328 79.9967 69.2992 79.6719C68.7689 79.3438 68.3596 78.8864 68.0712 78.2997C67.7862 77.7098 67.6436 77.0237 67.6436 76.2415C67.6436 75.4593 67.7862 74.7699 68.0712 74.1733C68.3596 73.5734 68.7606 73.1061 69.2743 72.7713C69.7914 72.4332 70.3946 72.2642 71.084 72.2642C71.4817 72.2642 71.8745 72.3305 72.2623 72.4631C72.65 72.5956 73.003 72.8111 73.3212 73.1094C73.6394 73.4044 73.8929 73.7955 74.0819 74.2827C74.2708 74.7699 74.3652 75.3698 74.3652 76.0824V76.5795H68.4789V75.5653H73.1721C73.1721 75.1345 73.0859 74.75 72.9135 74.4119C72.7445 74.0739 72.5025 73.8071 72.1877 73.6115C71.8761 73.416 71.5082 73.3182 71.084 73.3182C70.6167 73.3182 70.2123 73.4342 69.8709 73.6662C69.5328 73.8949 69.2727 74.1932 69.0904 74.5611C68.9081 74.929 68.8169 75.3234 68.8169 75.7443V76.4205C68.8169 76.9972 68.9164 77.486 69.1152 77.8871C69.3174 78.2848 69.5975 78.5881 69.9554 78.7969C70.3134 79.0024 70.7293 79.1051 71.2033 79.1051C71.5115 79.1051 71.79 79.062 72.0385 78.9759C72.2904 78.8864 72.5075 78.7538 72.6898 78.5781C72.8721 78.3991 73.013 78.1771 73.1124 77.9119L74.2459 78.2301C74.1266 78.6146 73.9261 78.9527 73.6444 79.2443C73.3626 79.5327 73.0146 79.758 72.6003 79.9205C72.186 80.0795 71.7203 80.1591 71.2033 80.1591ZM78.3972 80.179C77.9133 80.179 77.4741 80.0878 77.0797 79.9055C76.6853 79.7199 76.3721 79.4531 76.1401 79.1051C75.9081 78.7538 75.7921 78.3295 75.7921 77.8324C75.7921 77.3949 75.8783 77.0402 76.0506 76.7685C76.223 76.4934 76.4533 76.2779 76.7417 76.1222C77.03 75.9664 77.3482 75.8504 77.6962 75.7741C78.0475 75.6946 78.4005 75.6316 78.7551 75.5852C79.2192 75.5256 79.5953 75.4808 79.8837 75.451C80.1754 75.4179 80.3875 75.3632 80.5201 75.2869C80.656 75.2107 80.7239 75.0781 80.7239 74.8892V74.8494C80.7239 74.3589 80.5897 73.9777 80.3212 73.706C80.056 73.4342 79.6534 73.2983 79.1131 73.2983C78.553 73.2983 78.1138 73.4209 77.7956 73.6662C77.4775 73.9115 77.2537 74.1733 77.1245 74.4517L76.0108 74.054C76.2097 73.59 76.4748 73.2287 76.8063 72.9702C77.141 72.7083 77.5056 72.526 77.9 72.4233C78.2978 72.3172 78.6889 72.2642 79.0733 72.2642C79.3186 72.2642 79.6003 72.294 79.9185 72.3537C80.24 72.41 80.5499 72.5277 80.8482 72.7067C81.1498 72.8857 81.4 73.1558 81.5989 73.517C81.7978 73.8783 81.8972 74.3622 81.8972 74.9688V80H80.7239V78.9659H80.6642C80.5847 79.1316 80.4521 79.3089 80.2665 79.4979C80.0809 79.6868 79.834 79.8475 79.5257 79.9801C79.2175 80.1127 78.8413 80.179 78.3972 80.179ZM78.5762 79.125C79.0402 79.125 79.4313 79.0339 79.7495 78.8516C80.071 78.6693 80.3129 78.4339 80.4753 78.1456C80.641 77.8572 80.7239 77.554 80.7239 77.2358V76.1619C80.6742 76.2216 80.5648 76.2763 80.3958 76.326C80.2301 76.3724 80.0378 76.4138 79.8191 76.4503C79.6036 76.4834 79.3932 76.5133 79.1877 76.5398C78.9855 76.563 78.8214 76.5829 78.6955 76.5994C78.3906 76.6392 78.1055 76.7038 77.8404 76.7933C77.5785 76.8795 77.3664 77.0104 77.204 77.1861C77.0449 77.3584 76.9654 77.5937 76.9654 77.892C76.9654 78.2997 77.1162 78.608 77.4178 78.8168C77.7227 79.0223 78.1088 79.125 78.5762 79.125ZM84.0387 80V72.3636H85.1722V73.517H85.2518C85.391 73.1392 85.6429 72.8326 86.0075 72.5973C86.372 72.362 86.783 72.2443 87.2404 72.2443C87.3266 72.2443 87.4343 72.246 87.5636 72.2493C87.6928 72.2526 87.7906 72.2576 87.8569 72.2642V73.4574C87.8171 73.4474 87.726 73.4325 87.5835 73.4126C87.4442 73.3894 87.2968 73.3778 87.141 73.3778C86.7698 73.3778 86.4383 73.4557 86.1467 73.6115C85.8583 73.764 85.6296 73.9761 85.4606 74.2479C85.2949 74.5163 85.212 74.8229 85.212 75.1676V80H84.0387ZM92.1175 80.1591C91.4016 80.1591 90.7852 79.9901 90.2681 79.652C89.7511 79.3139 89.3533 78.8482 89.0749 78.255C88.7965 77.6617 88.6573 76.9839 88.6573 76.2216C88.6573 75.446 88.7998 74.7616 89.0849 74.1683C89.3732 73.5717 89.7743 73.1061 90.288 72.7713C90.805 72.4332 91.4083 72.2642 92.0977 72.2642C92.6346 72.2642 93.1185 72.3636 93.5494 72.5625C93.9802 72.7614 94.3332 73.0398 94.6083 73.3977C94.8834 73.7557 95.0541 74.1733 95.1204 74.6506H93.9471C93.8576 74.3026 93.6587 73.9943 93.3505 73.7259C93.0456 73.4541 92.6346 73.3182 92.1175 73.3182C91.6602 73.3182 91.2591 73.4375 90.9144 73.6761C90.573 73.9115 90.3062 74.2446 90.114 74.6754C89.9251 75.103 89.8306 75.6051 89.8306 76.1818C89.8306 76.7718 89.9234 77.2855 90.109 77.723C90.2979 78.1605 90.5631 78.5002 90.9045 78.7422C91.2492 78.9841 91.6535 79.1051 92.1175 79.1051C92.4225 79.1051 92.6992 79.0521 92.9478 78.946C93.1964 78.84 93.4068 78.6875 93.5792 78.4886C93.7515 78.2898 93.8742 78.0511 93.9471 77.7727H95.1204C95.0541 78.2235 94.89 78.6295 94.6282 78.9908C94.3697 79.3487 94.0266 79.6338 93.5991 79.8459C93.1748 80.0547 92.681 80.1591 92.1175 80.1591ZM98.0089 75.4062V80H96.8356V69.8182H98.0089V73.5568H98.1083C98.2873 73.1624 98.5558 72.8492 98.9137 72.6172C99.275 72.3819 99.7556 72.2642 100.355 72.2642C100.876 72.2642 101.332 72.3686 101.723 72.5774C102.114 72.7829 102.417 73.0994 102.632 73.527C102.851 73.9512 102.961 74.4915 102.961 75.1477V80H101.787V75.2273C101.787 74.6207 101.63 74.1518 101.315 73.8203C101.003 73.4856 100.571 73.3182 100.017 73.3182C99.6329 73.3182 99.2882 73.3994 98.9833 73.5618C98.6817 73.7242 98.4431 73.9612 98.2674 74.2727C98.0951 74.5843 98.0089 74.9621 98.0089 75.4062ZM110.775 80L108.448 72.3636H109.681L111.331 78.2102H111.411L113.042 72.3636H114.295L115.905 78.1903H115.985L117.635 72.3636H118.868L116.542 80H115.388L113.718 74.1335H113.599L111.928 80H110.775ZM120.42 80V72.3636H121.593V80H120.42ZM121.016 71.0909C120.787 71.0909 120.59 71.013 120.425 70.8572C120.262 70.7015 120.181 70.5142 120.181 70.2955C120.181 70.0767 120.262 69.8894 120.425 69.7337C120.59 69.5779 120.787 69.5 121.016 69.5C121.245 69.5 121.44 69.5779 121.603 69.7337C121.769 69.8894 121.851 70.0767 121.851 70.2955C121.851 70.5142 121.769 70.7015 121.603 70.8572C121.44 71.013 121.245 71.0909 121.016 71.0909ZM126.625 80.1591C125.989 80.1591 125.427 79.9983 124.94 79.6768C124.453 79.352 124.072 78.8946 123.797 78.3047C123.521 77.7114 123.384 77.0104 123.384 76.2017C123.384 75.3996 123.521 74.7036 123.797 74.1136C124.072 73.5237 124.454 73.0679 124.945 72.7464C125.435 72.425 126.002 72.2642 126.645 72.2642C127.142 72.2642 127.535 72.3471 127.824 72.5128C128.115 72.6752 128.337 72.8608 128.49 73.0696C128.645 73.2751 128.766 73.4441 128.853 73.5767H128.952V69.8182H130.125V80H128.992V78.8267H128.853C128.766 78.9659 128.644 79.1416 128.485 79.3537C128.326 79.5625 128.099 79.7498 127.804 79.9155C127.509 80.0779 127.116 80.1591 126.625 80.1591ZM126.784 79.1051C127.255 79.1051 127.653 78.9825 127.978 78.7372C128.302 78.4886 128.549 78.1456 128.718 77.7081C128.887 77.2673 128.972 76.7585 128.972 76.1818C128.972 75.6117 128.889 75.1129 128.723 74.6854C128.558 74.2545 128.312 73.9197 127.988 73.6811C127.663 73.4392 127.262 73.3182 126.784 73.3182C126.287 73.3182 125.873 73.4458 125.542 73.701C125.213 73.9529 124.967 74.2959 124.801 74.7301C124.638 75.161 124.557 75.6449 124.557 76.1818C124.557 76.7254 124.64 77.2192 124.806 77.6634C124.975 78.1042 125.223 78.4555 125.551 78.7173C125.883 78.9759 126.294 79.1051 126.784 79.1051ZM135.52 83.0227C134.953 83.0227 134.466 82.9498 134.058 82.804C133.65 82.6615 133.31 82.4725 133.039 82.2372C132.77 82.0052 132.556 81.7566 132.397 81.4915L133.332 80.8352C133.438 80.9744 133.572 81.1335 133.735 81.3125C133.897 81.4948 134.119 81.6522 134.401 81.7848C134.686 81.9207 135.059 81.9886 135.52 81.9886C136.136 81.9886 136.645 81.8395 137.046 81.5412C137.447 81.2429 137.647 80.7756 137.647 80.1392V78.5881H137.548C137.462 78.7273 137.339 78.8996 137.18 79.1051C137.024 79.3073 136.799 79.4879 136.504 79.647C136.212 79.8028 135.818 79.8807 135.321 79.8807C134.704 79.8807 134.151 79.7348 133.66 79.4432C133.173 79.1515 132.787 78.7273 132.502 78.1705C132.22 77.6136 132.079 76.9375 132.079 76.142C132.079 75.3598 132.217 74.6787 132.492 74.0987C132.767 73.5154 133.15 73.0646 133.64 72.7464C134.131 72.425 134.698 72.2642 135.341 72.2642C135.838 72.2642 136.232 72.3471 136.524 72.5128C136.819 72.6752 137.044 72.8608 137.2 73.0696C137.359 73.2751 137.482 73.4441 137.568 73.5767H137.687V72.3636H138.821V80.2188C138.821 80.875 138.672 81.4086 138.373 81.8196C138.078 82.2339 137.681 82.5372 137.18 82.7294C136.683 82.925 136.129 83.0227 135.52 83.0227ZM135.48 78.8267C135.95 78.8267 136.348 78.719 136.673 78.5036C136.998 78.2881 137.245 77.9782 137.414 77.5739C137.583 77.1695 137.667 76.6856 137.667 76.1222C137.667 75.572 137.584 75.0864 137.419 74.6655C137.253 74.2446 137.008 73.9148 136.683 73.6761C136.358 73.4375 135.957 73.3182 135.48 73.3182C134.983 73.3182 134.568 73.4441 134.237 73.696C133.909 73.9479 133.662 74.286 133.496 74.7102C133.334 75.1345 133.252 75.6051 133.252 76.1222C133.252 76.6525 133.335 77.1214 133.501 77.5291C133.67 77.9335 133.919 78.2517 134.247 78.4837C134.578 78.7124 134.989 78.8267 135.48 78.8267ZM144.17 80.1591C143.434 80.1591 142.8 79.9967 142.266 79.6719C141.736 79.3438 141.326 78.8864 141.038 78.2997C140.753 77.7098 140.61 77.0237 140.61 76.2415C140.61 75.4593 140.753 74.7699 141.038 74.1733C141.326 73.5734 141.727 73.1061 142.241 72.7713C142.758 72.4332 143.361 72.2642 144.051 72.2642C144.449 72.2642 144.841 72.3305 145.229 72.4631C145.617 72.5956 145.97 72.8111 146.288 73.1094C146.606 73.4044 146.86 73.7955 147.049 74.2827C147.238 74.7699 147.332 75.3698 147.332 76.0824V76.5795H141.446V75.5653H146.139C146.139 75.1345 146.053 74.75 145.88 74.4119C145.711 74.0739 145.469 73.8071 145.154 73.6115C144.843 73.416 144.475 73.3182 144.051 73.3182C143.583 73.3182 143.179 73.4342 142.838 73.6662C142.5 73.8949 142.239 74.1932 142.057 74.5611C141.875 74.929 141.784 75.3234 141.784 75.7443V76.4205C141.784 76.9972 141.883 77.486 142.082 77.8871C142.284 78.2848 142.564 78.5881 142.922 78.7969C143.28 79.0024 143.696 79.1051 144.17 79.1051C144.478 79.1051 144.757 79.062 145.005 78.9759C145.257 78.8864 145.474 78.7538 145.657 78.5781C145.839 78.3991 145.98 78.1771 146.079 77.9119L147.213 78.2301C147.093 78.6146 146.893 78.9527 146.611 79.2443C146.329 79.5327 145.981 79.758 145.567 79.9205C145.153 80.0795 144.687 80.1591 144.17 80.1591ZM152.438 72.3636V73.358H148.48V72.3636H152.438ZM149.634 70.5341H150.807V77.8125C150.807 78.1439 150.855 78.3925 150.951 78.5582C151.051 78.7206 151.177 78.83 151.329 78.8864C151.485 78.9394 151.649 78.9659 151.821 78.9659C151.951 78.9659 152.057 78.9593 152.14 78.946C152.222 78.9295 152.289 78.9162 152.338 78.9062L152.577 79.9602C152.498 79.9901 152.386 80.0199 152.244 80.0497C152.101 80.0829 151.921 80.0994 151.702 80.0994C151.371 80.0994 151.046 80.0282 150.728 79.8857C150.413 79.7431 150.151 79.526 149.942 79.2344C149.737 78.9427 149.634 78.5748 149.634 78.1307V70.5341ZM159.475 74.0739L158.421 74.3722C158.355 74.1965 158.257 74.0258 158.128 73.8601C158.002 73.6911 157.83 73.5518 157.611 73.4425C157.392 73.3331 157.112 73.2784 156.771 73.2784C156.303 73.2784 155.914 73.3861 155.602 73.6016C155.294 73.8137 155.14 74.0838 155.14 74.4119C155.14 74.7036 155.246 74.9339 155.458 75.103C155.67 75.272 156.002 75.4129 156.452 75.5256L157.586 75.804C158.269 75.9697 158.777 76.2232 159.112 76.5646C159.447 76.9027 159.614 77.3385 159.614 77.8722C159.614 78.3097 159.488 78.7008 159.237 79.0455C158.988 79.3902 158.64 79.6619 158.192 79.8608C157.745 80.0597 157.225 80.1591 156.631 80.1591C155.853 80.1591 155.208 79.9901 154.697 79.652C154.187 79.3139 153.864 78.8201 153.728 78.1705L154.842 77.892C154.948 78.303 155.148 78.6113 155.443 78.8168C155.741 79.0223 156.131 79.125 156.612 79.125C157.158 79.125 157.593 79.009 157.914 78.777C158.239 78.5417 158.401 78.2599 158.401 77.9318C158.401 77.6667 158.308 77.4446 158.123 77.2656C157.937 77.0833 157.652 76.9474 157.268 76.858L155.995 76.5597C155.296 76.3939 154.782 76.1371 154.454 75.7891C154.129 75.4377 153.967 74.9986 153.967 74.4716C153.967 74.0407 154.088 73.6596 154.33 73.3281C154.575 72.9967 154.908 72.7365 155.329 72.5476C155.753 72.3587 156.234 72.2642 156.771 72.2642C157.526 72.2642 158.12 72.4299 158.55 72.7614C158.985 73.0928 159.293 73.5303 159.475 74.0739Z" fill="#B1B1B1"/>
    <g clip-path="url(#clip1_996_6230)">
      <path d="M20 113C20 108.582 23.5817 105 28 105H166.333C170.752 105 174.333 108.582 174.333 113V243C174.333 247.418 170.752 251 166.333 251H28C23.5817 251 20 247.418 20 243V113Z" fill="white"/>
      <mask id="path-9-inside-1_996_6230" fill="white">
        <path d="M20 105H174.333V183H20V105Z"/>
      </mask>
      <path d="M20 105H174.333V183H20V105Z" fill="white"/>
      <path d="M174.333 182H20V184H174.333V182Z" fill="#EBEBEB" mask="url(#path-9-inside-1_996_6230)"/>
      <rect x="28" y="113" width="138.333" height="62" rx="3" fill="#F8F8F8"/>
      <path d="M28 197C28 193.686 30.6863 191 34 191H129C132.314 191 135 193.686 135 197V197C135 200.314 132.314 203 129 203H34C30.6863 203 28 200.314 28 197V197Z" fill="#B1B1B1"/>
      <path d="M28 221C28 217.686 30.6863 215 34 215H160.333C163.647 215 166.333 217.686 166.333 221V237C166.333 240.314 163.647 243 160.333 243H34C30.6863 243 28 240.314 28 237V221Z" fill="#D0EEFF"/>
    </g>
    <path d="M28 105.5H166.333C170.475 105.5 173.833 108.858 173.833 113V243C173.833 247.142 170.475 250.5 166.333 250.5H28C23.8579 250.5 20.5 247.142 20.5 243V113C20.5 108.858 23.8579 105.5 28 105.5Z" stroke="#EBEBEB"/>
    <g clip-path="url(#clip2_996_6230)">
      <path d="M186.333 113C186.333 108.582 189.915 105 194.333 105H332.667C337.085 105 340.667 108.582 340.667 113V243C340.667 247.418 337.085 251 332.667 251H194.333C189.915 251 186.333 247.418 186.333 243V113Z" fill="white"/>
      <mask id="path-16-inside-2_996_6230" fill="white">
        <path d="M186.333 105H340.667V183H186.333V105Z"/>
      </mask>
      <path d="M186.333 105H340.667V183H186.333V105Z" fill="white"/>
      <path d="M340.667 182H186.333V184H340.667V182Z" fill="#EBEBEB" mask="url(#path-16-inside-2_996_6230)"/>
      <rect x="194.333" y="113" width="138.333" height="62" rx="3" fill="#F8F8F8"/>
      <path d="M194.333 197C194.333 193.686 197.02 191 200.333 191H295.333C298.647 191 301.333 193.686 301.333 197V197C301.333 200.314 298.647 203 295.333 203H200.333C197.02 203 194.333 200.314 194.333 197V197Z" fill="#B1B1B1"/>
      <path d="M194.333 221C194.333 217.686 197.02 215 200.333 215H319.333C322.647 215 325.333 217.686 325.333 221V237C325.333 240.314 322.647 243 319.333 243H200.333C197.02 243 194.333 240.314 194.333 237V221Z" fill="#D0EEFF"/>
    </g>
    <path d="M194.333 105.5H332.667C336.809 105.5 340.167 108.858 340.167 113V243C340.167 247.142 336.809 250.5 332.667 250.5H194.333C190.191 250.5 186.833 247.142 186.833 243V113C186.833 108.858 190.191 105.5 194.333 105.5Z" stroke="#EBEBEB"/>
    <g clip-path="url(#clip3_996_6230)">
      <path d="M352.667 113C352.667 108.582 356.248 105 360.667 105H499C503.418 105 507 108.582 507 113V243C507 247.418 503.418 251 499 251H360.667C356.248 251 352.667 247.418 352.667 243V113Z" fill="white"/>
      <mask id="path-23-inside-3_996_6230" fill="white">
        <path d="M352.667 105H507V183H352.667V105Z"/>
      </mask>
      <path d="M352.667 105H507V183H352.667V105Z" fill="white"/>
      <path d="M507 182H352.667V184H507V182Z" fill="#EBEBEB" mask="url(#path-23-inside-3_996_6230)"/>
      <rect x="360.667" y="113" width="138.333" height="62" rx="3" fill="#F8F8F8"/>
      <path d="M360.667 197C360.667 193.686 363.353 191 366.667 191H461.667C464.98 191 467.667 193.686 467.667 197V197C467.667 200.314 464.98 203 461.667 203H366.667C363.353 203 360.667 200.314 360.667 197V197Z" fill="#B1B1B1"/>
      <path d="M360.667 221C360.667 217.686 363.353 215 366.667 215H493C496.314 215 499 217.686 499 221V237C499 240.314 496.314 243 493 243H366.667C363.353 243 360.667 240.314 360.667 237V221Z" fill="#D0EEFF"/>
    </g>
    <path d="M360.667 105.5H499C503.142 105.5 506.5 108.858 506.5 113V243C506.5 247.142 503.142 250.5 499 250.5H360.667C356.525 250.5 353.167 247.142 353.167 243V113C353.167 108.858 356.525 105.5 360.667 105.5Z" stroke="#EBEBEB"/>
    <g clip-path="url(#clip4_996_6230)">
      <path d="M20 271C20 266.582 23.5817 263 28 263H166.333C170.752 263 174.333 266.582 174.333 271V401C174.333 405.418 170.752 409 166.333 409H28C23.5817 409 20 405.418 20 401V271Z" fill="white"/>
      <mask id="path-30-inside-4_996_6230" fill="white">
        <path d="M20 263H174.333V341H20V263Z"/>
      </mask>
      <path d="M20 263H174.333V341H20V263Z" fill="white"/>
      <path d="M174.333 340H20V342H174.333V340Z" fill="#EBEBEB" mask="url(#path-30-inside-4_996_6230)"/>
      <rect x="28" y="271" width="138.333" height="62" rx="3" fill="#F8F8F8"/>
      <path d="M28 355C28 351.686 30.6863 349 34 349H129C132.314 349 135 351.686 135 355V355C135 358.314 132.314 361 129 361H34C30.6863 361 28 358.314 28 355V355Z" fill="#B1B1B1"/>
      <path d="M28 379C28 375.686 30.6863 373 34 373H153C156.314 373 159 375.686 159 379V395C159 398.314 156.314 401 153 401H34C30.6863 401 28 398.314 28 395V379Z" fill="#D0EEFF"/>
    </g>
    <path d="M28 263.5H166.333C170.475 263.5 173.833 266.858 173.833 271V401C173.833 405.142 170.475 408.5 166.333 408.5H28C23.8579 408.5 20.5 405.142 20.5 401V271C20.5 266.858 23.8579 263.5 28 263.5Z" stroke="#EBEBEB"/>
    <g clip-path="url(#clip5_996_6230)">
      <path d="M186.333 271C186.333 266.582 189.915 263 194.333 263H332.667C337.085 263 340.667 266.582 340.667 271V401C340.667 405.418 337.085 409 332.667 409H194.333C189.915 409 186.333 405.418 186.333 401V271Z" fill="white"/>
      <mask id="path-37-inside-5_996_6230" fill="white">
        <path d="M186.333 263H340.667V341H186.333V263Z"/>
      </mask>
      <path d="M186.333 263H340.667V341H186.333V263Z" fill="white"/>
      <path d="M340.667 340H186.333V342H340.667V340Z" fill="#EBEBEB" mask="url(#path-37-inside-5_996_6230)"/>
      <rect x="194.333" y="271" width="138.333" height="62" rx="3" fill="#D9D9D9"/>
      <path d="M194.333 355C194.333 351.686 197.02 349 200.333 349H295.333C298.647 349 301.333 351.686 301.333 355V355C301.333 358.314 298.647 361 295.333 361H200.333C197.02 361 194.333 358.314 194.333 355V355Z" fill="#B1B1B1"/>
      <path d="M194.333 379C194.333 375.686 197.02 373 200.333 373H319.333C322.647 373 325.333 375.686 325.333 379V395C325.333 398.314 322.647 401 319.333 401H200.333C197.02 401 194.333 398.314 194.333 395V379Z" fill="#D0EEFF"/>
    </g>
    <path d="M194.333 263.5H332.667C336.809 263.5 340.167 266.858 340.167 271V401C340.167 405.142 336.809 408.5 332.667 408.5H194.333C190.191 408.5 186.833 405.142 186.833 401V271C186.833 266.858 190.191 263.5 194.333 263.5Z" stroke="#EBEBEB"/>
    <g clip-path="url(#clip6_996_6230)">
      <path d="M352.667 271C352.667 266.582 356.248 263 360.667 263H499C503.418 263 507 266.582 507 271V401C507 405.418 503.418 409 499 409H360.667C356.248 409 352.667 405.418 352.667 401V271Z" fill="white"/>
      <mask id="path-44-inside-6_996_6230" fill="white">
        <path d="M352.667 263H507V341H352.667V263Z"/>
      </mask>
      <path d="M352.667 263H507V341H352.667V263Z" fill="white"/>
      <path d="M507 340H352.667V342H507V340Z" fill="#EBEBEB" mask="url(#path-44-inside-6_996_6230)"/>
      <rect x="360.667" y="271" width="138.333" height="62" rx="3" fill="#F8F8F8"/>
      <path d="M360.667 355C360.667 351.686 363.353 349 366.667 349H461.667C464.98 349 467.667 351.686 467.667 355V355C467.667 358.314 464.98 361 461.667 361H366.667C363.353 361 360.667 358.314 360.667 355V355Z" fill="#B1B1B1"/>
      <path d="M360.667 379C360.667 375.686 363.353 373 366.667 373H485.667C488.98 373 491.667 375.686 491.667 379V395C491.667 398.314 488.98 401 485.667 401H366.667C363.353 401 360.667 398.314 360.667 395V379Z" fill="#D0EEFF"/>
    </g>
    <path d="M360.667 263.5H499C503.142 263.5 506.5 266.858 506.5 271V401C506.5 405.142 503.142 408.5 499 408.5H360.667C356.525 408.5 353.167 405.142 353.167 401V271C353.167 266.858 356.525 263.5 360.667 263.5Z" stroke="#EBEBEB"/>
    <g clip-path="url(#clip7_996_6230)">
      <path d="M20 429C20 424.582 23.5817 421 28 421H166.333C170.752 421 174.333 424.582 174.333 429V559C174.333 563.418 170.752 567 166.333 567H28C23.5817 567 20 563.418 20 559V429Z" fill="white"/>
      <mask id="path-51-inside-7_996_6230" fill="white">
        <path d="M20 421H174.333V499H20V421Z"/>
      </mask>
      <path d="M20 421H174.333V499H20V421Z" fill="white"/>
      <path d="M174.333 498H20V500H174.333V498Z" fill="#EBEBEB" mask="url(#path-51-inside-7_996_6230)"/>
      <rect x="28" y="429" width="138.333" height="62" rx="3" fill="#F8F8F8"/>
    </g>
    <path d="M28 421.5H166.333C170.475 421.5 173.833 424.858 173.833 429V559C173.833 563.142 170.475 566.5 166.333 566.5H28C23.8579 566.5 20.5 563.142 20.5 559V429C20.5 424.858 23.8579 421.5 28 421.5Z" stroke="#EBEBEB"/>
    <g clip-path="url(#clip8_996_6230)">
      <path d="M186.333 429C186.333 424.582 189.915 421 194.333 421H332.667C337.085 421 340.667 424.582 340.667 429V559C340.667 563.418 337.085 567 332.667 567H194.333C189.915 567 186.333 563.418 186.333 559V429Z" fill="white"/>
      <mask id="path-56-inside-8_996_6230" fill="white">
        <path d="M186.333 421H340.667V499H186.333V421Z"/>
      </mask>
      <path d="M186.333 421H340.667V499H186.333V421Z" fill="white"/>
      <path d="M340.667 498H186.333V500H340.667V498Z" fill="#EBEBEB" mask="url(#path-56-inside-8_996_6230)"/>
      <rect x="194.333" y="429" width="138.333" height="62" rx="3" fill="#F8F8F8"/>
    </g>
    <path d="M194.333 421.5H332.667C336.809 421.5 340.167 424.858 340.167 429V559C340.167 563.142 336.809 566.5 332.667 566.5H194.333C190.191 566.5 186.833 563.142 186.833 559V429C186.833 424.858 190.191 421.5 194.333 421.5Z" stroke="#EBEBEB"/>
    <g clip-path="url(#clip9_996_6230)">
      <path d="M352.667 429C352.667 424.582 356.248 421 360.667 421H499C503.418 421 507 424.582 507 429V559C507 563.418 503.418 567 499 567H360.667C356.248 567 352.667 563.418 352.667 559V429Z" fill="white"/>
      <mask id="path-61-inside-9_996_6230" fill="white">
        <path d="M352.667 421H507V499H352.667V421Z"/>
      </mask>
      <path d="M352.667 421H507V499H352.667V421Z" fill="white"/>
      <path d="M507 498H352.667V500H507V498Z" fill="#EBEBEB" mask="url(#path-61-inside-9_996_6230)"/>
      <rect x="360.667" y="429" width="138.333" height="62" rx="3" fill="#F8F8F8"/>
    </g>
    <path d="M360.667 421.5H499C503.142 421.5 506.5 424.858 506.5 429V559C506.5 563.142 503.142 566.5 499 566.5H360.667C356.525 566.5 353.167 563.142 353.167 559V429C353.167 424.858 356.525 421.5 360.667 421.5Z" stroke="#EBEBEB"/>
    <rect y="266" width="527" height="228" fill="url(#paint1_linear_996_6230)"/>
  </g>
</svg>