<svg width="100" height="100" viewBox="0 0 100 100" fill="none" xmlns="http://www.w3.org/2000/svg">
<path d="M70.833 45.0188C70.833 43.5783 70.833 42.8583 71.0497 42.2167C71.6797 40.3518 73.3405 39.6282 75.0043 38.8703C76.8747 38.0184 77.8097 37.5925 78.7363 37.5175C79.7884 37.4324 80.8422 37.6591 81.7413 38.1637C82.9334 38.8327 83.7647 40.1039 84.6159 41.1376C88.5468 45.9117 90.5118 48.2992 91.2309 50.9317C91.8113 53.0558 91.8113 55.2775 91.2309 57.4017C90.1822 61.2412 86.8684 64.46 84.4155 67.4392C83.1609 68.9629 82.5334 69.725 81.7413 70.1696C80.8422 70.6742 79.7884 70.9008 78.7363 70.8158C77.8097 70.7408 76.8747 70.315 75.0043 69.4629C73.3405 68.705 71.6797 67.9817 71.0497 66.1167C70.833 65.475 70.833 64.755 70.833 63.3146V45.0188Z" stroke="#B1B1B1" stroke-width="5"/>
<path d="M29.1663 45.0192C29.1663 43.2058 29.1154 41.5759 27.6493 40.3009C27.116 39.8371 26.409 39.5151 24.9951 38.8711C23.1247 38.0191 22.1895 37.5931 21.2628 37.5182C18.4826 37.2934 16.9868 39.1909 15.3835 41.1383C11.4528 45.9125 9.48742 48.2996 8.76826 50.9321C8.18792 53.0567 8.18792 55.2784 8.76826 57.4025C9.81717 61.2421 13.131 64.4604 15.5839 67.44C17.13 69.3179 18.607 71.0313 21.2628 70.8167C22.1895 70.7417 23.1247 70.3154 24.9951 69.4638C26.409 68.8196 27.116 68.4975 27.6493 68.0338C29.1154 66.7588 29.1663 65.1292 29.1663 63.3154V45.0192Z" stroke="#B1B1B1" stroke-width="5"/>
<path d="M20.833 37.5C20.833 23.6929 33.8914 12.5 49.9997 12.5C66.108 12.5 79.1663 23.6929 79.1663 37.5" stroke="#B1B1B1" stroke-width="5" stroke-linecap="square" stroke-linejoin="round"/>
<path d="M79.167 70.8333V74.1666C79.167 81.5303 71.7049 87.4999 62.5003 87.4999H54.167" stroke="#B1B1B1" stroke-width="5" stroke-linecap="round" stroke-linejoin="round"/>
</svg>
