<svg width="17" height="17" viewBox="0 0 17 17" fill="none" xmlns="http://www.w3.org/2000/svg">
<g clip-path="url(#clip0_498_7245)">
<path d="M0.186035 8.5C0.186035 6.37827 1.02889 4.34344 2.52918 2.84315C4.02947 1.34285 6.0643 0.5 8.18604 0.5C10.3078 0.5 12.3426 1.34285 13.8429 2.84315C15.3432 4.34344 16.186 6.37827 16.186 8.5C16.186 10.6217 15.3432 12.6566 13.8429 14.1569C12.3426 15.6571 10.3078 16.5 8.18604 16.5C6.0643 16.5 4.02947 15.6571 2.52918 14.1569C1.02889 12.6566 0.186035 10.6217 0.186035 8.5Z" fill="white"/>
<path d="M11.186 6L7.18604 11L5.18604 8.857" stroke="#00070B" stroke-width="1.5" stroke-linecap="round"/>
<mask id="mask0_498_7245" style="mask-type:luminance" maskUnits="userSpaceOnUse" x="0" y="0" width="17" height="17">
<path d="M0.186035 8.5C0.186035 6.37827 1.02889 4.34344 2.52918 2.84315C4.02947 1.34285 6.0643 0.5 8.18604 0.5C10.3078 0.5 12.3426 1.34285 13.8429 2.84315C15.3432 4.34344 16.186 6.37827 16.186 8.5C16.186 10.6217 15.3432 12.6566 13.8429 14.1569C12.3426 15.6571 10.3078 16.5 8.18604 16.5C6.0643 16.5 4.02947 15.6571 2.52918 14.1569C1.02889 12.6566 0.186035 10.6217 0.186035 8.5Z" fill="white"/>
</mask>
<g mask="url(#mask0_498_7245)">
<path d="M-0.813965 8.5C-0.813965 6.11305 0.134247 3.82387 1.82207 2.13604C3.5099 0.448212 5.79909 -0.5 8.18604 -0.5C10.573 -0.5 12.8622 0.448212 14.55 2.13604C16.2378 3.82387 17.186 6.11305 17.186 8.5H15.186C15.186 6.64348 14.4485 4.86301 13.1358 3.55025C11.823 2.2375 10.0426 1.5 8.18604 1.5C6.32952 1.5 4.54904 2.2375 3.23629 3.55025C1.92353 4.86301 1.18604 6.64348 1.18604 8.5H-0.813965ZM17.186 9.5C17.186 11.8869 16.2378 14.1761 14.55 15.864C12.8622 17.5518 10.573 18.5 8.18604 18.5C5.79909 18.5 3.5099 17.5518 1.82207 15.864C0.134247 14.1761 -0.813965 11.8869 -0.813965 9.5L1.18604 8.5C1.18604 11.814 4.32003 14.5 8.18604 14.5C12.052 14.5 15.186 11.814 15.186 8.5L17.186 9.5ZM8.18604 18.5C5.79909 18.5 3.5099 17.5518 1.82207 15.864C0.134247 14.1761 -0.813965 11.8869 -0.813965 9.5V8.5C-0.813965 6.11305 0.134247 3.82387 1.82207 2.13604C3.5099 0.448212 5.79909 -0.5 8.18604 -0.5V1.5C6.32952 1.5 4.54904 2.2375 3.23629 3.55025C1.92353 4.86301 1.18604 6.64348 1.18604 8.5C1.18604 11.814 4.32003 14.5 8.18604 14.5V18.5ZM8.18604 -0.5C10.573 -0.5 12.8622 0.448212 14.55 2.13604C16.2378 3.82387 17.186 6.11305 17.186 8.5V9.5C17.186 11.8869 16.2378 14.1761 14.55 15.864C12.8622 17.5518 10.573 18.5 8.18604 18.5V14.5C12.052 14.5 15.186 11.814 15.186 8.5C15.186 6.64348 14.4485 4.86301 13.1358 3.55025C11.823 2.2375 10.0426 1.5 8.18604 1.5V-0.5Z" fill="#FF6845"/>
</g>
</g>
<defs>
<clipPath id="clip0_498_7245">
<rect width="16" height="16" fill="white" transform="translate(0.186035 0.5)"/>
</clipPath>
</defs>
</svg>
