<svg width="100" height="100" viewBox="0 0 100 100" fill="none" xmlns="http://www.w3.org/2000/svg">
<rect width="100" height="100" rx="50" fill="#3A7DFF"/>
<path d="M61.8125 51.5791C61.2065 54.0859 58.3429 55.8575 52.6157 59.4007C47.0788 62.8255 44.3108 64.5383 42.0796 63.8499C41.1572 63.5651 40.3172 63.0247 39.6393 62.2799C38 60.4791 38 56.9859 38 49.9999C38 43.014 38 39.5207 39.6393 37.7198C40.3172 36.9752 41.1572 36.4347 42.0796 36.1501C44.3108 35.4618 47.0788 37.1743 52.6157 40.5993C58.3429 44.1424 61.2065 45.914 61.8125 48.4207C62.0625 49.4555 62.0625 50.5443 61.8125 51.5791Z" fill="white"/>
<path d="M12.9865 41.1647L6.04187 38.2966L7.2012 35.5684C7.42407 35.0439 7.71454 34.6386 8.07261 34.3526C8.42842 34.0655 8.82491 33.8985 9.26209 33.8515C9.69796 33.8013 10.1465 33.8715 10.6076 34.0619C11.0688 34.2524 11.4336 34.5195 11.7021 34.8632C11.9706 35.2069 12.1233 35.6074 12.1602 36.0645C12.1981 36.5194 12.1042 37.0125 11.8784 37.5437L11.1395 39.2826L9.96286 38.7967L10.6014 37.2941C10.7209 37.0127 10.7708 36.7608 10.7511 36.5383C10.7301 36.3127 10.6517 36.1189 10.5159 35.957C10.3788 35.7918 10.196 35.6621 9.96772 35.5678C9.73713 35.4726 9.51633 35.4357 9.30531 35.457C9.09298 35.4752 8.90012 35.5569 8.72674 35.7023C8.5511 35.8467 8.40301 36.0608 8.28249 36.3444L7.86352 37.3303L13.6077 39.7026L12.9865 41.1647Z" fill="white"/>
<path d="M17.7457 30.6516L11.7828 26.0803L12.7666 24.833L17.6901 28.6075L19.685 26.0785L20.7244 26.8753L17.7457 30.6516Z" fill="white"/>
<path d="M23.8305 23.4248L22.4922 24.4768L19.8061 17.0321L21.4155 15.7669L28.177 20.0078L26.8387 21.0599L21.7137 17.7163L21.6675 17.7526L23.8305 23.4248ZM21.8895 21.1944L25.0506 18.7093L25.8304 19.6734L22.6694 22.1585L21.8895 21.1944Z" fill="white"/>
<path d="M26.3794 11.7351L27.9394 10.8792L31.0259 12.8765L31.0903 12.8412L31.0079 9.1958L32.5679 8.33996L32.5437 13.8933L33.8443 16.2093L32.4612 16.9681L31.1606 14.6521L26.3794 11.7351Z" fill="white"/>
<path d="M47.3528 5.73561L48.5363 13.1553L47.1825 13.3788L43.2125 9.24131L43.1582 9.25027L43.9031 13.9202L42.3357 14.1789L41.1522 6.75922L42.5277 6.53215L46.4719 10.6702L46.537 10.6595L45.7927 5.99315L47.3528 5.73561Z" fill="white"/>
<path d="M60.3207 9.93489C60.221 10.7481 59.9818 11.4229 59.6031 11.9593C59.2269 12.4959 58.7553 12.8854 58.1885 13.1278C57.6243 13.368 57.0129 13.4517 56.3541 13.3788C55.6904 13.3054 55.1133 13.089 54.6227 12.7296C54.1321 12.3702 53.7686 11.8883 53.5322 11.2839C53.2959 10.6795 53.2274 9.97192 53.3268 9.1611C53.4265 8.34784 53.6645 7.67291 54.0408 7.1363C54.417 6.5997 54.8872 6.21128 55.4514 5.97105C56.0158 5.72838 56.6298 5.64376 57.2935 5.71719C57.9523 5.79008 58.527 6.00622 59.0176 6.36561C59.511 6.72284 59.8758 7.20364 60.1121 7.80803C60.3509 8.41268 60.4205 9.12163 60.3207 9.93489ZM58.7199 9.75778C58.7845 9.23098 58.76 8.77799 58.6463 8.39879C58.5351 8.01986 58.3487 7.72119 58.0872 7.5028C57.8257 7.2844 57.5042 7.15409 57.1225 7.11186C56.7408 7.06964 56.3963 7.12625 56.089 7.28171C55.7816 7.43717 55.5268 7.68702 55.3244 8.03126C55.1245 8.37576 54.9922 8.81141 54.9276 9.3382C54.863 9.865 54.8863 10.3179 54.9976 10.6968C55.1112 11.076 55.2988 11.3748 55.5603 11.5932C55.8218 11.8116 56.1434 11.9419 56.5251 11.9841C56.9067 12.0263 57.2512 11.9697 57.5586 11.8143C57.8659 11.6588 58.1196 11.4088 58.3195 11.0643C58.5219 10.7201 58.6554 10.2846 58.7199 9.75778Z" fill="white"/>
<path d="M63.2388 15.2417L64.4584 7.55227L66.0409 8.26426L64.9654 13.5044L65.0223 13.53L68.4833 9.3631L69.8383 9.97273L68.8719 15.2741L68.9321 15.3012L72.2806 11.0716L73.8631 11.7836L68.7224 17.7088L67.3105 17.0736L68.0849 12.0358L68.0314 12.0118L64.6507 15.8769L63.2388 15.2417Z" fill="white"/>
<path d="M89.0351 64.1478C89.2207 64.1635 89.3944 64.1524 89.5563 64.1146C89.7205 64.0777 89.8717 64.0135 90.0099 63.9222C90.1495 63.834 90.2745 63.7194 90.3849 63.5782C90.4945 63.4393 90.5867 63.2742 90.6616 63.0829C90.8016 62.7254 90.8356 62.3772 90.7634 62.0383C90.6903 61.7017 90.5129 61.3934 90.2312 61.1135C89.9518 60.8344 89.5675 60.6018 89.0783 60.4156C88.5891 60.2295 88.1441 60.1451 87.7433 60.1627C87.3424 60.1802 86.9986 60.2901 86.7119 60.4924C86.4275 60.6955 86.213 60.9816 86.0686 61.3505C85.9374 61.6853 85.885 61.9937 85.9111 62.2758C85.9386 62.5611 86.0375 62.8081 86.2079 63.0168C86.3774 63.2279 86.6119 63.3904 86.9113 63.5044L86.749 63.788L87.4554 61.9843L88.5732 62.4098L87.4267 65.3374L86.542 65.0007C85.9249 64.7658 85.4454 64.4341 85.1036 64.0057C84.7641 63.5782 84.5635 63.091 84.5019 62.5442C84.4425 61.9982 84.5279 61.4314 84.758 60.8439C85.0149 60.188 85.3857 59.667 85.8704 59.2811C86.3574 58.8959 86.9239 58.6667 87.5699 58.5933C88.2173 58.5231 88.9113 58.6289 89.6519 58.9107C90.221 59.1274 90.6964 59.4025 91.0779 59.7361C91.4608 60.0729 91.7493 60.4496 91.9434 60.8663C92.1374 61.2829 92.238 61.7203 92.2451 62.1783C92.2522 62.6364 92.1652 63.0965 91.9842 63.5588C91.829 63.9551 91.6262 64.3019 91.3759 64.5991C91.1278 64.8972 90.8469 65.1383 90.5331 65.3225C90.2185 65.5089 89.883 65.6311 89.5267 65.6892C89.1727 65.7481 88.8126 65.7353 88.4464 65.6509L89.0351 64.1478Z" fill="white"/>
<path d="M81.6518 68.3269L87.7433 72.7254L84.724 76.7893L83.6622 76.0226L85.7341 73.2338L84.2826 72.1857L82.366 74.7655L81.3042 73.9987L83.2208 71.419L81.7663 70.3688L79.6856 73.1694L78.6237 72.4027L81.6518 68.3269Z" fill="white"/>
<path d="M81.0349 79.4255L81.8876 80.4196L77.148 84.371L76.2952 83.3769L78.062 81.9039L74.0228 77.1952L75.2289 76.1897L79.2681 80.8985L81.0349 79.4255Z" fill="white"/>
<path d="M68.0698 89.8394L65.0135 82.9755L66.4714 82.3446L69.5277 89.2085L68.0698 89.8394Z" fill="white"/>
<path d="M57.2914 93.166L55.8653 85.7891L57.2138 85.5357L61.324 89.5752L61.378 89.565L60.4805 84.922L62.0417 84.6287L63.4678 92.0056L62.0977 92.263L58.0134 88.2225L57.9485 88.2347L58.8454 92.8741L57.2914 93.166Z" fill="white"/>
<path d="M46.3448 92.7144L46.1044 94.0019L40.0328 92.9001L40.2732 91.6126L42.5365 92.0233L43.6752 85.9249L45.2202 86.2053L44.0815 92.3037L46.3448 92.7144Z" fill="white"/>
<path d="M30.3481 85.4602C30.7166 84.7284 31.1696 84.174 31.7071 83.7972C32.2424 83.4193 32.8177 83.2121 33.433 83.1756C34.045 83.1402 34.6487 83.2682 35.2441 83.5595C35.8438 83.853 36.3138 84.2519 36.6542 84.756C36.9945 85.2602 37.1738 85.8367 37.1921 86.4855C37.2104 87.1343 37.0359 87.8236 36.6685 88.5532C36.3 89.285 35.8481 89.8399 35.3128 90.2177C34.7775 90.5956 34.2039 90.8023 33.5918 90.8377C32.9787 90.8753 32.3723 90.7473 31.7726 90.4538C31.1772 90.1625 30.7094 89.7647 30.3691 89.2605C30.0254 88.7575 29.8445 88.1815 29.8262 87.5327C29.8057 86.8828 29.9796 86.192 30.3481 85.4602ZM31.7948 86.1681C31.5561 86.6421 31.4262 87.0768 31.4051 87.4722C31.3818 87.8665 31.4563 88.2107 31.6286 88.5047C31.801 88.7986 32.0596 89.03 32.4045 89.1988C32.7494 89.3676 33.0927 89.4308 33.4344 89.3884C33.7762 89.346 34.1004 89.1969 34.4071 88.9413C34.7116 88.6846 34.9832 88.3193 35.2219 87.8452C35.4606 87.3712 35.5916 86.937 35.6149 86.5427C35.636 86.1474 35.5603 85.8027 35.388 85.5087C35.2157 85.2147 34.957 84.9833 34.6121 84.8145C34.2672 84.6457 33.9239 84.5826 33.5822 84.625C33.2405 84.6674 32.9173 84.8169 32.6128 85.0736C32.3062 85.3292 32.0335 85.6941 31.7948 86.1681Z" fill="white"/>
<path d="M19.3186 82.3523L18.1561 81.2696L21.532 77.7466C21.911 77.351 22.3384 77.0941 22.8142 76.9758C23.2882 76.8558 23.7757 76.872 24.2766 77.0243C24.7759 77.1785 25.2528 77.4672 25.7074 77.8906C26.1638 78.3157 26.4843 78.7695 26.6688 79.2521C26.8516 79.7365 26.8957 80.2153 26.8011 80.6887C26.7066 81.1621 26.4698 81.5965 26.0907 81.9921L22.7148 85.5151L21.5523 84.4325L24.8343 81.0075C25.0323 80.8009 25.1626 80.5747 25.2253 80.329C25.2862 80.0816 25.2766 79.8337 25.1963 79.5852C25.1161 79.3366 24.9641 79.1082 24.7403 78.8998C24.5148 78.6898 24.2748 78.5532 24.0204 78.49C23.7641 78.4252 23.5134 78.4306 23.2681 78.5063C23.0211 78.5803 22.7985 78.7206 22.6006 78.9272L19.3186 82.3523Z" fill="white"/>
<path d="M12.4679 69.5587L13.2953 70.9363C13.1309 71.0662 13.0022 71.2107 12.9094 71.3696C12.8145 71.5298 12.7539 71.6997 12.7277 71.8793C12.7014 72.0588 12.7098 72.2437 12.7527 72.4339C12.7943 72.6219 12.8705 72.8082 12.9813 72.9927C13.1816 73.3261 13.4394 73.5678 13.7549 73.7178C14.0682 73.8691 14.4243 73.9203 14.823 73.8717C15.2196 73.8243 15.6428 73.6692 16.0927 73.4066C16.5553 73.1366 16.903 72.8416 17.1359 72.5216C17.3675 72.1995 17.4893 71.8679 17.5012 71.5267C17.5132 71.1856 17.4216 70.8526 17.2264 70.5276C17.1168 70.3452 16.9911 70.1906 16.8494 70.0638C16.7063 69.9349 16.5518 69.8367 16.3859 69.7694C16.2178 69.7033 16.0422 69.6698 15.8592 69.6691C15.6749 69.6662 15.4867 69.6996 15.2946 69.7692L14.4735 68.388C14.7928 68.2498 15.1336 68.1712 15.4959 68.1523C15.8549 68.1325 16.2149 68.1786 16.5761 68.2906C16.9338 68.4018 17.2749 68.585 17.5994 68.8402C17.9204 69.0945 18.205 69.4282 18.4531 69.8412C18.7981 70.4157 18.9757 71.0059 18.9858 71.6117C18.9946 72.2153 18.8295 72.7931 18.4906 73.3449C18.1503 73.8947 17.6275 74.3755 16.922 74.7873C16.2144 75.2003 15.533 75.4196 14.878 75.4452C14.2229 75.4708 13.6295 75.3329 13.0976 75.0317C12.5637 74.7317 12.1267 74.2987 11.7867 73.7326C11.5626 73.3593 11.4076 72.9826 11.3218 72.6022C11.2347 72.2198 11.2183 71.8457 11.2725 71.4799C11.3246 71.1153 11.4497 70.7704 11.6481 70.4451C11.8451 70.1177 12.1184 69.8222 12.4679 69.5587Z" fill="white"/>
<path d="M14.9294 64.4637L7.63962 66.2836L7.24441 64.745L10.2522 63.9941L9.44988 60.8707L6.44212 61.6216L6.04783 60.0865L13.3376 58.2667L13.7319 59.8017L10.7206 60.5535L11.5229 63.6769L14.5342 62.9251L14.9294 64.4637Z" fill="white"/>
<circle cx="50" cy="50" r="32.2674" stroke="white" stroke-width="0.581395"/>
</svg>
