<svg width="29" height="33" viewBox="0 0 29 33" fill="none" xmlns="http://www.w3.org/2000/svg">
<g clip-path="url(#clip0_925_4335)">
<path d="M24.631 6.78389C24.6095 6.62379 24.4725 6.53531 24.3592 6.52559C24.2462 6.51587 21.8538 6.33455 21.8538 6.33455C21.8538 6.33455 20.1924 4.64741 20.0101 4.46072C19.8276 4.27403 19.4713 4.3308 19.333 4.37249C19.3125 4.37863 18.9699 4.48681 18.4031 4.66608C17.848 3.03265 16.8687 1.53144 15.1454 1.53144C15.0979 1.53144 15.0489 1.53349 14.9999 1.5363C14.5098 0.873416 13.9027 0.585449 13.3784 0.585449C9.36438 0.585449 7.44661 5.71795 6.84528 8.32627C5.28557 8.82063 4.17741 9.17202 4.03589 9.21754C3.16527 9.49681 3.13777 9.52494 3.0235 10.364C2.93724 10.9993 0.65918 29.0189 0.65918 29.0189L18.4104 32.4208L28.0287 30.2925C28.0287 30.2925 24.6522 6.94398 24.631 6.78389ZM17.422 4.97655C16.9762 5.11772 16.4694 5.27808 15.92 5.45198C15.9205 5.3438 15.921 5.23716 15.921 5.12079C15.921 4.10549 15.7833 3.28814 15.5622 2.64009C16.4501 2.75415 17.0414 3.78735 17.422 4.97655ZM14.4608 2.84136C14.7076 3.47407 14.8681 4.38195 14.8681 5.60722C14.8681 5.66987 14.8676 5.72716 14.8671 5.78521C13.8902 6.09466 12.8289 6.43071 11.765 6.76778C12.3623 4.40983 13.4819 3.27101 14.4608 2.84136ZM13.2682 1.68668C13.4414 1.68668 13.616 1.74678 13.783 1.86442C12.4966 2.48357 11.1176 4.04309 10.5353 7.15727C9.68417 7.42683 8.85231 7.69024 8.0832 7.93396C8.76529 5.55863 10.385 1.68668 13.2682 1.68668Z" fill="white"/>
<path d="M24.3589 6.52566C24.2459 6.51594 21.8536 6.33462 21.8536 6.33462C21.8536 6.33462 20.1921 4.64748 20.0099 4.46079C19.9416 4.39122 19.8496 4.35568 19.7533 4.34033L18.4111 32.4206L28.0285 30.2926C28.0285 30.2926 24.652 6.94405 24.6307 6.78396C24.6092 6.62386 24.4722 6.53537 24.3589 6.52566Z" fill="#EBEBEB"/>
<path d="M15.1453 11.9613L13.9594 15.5695C13.9594 15.5695 12.9203 15.0023 11.6466 15.0023C9.77935 15.0023 9.68533 16.201 9.68533 16.503C9.68533 18.151 13.8854 18.7824 13.8854 22.6426C13.8854 25.6796 12.0022 27.6352 9.4628 27.6352C6.41564 27.6352 4.85742 25.6954 4.85742 25.6954L5.67328 22.9383C5.67328 22.9383 7.275 24.3448 8.62669 24.3448C9.50981 24.3448 9.86911 23.6336 9.86911 23.114C9.86911 20.9642 6.42339 20.8683 6.42339 17.336C6.42339 14.3629 8.50967 11.4858 12.721 11.4858C14.3437 11.4858 15.1453 11.9613 15.1453 11.9613Z" fill="#374144"/>
</g>
<defs>
<clipPath id="clip0_925_4335">
<rect width="27.4286" height="32" fill="white" transform="translate(0.655273 0.5)"/>
</clipPath>
</defs>
</svg>
