<?xml version="1.0" encoding="utf-8"?>
<svg viewBox="0 0 250 67" fill="none" xmlns="http://www.w3.org/2000/svg">
  <defs>
    <clipPath id="clip0_250_2320">
      <rect x="0.766602" y="0.299805" width="66.4" height="66.4" rx="33.2" fill="white"/>
    </clipPath>
  </defs>
  <g clip-path="url(#clip0_250_2320)" transform="matrix(1, 0, 0, 1, 1.7763568394002505e-15, 8.881784197001252e-16)">
    <rect x="0.766602" y="0.299805" width="66.4" height="66.4" rx="33.2" fill="#F8F8F8"/>
    <path d="M91.1444 37.0797C91.1444 33.4401 88.1833 30.479 84.5437 30.479C81.3918 30.479 78.7502 32.7004 78.0986 35.6594L29.0176 24.7562C29.078 23.551 28.6659 21.9576 27.8979 20.8458C34.1265 16.0843 41.8172 13.4729 49.6874 13.4729C55.4829 13.4729 61.014 14.8113 66.127 17.4507C71.0065 19.9695 75.3134 23.6417 78.5826 28.071C78.8116 28.381 79.1647 28.5452 79.5226 28.545C79.7634 28.545 80.0063 28.4708 80.2148 28.3169C80.7334 27.934 80.8436 27.2034 80.4607 26.6847C76.98 21.9688 72.3936 18.0585 67.1976 15.3763C61.827 12.604 55.772 11.1387 49.6873 11.1387C41.2116 11.1387 32.9307 13.9818 26.2576 19.1615C25.1757 18.3861 23.852 17.9278 22.4225 17.9278C18.7829 17.9278 15.8219 20.8889 15.8219 24.5285C15.8219 26.1769 16.4307 27.6847 17.4332 28.8427C13.5261 34.9709 11.4644 42.0436 11.4644 49.3616C11.4644 56.7174 13.5462 63.8204 17.4917 69.9699C16.4542 71.1363 15.822 72.6711 15.822 74.3514C15.822 77.991 18.7831 80.9521 22.4227 80.9521C23.899 80.9521 25.2636 80.4648 26.3644 79.6426C33.0172 84.7702 41.2594 87.5846 49.6874 87.5846C58.1211 87.5846 66.3684 84.7669 73.0248 79.6331C74.1277 80.4609 75.4971 80.9521 76.9789 80.9521C80.6185 80.9521 83.5796 77.991 83.5796 74.3514C83.5796 72.6635 82.9418 71.122 81.8957 69.9536C85.8341 63.8078 87.912 56.7104 87.912 49.3616C87.912 47.2403 87.7359 45.1166 87.3891 43.0346C89.6084 41.9699 91.1444 39.7008 91.1444 37.0797ZM76.8876 37.7815L56.3597 60.2413C55.2971 59.5099 54.0113 59.0804 52.6266 59.0804C51.342 59.0804 50.1429 59.4506 49.1276 60.0879L43.2503 49.6595C44.5605 48.4524 45.3833 46.7237 45.3833 44.806C45.3833 41.1664 42.4222 38.2053 38.7826 38.2053C37.3504 38.2053 36.0245 38.6652 34.9416 39.4431L26.7958 29.4668C27.5432 28.8041 28.1397 27.9753 28.5265 27.0383L76.8876 37.7815ZM48.3604 65.6811C48.3604 63.3286 50.2743 61.4147 52.6267 61.4147C54.9791 61.4147 56.893 63.3286 56.893 65.6811C56.893 68.0335 54.9791 69.9474 52.6267 69.9474C50.2741 69.9474 48.3604 68.0335 48.3604 65.6811ZM34.5163 44.8061C34.5163 42.4537 36.4302 40.5398 38.7826 40.5398C41.135 40.5398 43.0489 42.4537 43.0489 44.8061C43.0489 47.1586 41.135 49.0724 38.7826 49.0724C36.4302 49.0724 34.5163 47.1586 34.5163 44.8061ZM22.4227 20.2622C24.7751 20.2622 26.689 22.1761 26.689 24.5285C26.689 26.8809 24.7751 28.7948 22.4227 28.7948C20.0703 28.7948 18.1564 26.8809 18.1564 24.5285C18.1564 22.1761 20.0703 20.2622 22.4227 20.2622ZM19.2604 30.3205C20.7928 31.1784 22.9124 31.4039 24.782 30.6916L33.304 41.1286C32.5957 42.1801 32.1818 43.4457 32.1818 44.806C32.1818 46.7651 33.0407 48.5268 34.4007 49.7368L26.3371 69.0407C25.2411 68.2307 23.8871 67.7507 22.4227 67.7507C21.3078 67.7507 20.2572 68.0296 19.3352 68.5196C15.7103 62.7909 13.7987 56.1926 13.7987 49.3616C13.7987 42.579 15.6841 36.0214 19.2604 30.3205ZM18.1564 74.3514C18.1564 71.999 20.0703 70.0851 22.4227 70.0851C24.7751 70.0851 26.689 71.999 26.689 74.3514C26.689 76.7038 24.7751 78.6177 22.4227 78.6177C20.0703 78.6177 18.1564 76.7038 18.1564 74.3514ZM27.9659 77.9283C28.6338 76.8968 29.0235 75.6691 29.0235 74.3514C29.0235 73.509 28.8632 72.7038 28.5742 71.9624L37.6494 70.5134C38.2859 70.4117 38.7194 69.8134 38.618 69.1767C38.5162 68.5402 37.9175 68.1071 37.2813 68.2081L28.6384 69.588L36.4171 50.9664C37.1521 51.2496 37.9492 51.4065 38.7828 51.4065C39.6658 51.4065 40.5082 51.2309 41.2787 50.915L47.3608 61.7067C46.5239 62.813 46.0262 64.1898 46.0262 65.6809C46.0262 66.0612 46.0603 66.4335 46.1224 66.7964L42.668 67.3479C42.0315 67.4496 41.5979 68.0481 41.6993 68.6846C41.791 69.2587 42.287 69.6679 42.8505 69.6679C42.9117 69.6679 42.9738 69.663 43.036 69.6531L46.9419 69.0293C48.0916 70.9737 50.2088 72.2813 52.6267 72.2813C54.5064 72.2813 56.2038 71.4902 57.407 70.225L70.4361 73.4922C70.2172 74.7352 70.619 76.7575 71.4278 77.9149C65.2085 82.6518 57.5343 85.2498 49.6876 85.2498C41.848 85.2503 34.1808 82.6568 27.9659 77.9283ZM76.9791 78.6177C74.6266 78.6177 72.7128 76.7038 72.7128 74.3514C72.7128 71.999 74.6266 70.0851 76.9791 70.0851C79.3315 70.0851 81.2454 71.999 81.2454 74.3514C81.2454 76.7038 79.3315 78.6177 76.9791 78.6177ZM85.5777 49.3616C85.5777 56.1882 83.6685 62.7835 80.0478 68.5102C79.1303 68.0262 78.0865 67.7507 76.9791 67.7507C74.4542 67.7507 72.2569 69.1764 71.1472 71.2644L58.7448 68.1544C59.055 67.39 59.2274 66.5555 59.2274 65.6811C59.2274 64.2683 58.7797 62.9589 58.0208 61.884L78.4273 39.5569C79.4381 42.083 82.1756 43.9314 85.1234 43.6534C85.4236 45.5337 85.5777 47.4483 85.5777 49.3616ZM84.5437 41.346C82.1913 41.346 80.2774 39.4321 80.2774 37.0797C80.2774 34.7272 82.1913 32.8133 84.5437 32.8133C86.8961 32.8133 88.81 34.7272 88.81 37.0797C88.81 39.4321 86.8961 41.346 84.5437 41.346Z" fill="#151515"/>
  </g>
  <path d="M89.9131 45.8183C88.4904 45.8183 87.2171 45.4528 86.0932 44.7219C84.9692 43.9909 84.0811 42.9298 83.4287 41.5386C82.7763 40.1474 82.4501 38.4576 82.4501 36.469C82.4501 34.4569 82.7803 32.7592 83.4405 31.3759C84.1086 29.9847 85.0085 28.9354 86.1403 28.228C87.2722 27.5127 88.5337 27.1551 89.9249 27.1551C90.9859 27.1551 91.8584 27.3359 92.5422 27.6974C93.226 28.0511 93.7683 28.4795 94.1692 28.9825C94.57 29.4777 94.8805 29.9454 95.1006 30.3855H95.2774V21.3545H99.5571V45.5H95.3599V42.6469H95.1006C94.8805 43.087 94.5622 43.5547 94.1456 44.0499C93.729 44.5372 93.1788 44.9537 92.495 45.2996C91.8112 45.6454 90.9506 45.8183 89.9131 45.8183ZM91.1038 42.3168C92.0077 42.3168 92.778 42.0731 93.4146 41.5858C94.0513 41.0906 94.5347 40.4029 94.8648 39.5226C95.1949 38.6423 95.3599 37.6166 95.3599 36.4455C95.3599 35.2743 95.1949 34.2565 94.8648 33.3919C94.5425 32.5273 94.0631 31.8553 93.4264 31.3759C92.7976 30.8964 92.0234 30.6567 91.1038 30.6567C90.1528 30.6567 89.3589 30.9043 88.7223 31.3994C88.0857 31.8946 87.6062 32.5784 87.2839 33.4509C86.9617 34.3233 86.8006 35.3215 86.8006 36.4455C86.8006 37.5773 86.9617 38.5873 87.2839 39.4754C87.6141 40.3557 88.0974 41.0513 88.7341 41.5622C89.3786 42.0652 90.1685 42.3168 91.1038 42.3168ZM106.758 52.2909C106.176 52.2909 105.638 52.2438 105.143 52.1494C104.655 52.063 104.266 51.9608 103.975 51.8429L104.966 48.5182C105.587 48.699 106.141 48.7854 106.628 48.7776C107.115 48.7697 107.544 48.6164 107.913 48.3178C108.29 48.0269 108.609 47.5396 108.868 46.8558L109.234 45.8773L102.667 27.3909H107.194L111.368 41.067H111.556L115.742 27.3909H120.281L113.03 47.6929C112.692 48.6518 112.244 49.4732 111.686 50.157C111.128 50.8486 110.444 51.3752 109.634 51.7368C108.833 52.1062 107.874 52.2909 106.758 52.2909ZM127.502 34.8892V45.5H123.234V27.3909H127.313V30.468H127.525C127.942 29.4541 128.606 28.6485 129.518 28.0511C130.437 27.4538 131.573 27.1551 132.925 27.1551C134.175 27.1551 135.263 27.4223 136.191 27.9568C137.126 28.4913 137.849 29.2655 138.36 30.2794C138.879 31.2933 139.134 32.5234 139.127 33.9696V45.5H134.859V34.6298C134.859 33.4194 134.544 32.4723 133.915 31.7885C133.295 31.1047 132.434 30.7628 131.333 30.7628C130.587 30.7628 129.923 30.9278 129.341 31.258C128.767 31.5802 128.315 32.0479 127.985 32.6609C127.663 33.274 127.502 34.0168 127.502 34.8892ZM148.676 45.8655C147.529 45.8655 146.495 45.6611 145.576 45.2524C144.664 44.8358 143.941 44.2228 143.406 43.4132C142.88 42.6036 142.616 41.6054 142.616 40.4186C142.616 39.3968 142.805 38.5519 143.182 37.8838C143.559 37.2157 144.074 36.6812 144.727 36.2804C145.379 35.8795 146.114 35.5769 146.931 35.3726C147.757 35.1604 148.609 35.0071 149.49 34.9128C150.551 34.8027 151.411 34.7045 152.072 34.618C152.732 34.5237 153.211 34.3822 153.51 34.1936C153.817 33.9971 153.97 33.6945 153.97 33.2858V33.2151C153.97 32.3269 153.707 31.6392 153.18 31.1518C152.653 30.6645 151.895 30.4209 150.905 30.4209C149.859 30.4209 149.03 30.6488 148.417 31.1047C147.812 31.5606 147.403 32.099 147.191 32.7199L143.206 32.154C143.52 31.0536 144.039 30.134 144.762 29.3952C145.485 28.6485 146.369 28.0904 147.415 27.721C148.46 27.3437 149.615 27.1551 150.881 27.1551C151.753 27.1551 152.622 27.2573 153.486 27.4616C154.351 27.666 155.141 28.004 155.856 28.4756C156.571 28.9393 157.145 29.572 157.578 30.3737C158.018 31.1754 158.238 32.1776 158.238 33.3801V45.5H154.135V43.0124H153.993C153.734 43.5154 153.369 43.987 152.897 44.4271C152.433 44.8594 151.848 45.2092 151.14 45.4764C150.441 45.7358 149.619 45.8655 148.676 45.8655ZM149.784 42.7294C150.641 42.7294 151.384 42.5604 152.013 42.2224C152.642 41.8766 153.125 41.4207 153.463 40.8548C153.809 40.2889 153.982 39.6719 153.982 39.0038V36.8699C153.848 36.9799 153.62 37.0821 153.298 37.1764C152.983 37.2707 152.63 37.3533 152.237 37.424C151.844 37.4947 151.455 37.5576 151.07 37.6126C150.684 37.6677 150.35 37.7148 150.067 37.7541C149.431 37.8406 148.861 37.9821 148.358 38.1786C147.855 38.375 147.458 38.6501 147.167 39.0038C146.876 39.3497 146.731 39.7977 146.731 40.3479C146.731 41.1339 147.018 41.7273 147.592 42.1281C148.165 42.529 148.896 42.7294 149.784 42.7294ZM162.529 45.5V27.3909H166.608V30.468H166.821C167.198 29.4305 167.823 28.621 168.695 28.0393C169.568 27.4499 170.609 27.1551 171.82 27.1551C173.046 27.1551 174.079 27.4538 174.92 28.0511C175.769 28.6406 176.366 29.4463 176.712 30.468H176.901C177.302 29.462 177.978 28.6603 178.929 28.0629C179.888 27.4577 181.023 27.1551 182.336 27.1551C184.002 27.1551 185.362 27.6817 186.415 28.7349C187.469 29.7882 187.995 31.3248 187.995 33.3447V45.5H183.715V34.005C183.715 32.881 183.417 32.0597 182.819 31.5409C182.222 31.0143 181.491 30.751 180.627 30.751C179.597 30.751 178.791 31.0732 178.21 31.7178C177.636 32.3544 177.349 33.1836 177.349 34.2054V45.5H173.164V33.8281C173.164 32.8928 172.881 32.1461 172.315 31.5881C171.757 31.03 171.026 30.751 170.122 30.751C169.509 30.751 168.951 30.9082 168.448 31.2226C167.945 31.5291 167.544 31.9653 167.245 32.5312C166.946 33.0893 166.797 33.7417 166.797 34.4884V45.5H162.529ZM197.536 45.8655C196.388 45.8655 195.355 45.6611 194.435 45.2524C193.524 44.8358 192.8 44.2228 192.266 43.4132C191.739 42.6036 191.476 41.6054 191.476 40.4186C191.476 39.3968 191.665 38.5519 192.042 37.8838C192.419 37.2157 192.934 36.6812 193.586 36.2804C194.239 35.8795 194.974 35.5769 195.791 35.3726C196.616 35.1604 197.469 35.0071 198.35 34.9128C199.411 34.8027 200.271 34.7045 200.931 34.618C201.592 34.5237 202.071 34.3822 202.37 34.1936C202.676 33.9971 202.83 33.6945 202.83 33.2858V33.2151C202.83 32.3269 202.566 31.6392 202.04 31.1518C201.513 30.6645 200.755 30.4209 199.764 30.4209C198.719 30.4209 197.89 30.6488 197.277 31.1047C196.671 31.5606 196.263 32.099 196.051 32.7199L192.066 32.154C192.38 31.0536 192.899 30.134 193.622 29.3952C194.345 28.6485 195.229 28.0904 196.275 27.721C197.32 27.3437 198.475 27.1551 199.741 27.1551C200.613 27.1551 201.482 27.2573 202.346 27.4616C203.211 27.666 204.001 28.004 204.716 28.4756C205.431 28.9393 206.005 29.572 206.437 30.3737C206.877 31.1754 207.098 32.1776 207.098 33.3801V45.5H202.995V43.0124H202.853C202.594 43.5154 202.228 43.987 201.757 44.4271C201.293 44.8594 200.707 45.2092 200 45.4764C199.301 45.7358 198.479 45.8655 197.536 45.8655ZM198.644 42.7294C199.501 42.7294 200.244 42.5604 200.873 42.2224C201.501 41.8766 201.985 41.4207 202.323 40.8548C202.668 40.2889 202.841 39.6719 202.841 39.0038V36.8699C202.708 36.9799 202.48 37.0821 202.158 37.1764C201.843 37.2707 201.49 37.3533 201.097 37.424C200.704 37.4947 200.314 37.5576 199.929 37.6126C199.544 37.6677 199.21 37.7148 198.927 37.7541C198.291 37.8406 197.721 37.9821 197.218 38.1786C196.715 38.375 196.318 38.6501 196.027 39.0038C195.736 39.3497 195.591 39.7977 195.591 40.3479C195.591 41.1339 195.878 41.7273 196.451 42.1281C197.025 42.529 197.756 42.7294 198.644 42.7294ZM220.432 27.3909V30.692H210.021V27.3909H220.432ZM212.592 23.0523H216.859V40.0531C216.859 40.6269 216.946 41.067 217.119 41.3736C217.3 41.6723 217.535 41.8766 217.826 41.9866C218.117 42.0967 218.439 42.1517 218.793 42.1517C219.06 42.1517 219.304 42.1321 219.524 42.0928C219.752 42.0535 219.925 42.0181 220.043 41.9866L220.762 45.3232C220.534 45.4018 220.208 45.4882 219.783 45.5825C219.367 45.6768 218.856 45.7319 218.251 45.7476C217.182 45.779 216.219 45.6179 215.362 45.2642C214.505 44.9027 213.826 44.3446 213.323 43.5901C212.827 42.8355 212.584 41.8923 212.592 40.7605V23.0523ZM224.001 45.5V27.3909H228.269V45.5H224.001ZM226.147 24.8207C225.471 24.8207 224.889 24.5967 224.402 24.1487C223.915 23.6928 223.671 23.1466 223.671 22.5099C223.671 21.8654 223.915 21.3192 224.402 20.8712C224.889 20.4153 225.471 20.1874 226.147 20.1874C226.831 20.1874 227.412 20.4153 227.892 20.8712C228.379 21.3192 228.623 21.8654 228.623 22.5099C228.623 23.1466 228.379 23.6928 227.892 24.1487C227.412 24.5967 226.831 24.8207 226.147 24.8207ZM240.557 45.8537C238.749 45.8537 237.197 45.4568 235.9 44.6629C234.611 43.8691 233.617 42.7726 232.917 41.3736C232.225 39.9667 231.88 38.3475 231.88 36.5162C231.88 34.677 232.233 33.0539 232.941 31.647C233.648 30.2322 234.646 29.1319 235.935 28.3459C237.232 27.552 238.765 27.1551 240.533 27.1551C242.003 27.1551 243.304 27.4263 244.436 27.9686C245.575 28.5031 246.483 29.2616 247.159 30.244C247.835 31.2187 248.22 32.3583 248.315 33.6631H244.235C244.07 32.7906 243.677 32.0636 243.056 31.482C242.443 30.8925 241.622 30.5977 240.592 30.5977C239.72 30.5977 238.953 30.8335 238.293 31.3051C237.633 31.7688 237.118 32.4369 236.749 33.3094C236.387 34.1818 236.206 35.2272 236.206 36.4455C236.206 37.6795 236.387 38.7405 236.749 39.6287C237.11 40.509 237.617 41.1889 238.27 41.6683C238.93 42.1399 239.704 42.3757 240.592 42.3757C241.221 42.3757 241.783 42.2578 242.278 42.022C242.781 41.7784 243.202 41.4286 243.54 40.9727C243.878 40.5169 244.11 39.9627 244.235 39.3104H248.315C248.212 40.5915 247.835 41.7273 247.183 42.7176C246.53 43.7001 245.642 44.4704 244.518 45.0284C243.394 45.5786 242.074 45.8537 240.557 45.8537Z" fill="white" transform="matrix(1, 0, 0, 1, 1.7763568394002505e-15, 8.881784197001252e-16)"/>
</svg>