<?xml version="1.0" encoding="utf-8"?>
<svg viewBox="0 0 262 82" fill="none" xmlns="http://www.w3.org/2000/svg">
  <defs>
    <filter id="filter0_d_576_7372" x="0" y="-0.0100002" width="265.776" height="81.8838" filterUnits="userSpaceOnUse" color-interpolation-filters="sRGB">
      <feFlood flood-opacity="0" result="BackgroundImageFix"/>
      <feColorMatrix in="SourceAlpha" type="matrix" values="0 0 0 0 0 0 0 0 0 0 0 0 0 0 0 0 0 0 127 0" result="hardAlpha"/>
      <feOffset dy="11.99"/>
      <feGaussianBlur stdDeviation="14"/>
      <feComposite in2="hardAlpha" operator="out"/>
      <feColorMatrix type="matrix" values="0 0 0 0 0 0 0 0 0 0 0 0 0 0 0 0 0 0 0.15 0"/>
      <feBlend mode="normal" in2="BackgroundImageFix" result="effect1_dropShadow_576_7372"/>
      <feBlend mode="normal" in="SourceGraphic" in2="effect1_dropShadow_576_7372" result="shape"/>
    </filter>
    <clipPath id="clip0_576_7372">
      <path d="M28 21.1768C28 18.3177 30.3177 16 33.1767 16L228.599 16C231.458 16 233.776 18.3177 233.776 21.1767L233.776 36.707C233.776 39.566 231.458 41.8837 228.599 41.8837L33.1767 41.8837C30.3177 41.8837 28 39.566 28 36.707L28 21.1768Z" fill="white"/>
    </clipPath>
    <filter id="filter1_d_576_7372" x="94.0034" y="16" width="73.7685" height="31.0605" filterUnits="userSpaceOnUse" color-interpolation-filters="sRGB">
      <feFlood flood-opacity="0" result="BackgroundImageFix"/>
      <feColorMatrix in="SourceAlpha" type="matrix" values="0 0 0 0 0 0 0 0 0 0 0 0 0 0 0 0 0 0 127 0" result="hardAlpha"/>
      <feOffset dy="2.58837"/>
      <feGaussianBlur stdDeviation="1.29419"/>
      <feColorMatrix type="matrix" values="0 0 0 0 0 0 0 0 0 0 0 0 0 0 0 0 0 0 0.04 0"/>
      <feBlend mode="normal" in2="BackgroundImageFix" result="effect1_dropShadow_576_7372"/>
      <feBlend mode="normal" in="SourceGraphic" in2="effect1_dropShadow_576_7372" result="shape"/>
    </filter>
    <filter id="filter2_d_576_7372" x="162.595" y="16" width="73.7685" height="31.0605" filterUnits="userSpaceOnUse" color-interpolation-filters="sRGB">
      <feFlood flood-opacity="0" result="BackgroundImageFix"/>
      <feColorMatrix in="SourceAlpha" type="matrix" values="0 0 0 0 0 0 0 0 0 0 0 0 0 0 0 0 0 0 127 0" result="hardAlpha"/>
      <feOffset dy="2.58837"/>
      <feGaussianBlur stdDeviation="1.29419"/>
      <feColorMatrix type="matrix" values="0 0 0 0 0 0 0 0 0 0 0 0 0 0 0 0 0 0 0.04 0"/>
      <feBlend mode="normal" in2="BackgroundImageFix" result="effect1_dropShadow_576_7372"/>
      <feBlend mode="normal" in="SourceGraphic" in2="effect1_dropShadow_576_7372" result="shape"/>
    </filter>
  </defs>
  <g filter="url(#filter0_d_576_7372)">
    <g clip-path="url(#clip0_576_7372)">
      <path d="M28 21.1768C28 18.3177 30.3177 16 33.1767 16L228.599 16C231.458 16 233.776 18.3177 233.776 21.1767L233.776 36.707C233.776 39.566 231.458 41.8837 228.599 41.8837L33.1767 41.8837C30.3177 41.8837 28 39.566 28 36.707L28 21.1768Z" fill="white"/>
      <path d="M48.6354 27.5342H47.5274C47.4848 27.2975 47.4055 27.0891 47.2895 26.9092C47.1735 26.7293 47.0315 26.5766 46.8634 26.4511C46.6953 26.3257 46.5071 26.231 46.2987 26.167C46.0928 26.1031 45.8738 26.0712 45.6418 26.0712C45.2227 26.0712 44.8475 26.1765 44.5161 26.3872C44.187 26.5979 43.9266 26.9069 43.7348 27.3141C43.5454 27.7213 43.4507 28.2184 43.4507 28.8055C43.4507 29.3974 43.5454 29.8969 43.7348 30.3041C43.9266 30.7113 44.1882 31.0191 44.5196 31.2274C44.8511 31.4357 45.2239 31.5399 45.6382 31.5399C45.8679 31.5399 46.0857 31.5091 46.2916 31.4476C46.5 31.3837 46.6882 31.2901 46.8563 31.167C47.0244 31.0439 47.1664 30.8936 47.2824 30.716C47.4008 30.5361 47.4825 30.3302 47.5274 30.0981L48.6354 30.1017C48.5762 30.4592 48.4614 30.7882 48.2909 31.0889C48.1228 31.3872 47.9062 31.6453 47.6411 31.8631C47.3783 32.0785 47.0776 32.2454 46.7391 32.3638C46.4005 32.4821 46.0312 32.5413 45.6311 32.5413C45.0014 32.5413 44.4403 32.3922 43.9479 32.0939C43.4555 31.7932 43.0672 31.3635 42.7831 30.8048C42.5014 30.2461 42.3605 29.5797 42.3605 28.8055C42.3605 28.029 42.5026 27.3626 42.7867 26.8062C43.0708 26.2475 43.459 25.819 43.9514 25.5207C44.4439 25.2201 45.0038 25.0697 45.6311 25.0697C46.017 25.0697 46.3769 25.1254 46.7107 25.2366C47.0468 25.3455 47.3487 25.5065 47.6162 25.7196C47.8837 25.9303 48.1051 26.1883 48.2803 26.4937C48.4555 26.7968 48.5738 27.1436 48.6354 27.5342ZM52.4608 32.552C51.9494 32.552 51.5032 32.4348 51.122 32.2004C50.7408 31.966 50.4449 31.6382 50.2342 31.2168C50.0235 30.7954 49.9182 30.3029 49.9182 29.7395C49.9182 29.1737 50.0235 28.6789 50.2342 28.2551C50.4449 27.8313 50.7408 27.5023 51.122 27.2679C51.5032 27.0335 51.9494 26.9163 52.4608 26.9163C52.9721 26.9163 53.4184 27.0335 53.7996 27.2679C54.1807 27.5023 54.4766 27.8313 54.6873 28.2551C54.898 28.6789 55.0034 29.1737 55.0034 29.7395C55.0034 30.3029 54.898 30.7954 54.6873 31.2168C54.4766 31.6382 54.1807 31.966 53.7996 32.2004C53.4184 32.4348 52.9721 32.552 52.4608 32.552ZM52.4643 31.6606C52.7958 31.6606 53.0704 31.573 53.2882 31.3979C53.506 31.2227 53.667 30.9895 53.7711 30.6983C53.8777 30.4071 53.9309 30.0863 53.9309 29.7359C53.9309 29.3879 53.8777 29.0683 53.7711 28.7771C53.667 28.4836 53.506 28.248 53.2882 28.0704C53.0704 27.8929 52.7958 27.8041 52.4643 27.8041C52.1305 27.8041 51.8535 27.8929 51.6334 28.0704C51.4156 28.248 51.2534 28.4836 51.1469 28.7771C51.0427 29.0683 50.9906 29.3879 50.9906 29.7359C50.9906 30.0863 51.0427 30.4071 51.1469 30.6983C51.2534 30.9895 51.4156 31.2227 51.6334 31.3979C51.8535 31.573 52.1305 31.6606 52.4643 31.6606ZM57.5504 29.2033V32.4419H56.4886V26.9873H57.5078V27.8751H57.5752C57.7007 27.5863 57.8972 27.3543 58.1647 27.1791C58.4346 27.0039 58.7743 26.9163 59.1839 26.9163C59.5556 26.9163 59.8811 26.9945 60.1605 27.1507C60.4398 27.3046 60.6564 27.5342 60.8103 27.8396C60.9642 28.145 61.0411 28.5226 61.0411 28.9724V32.4419H59.9794V29.1003C59.9794 28.7049 59.8764 28.396 59.6704 28.1734C59.4644 27.9485 59.1815 27.8361 58.8217 27.8361C58.5755 27.8361 58.3565 27.8893 58.1647 27.9959C57.9753 28.1024 57.825 28.2587 57.7137 28.4646C57.6048 28.6682 57.5504 28.9144 57.5504 29.2033ZM65.3113 26.9873V27.8396H62.3319V26.9873H65.3113ZM63.1309 25.6805H64.1927V30.8403C64.1927 31.0463 64.2235 31.2014 64.285 31.3055C64.3466 31.4073 64.4259 31.4772 64.523 31.515C64.6224 31.5506 64.7301 31.5683 64.8461 31.5683C64.9313 31.5683 65.0059 31.5624 65.0698 31.5506C65.1338 31.5387 65.1835 31.5293 65.219 31.5222L65.4107 32.3993C65.3492 32.423 65.2616 32.4466 65.148 32.4703C65.0343 32.4963 64.8923 32.5105 64.7218 32.5129C64.4425 32.5177 64.182 32.4679 63.9406 32.3638C63.6991 32.2596 63.5038 32.0986 63.3546 31.8808C63.2055 31.663 63.1309 31.3896 63.1309 31.0605V25.6805ZM69.0781 32.552C68.5407 32.552 68.0779 32.4372 67.6896 32.2075C67.3037 31.9755 67.0054 31.65 66.7947 31.231C66.5864 30.8096 66.4822 30.3159 66.4822 29.7501C66.4822 29.1914 66.5864 28.699 66.7947 28.2729C67.0054 27.8467 67.299 27.5141 67.6754 27.275C68.0542 27.0359 68.4969 26.9163 69.0035 26.9163C69.3113 26.9163 69.6096 26.9672 69.8984 27.069C70.1872 27.1708 70.4465 27.3306 70.6761 27.5484C70.9058 27.7662 71.0869 28.0491 71.2194 28.3972C71.352 28.7428 71.4183 29.163 71.4183 29.6578V30.0342H67.0824V29.2388H70.3778C70.3778 28.9594 70.321 28.712 70.2074 28.4966C70.0937 28.2788 69.9339 28.1071 69.728 27.9817C69.5244 27.8562 69.2853 27.7935 69.0106 27.7935C68.7123 27.7935 68.4519 27.8668 68.2294 28.0136C68.0092 28.158 67.8388 28.3474 67.718 28.5818C67.5997 28.8138 67.5405 29.0659 67.5405 29.3382V29.9597C67.5405 30.3242 67.6044 30.6344 67.7322 30.89C67.8624 31.1457 68.0435 31.341 68.2756 31.476C68.5076 31.6086 68.7786 31.6748 69.0888 31.6748C69.29 31.6748 69.4735 31.6464 69.6392 31.5896C69.8049 31.5304 69.9481 31.4428 70.0689 31.3268C70.1896 31.2108 70.2819 31.0676 70.3459 30.8972L71.3508 31.0783C71.2703 31.3742 71.1259 31.6334 70.9176 31.856C70.7116 32.0761 70.4524 32.2478 70.1399 32.3709C69.8298 32.4916 69.4758 32.552 69.0781 32.552ZM73.9582 29.2033V32.4419H72.8964V26.9873H73.9156V27.8751H73.983C74.1085 27.5863 74.305 27.3543 74.5725 27.1791C74.8424 27.0039 75.1821 26.9163 75.5917 26.9163C75.9634 26.9163 76.2889 26.9945 76.5683 27.1507C76.8476 27.3046 77.0642 27.5342 77.2181 27.8396C77.372 28.145 77.449 28.5226 77.449 28.9724V32.4419H76.3872V29.1003C76.3872 28.7049 76.2842 28.396 76.0782 28.1734C75.8722 27.9485 75.5893 27.8361 75.2295 27.8361C74.9833 27.8361 74.7643 27.8893 74.5725 27.9959C74.3831 28.1024 74.2328 28.2587 74.1215 28.4646C74.0126 28.6682 73.9582 28.9144 73.9582 29.2033ZM81.7191 26.9873V27.8396H78.7397V26.9873H81.7191ZM79.5387 25.6805H80.6005V30.8403C80.6005 31.0463 80.6313 31.2014 80.6928 31.3055C80.7544 31.4073 80.8337 31.4772 80.9308 31.515C81.0302 31.5506 81.1379 31.5683 81.2539 31.5683C81.3392 31.5683 81.4137 31.5624 81.4776 31.5506C81.5416 31.5387 81.5913 31.5293 81.6268 31.5222L81.8186 32.3993C81.757 32.423 81.6694 32.4466 81.5558 32.4703C81.4421 32.4963 81.3001 32.5105 81.1296 32.5129C80.8503 32.5177 80.5899 32.4679 80.3484 32.3638C80.1069 32.2596 79.9116 32.0986 79.7624 31.8808C79.6133 31.663 79.5387 31.3896 79.5387 31.0605V25.6805Z" fill="#374144"/>
      <g filter="url(#filter1_d_576_7372)">
        <rect width="68.5919" height="25.8837" transform="translate(96.5918 16)" fill="#00070B"/>
        <path d="M122.653 27.0797C122.615 26.7435 122.459 26.4831 122.185 26.2984C121.91 26.1114 121.564 26.0179 121.148 26.0179C120.849 26.0179 120.591 26.0652 120.373 26.1599C120.156 26.2523 119.986 26.3801 119.866 26.5435C119.747 26.7044 119.688 26.8879 119.688 27.0939C119.688 27.2667 119.728 27.4159 119.809 27.5413C119.892 27.6668 119.999 27.7722 120.132 27.8574C120.267 27.9402 120.411 28.0101 120.565 28.0669C120.719 28.1213 120.867 28.1663 121.009 28.2018L121.719 28.3865C121.951 28.4433 122.189 28.5203 122.433 28.6173C122.677 28.7144 122.903 28.8422 123.111 29.0008C123.32 29.1595 123.488 29.356 123.616 29.5903C123.746 29.8247 123.811 30.1052 123.811 30.432C123.811 30.8439 123.704 31.2097 123.491 31.5293C123.281 31.8489 122.974 32.101 122.572 32.2856C122.172 32.4703 121.687 32.5626 121.119 32.5626C120.575 32.5626 120.104 32.4762 119.706 32.3034C119.308 32.1306 118.997 31.8855 118.772 31.5683C118.547 31.2487 118.423 30.8699 118.399 30.432H119.5C119.521 30.6947 119.606 30.9137 119.756 31.0889C119.907 31.2617 120.1 31.3908 120.334 31.476C120.571 31.5588 120.83 31.6003 121.112 31.6003C121.422 31.6003 121.698 31.5517 121.94 31.4547C122.183 31.3552 122.375 31.2179 122.515 31.0427C122.655 30.8652 122.724 30.658 122.724 30.4213C122.724 30.2059 122.663 30.0295 122.54 29.8922C122.419 29.7549 122.254 29.6412 122.046 29.5513C121.84 29.4613 121.607 29.382 121.347 29.3133L120.487 29.079C119.905 28.9204 119.443 28.6872 119.102 28.3794C118.764 28.0716 118.594 27.6644 118.594 27.1578C118.594 26.7388 118.708 26.373 118.935 26.0605C119.163 25.748 119.47 25.5053 119.859 25.3325C120.247 25.1573 120.685 25.0697 121.172 25.0697C121.665 25.0697 122.099 25.1561 122.476 25.329C122.855 25.5018 123.153 25.7397 123.371 26.0427C123.588 26.3434 123.702 26.6891 123.712 27.0797H122.653ZM127.883 26.9873V27.8396H124.904V26.9873H127.883ZM125.703 25.6805H126.765V30.8403C126.765 31.0463 126.795 31.2014 126.857 31.3055C126.918 31.4073 126.998 31.4772 127.095 31.515C127.194 31.5506 127.302 31.5683 127.418 31.5683C127.503 31.5683 127.578 31.5624 127.642 31.5506C127.706 31.5387 127.755 31.5293 127.791 31.5222L127.983 32.3993C127.921 32.423 127.833 32.4466 127.72 32.4703C127.606 32.4963 127.464 32.5105 127.294 32.5129C127.014 32.5177 126.754 32.4679 126.512 32.3638C126.271 32.2596 126.076 32.0986 125.927 31.8808C125.777 31.663 125.703 31.3896 125.703 31.0605V25.6805ZM130.029 34.4873C129.87 34.4873 129.726 34.4743 129.596 34.4483C129.465 34.4246 129.368 34.3986 129.304 34.3702L129.56 33.5001C129.754 33.5522 129.927 33.5747 130.079 33.5676C130.23 33.5605 130.364 33.5037 130.48 33.3972C130.598 33.2906 130.702 33.1166 130.792 32.8751L130.924 32.5129L128.928 26.9873H130.064L131.446 31.2203H131.503L132.884 26.9873H134.024L131.776 33.1699C131.672 33.454 131.539 33.6943 131.378 33.8908C131.217 34.0896 131.026 34.2388 130.803 34.3382C130.58 34.4376 130.322 34.4873 130.029 34.4873ZM136.384 25.1692V32.4419H135.322V25.1692H136.384ZM140.463 32.552C139.925 32.552 139.463 32.4372 139.074 32.2075C138.688 31.9755 138.39 31.65 138.179 31.231C137.971 30.8096 137.867 30.3159 137.867 29.7501C137.867 29.1914 137.971 28.699 138.179 28.2729C138.39 27.8467 138.684 27.5141 139.06 27.275C139.439 27.0359 139.882 26.9163 140.388 26.9163C140.696 26.9163 140.994 26.9672 141.283 27.069C141.572 27.1708 141.831 27.3306 142.061 27.5484C142.291 27.7662 142.472 28.0491 142.604 28.3972C142.737 28.7428 142.803 29.163 142.803 29.6578V30.0342H138.467V29.2388H141.763C141.763 28.9594 141.706 28.712 141.592 28.4966C141.478 28.2788 141.319 28.1071 141.113 27.9817C140.909 27.8562 140.67 27.7935 140.395 27.7935C140.097 27.7935 139.837 27.8668 139.614 28.0136C139.394 28.158 139.224 28.3474 139.103 28.5818C138.984 28.8138 138.925 29.0659 138.925 29.3382V29.9597C138.925 30.3242 138.989 30.6344 139.117 30.89C139.247 31.1457 139.428 31.341 139.66 31.476C139.892 31.6086 140.163 31.6748 140.474 31.6748C140.675 31.6748 140.858 31.6464 141.024 31.5896C141.19 31.5304 141.333 31.4428 141.454 31.3268C141.574 31.2108 141.667 31.0676 141.731 30.8972L142.736 31.0783C142.655 31.3742 142.511 31.6334 142.302 31.856C142.096 32.0761 141.837 32.2478 141.525 32.3709C141.215 32.4916 140.861 32.552 140.463 32.552Z" fill="white"/>
      </g>
      <g filter="url(#filter2_d_576_7372)">
        <path d="M178.893 32.4419H177.728L180.345 25.1692H181.613L184.23 32.4419H183.065L181.009 26.4902H180.953L178.893 32.4419ZM179.088 29.5939H182.867V30.5172H179.088V29.5939ZM187.449 32.5484C187.009 32.5484 186.616 32.436 186.27 32.2111C185.927 31.9838 185.657 31.6606 185.461 31.2416C185.266 30.8202 185.169 30.3148 185.169 29.7253C185.169 29.1358 185.268 28.6315 185.464 28.2125C185.663 27.7935 185.935 27.4727 186.281 27.2501C186.627 27.0276 187.018 26.9163 187.456 26.9163C187.795 26.9163 188.067 26.9731 188.273 27.0868C188.481 27.198 188.642 27.3283 188.756 27.4774C188.872 27.6266 188.962 27.7579 189.026 27.8716H189.09V25.1692H190.152V32.4419H189.115V31.5932H189.026C188.962 31.7092 188.87 31.8418 188.749 31.9909C188.631 32.14 188.467 32.2703 188.259 32.3815C188.051 32.4928 187.781 32.5484 187.449 32.5484ZM187.684 31.6429C187.989 31.6429 188.247 31.5624 188.458 31.4014C188.671 31.2381 188.832 31.012 188.941 30.7231C189.052 30.4343 189.108 30.0981 189.108 29.7146C189.108 29.3358 189.053 29.0044 188.944 28.7203C188.835 28.4362 188.676 28.2149 188.465 28.0562C188.254 27.8976 187.994 27.8183 187.684 27.8183C187.364 27.8183 187.098 27.9012 186.885 28.0669C186.672 28.2326 186.511 28.4587 186.402 28.7452C186.295 29.0316 186.242 29.3548 186.242 29.7146C186.242 30.0792 186.296 30.4071 186.405 30.6983C186.514 30.9895 186.675 31.2203 186.888 31.3908C187.104 31.5588 187.369 31.6429 187.684 31.6429ZM196.633 26.9873L194.655 32.4419H193.519L191.537 26.9873H192.677L194.059 31.1848H194.116L195.493 26.9873H196.633ZM199.362 32.5626C199.017 32.5626 198.704 32.4987 198.425 32.3709C198.145 32.2407 197.924 32.0525 197.761 31.8062C197.6 31.56 197.519 31.2582 197.519 30.9007C197.519 30.5929 197.578 30.3396 197.697 30.1408C197.815 29.9419 197.975 29.7845 198.176 29.6685C198.377 29.5525 198.602 29.4649 198.851 29.4057C199.099 29.3465 199.353 29.3015 199.611 29.2707C199.938 29.2329 200.203 29.2021 200.406 29.1784C200.61 29.1524 200.758 29.1109 200.85 29.0541C200.943 28.9973 200.989 28.905 200.989 28.7771V28.7523C200.989 28.4421 200.901 28.2018 200.726 28.0314C200.553 27.8609 200.295 27.7757 199.952 27.7757C199.594 27.7757 199.313 27.855 199.107 28.0136C198.903 28.1699 198.762 28.3439 198.684 28.5356L197.686 28.3084C197.805 27.9769 197.977 27.7094 198.205 27.5058C198.434 27.2998 198.698 27.1507 198.997 27.0584C199.295 26.9637 199.608 26.9163 199.938 26.9163C200.155 26.9163 200.386 26.9424 200.63 26.9945C200.876 27.0442 201.106 27.1365 201.319 27.2714C201.534 27.4064 201.711 27.5993 201.848 27.8503C201.985 28.0989 202.054 28.422 202.054 28.8197V32.4419H201.017V31.6962H200.974C200.906 31.8335 200.803 31.9684 200.666 32.101C200.528 32.2336 200.352 32.3436 200.136 32.4312C199.921 32.5188 199.663 32.5626 199.362 32.5626ZM199.593 31.7104C199.887 31.7104 200.138 31.6524 200.346 31.5364C200.557 31.4204 200.716 31.2688 200.825 31.0818C200.937 30.8924 200.992 30.69 200.992 30.4746V29.7714C200.954 29.8093 200.881 29.8448 200.772 29.878C200.666 29.9088 200.544 29.936 200.406 29.9597C200.269 29.981 200.135 30.0011 200.005 30.02C199.875 30.0366 199.766 30.0508 199.678 30.0626C199.472 30.0887 199.284 30.1325 199.114 30.194C198.946 30.2556 198.811 30.3444 198.709 30.4604C198.609 30.574 198.56 30.7255 198.56 30.9149C198.56 31.1777 198.657 31.3766 198.851 31.5115C199.045 31.6441 199.292 31.7104 199.593 31.7104ZM204.83 29.2033V32.4419H203.768V26.9873H204.787V27.8751H204.855C204.98 27.5863 205.177 27.3543 205.444 27.1791C205.714 27.0039 206.054 26.9163 206.464 26.9163C206.835 26.9163 207.161 26.9945 207.44 27.1507C207.72 27.3046 207.936 27.5342 208.09 27.8396C208.244 28.145 208.321 28.5226 208.321 28.9724V32.4419H207.259V29.1003C207.259 28.7049 207.156 28.396 206.95 28.1734C206.744 27.9485 206.461 27.8361 206.101 27.8361C205.855 27.8361 205.636 27.8893 205.444 27.9959C205.255 28.1024 205.105 28.2587 204.993 28.4646C204.885 28.6682 204.83 28.9144 204.83 29.2033ZM212.342 32.552C211.814 32.552 211.36 32.4324 210.979 32.1933C210.6 31.9518 210.309 31.6192 210.105 31.1954C209.902 30.7717 209.8 30.2864 209.8 29.7395C209.8 29.1855 209.904 28.6966 210.112 28.2729C210.321 27.8467 210.614 27.5141 210.993 27.275C211.372 27.0359 211.818 26.9163 212.332 26.9163C212.746 26.9163 213.115 26.9933 213.44 27.1472C213.764 27.2987 214.026 27.5117 214.225 27.7864C214.426 28.061 214.545 28.3818 214.583 28.7487H213.55C213.493 28.493 213.363 28.2729 213.159 28.0882C212.958 27.9035 212.688 27.8112 212.35 27.8112C212.054 27.8112 211.794 27.8893 211.572 28.0456C211.352 28.1995 211.18 28.4196 211.057 28.7061C210.934 28.9902 210.872 29.3264 210.872 29.7146C210.872 30.1123 210.933 30.4556 211.053 30.7445C211.174 31.0333 211.345 31.257 211.565 31.4156C211.787 31.5742 212.049 31.6535 212.35 31.6535C212.551 31.6535 212.733 31.6168 212.896 31.5435C213.062 31.4677 213.201 31.36 213.312 31.2203C213.426 31.0806 213.505 30.9125 213.55 30.716H214.583C214.545 31.0688 214.43 31.3837 214.239 31.6606C214.047 31.9376 213.79 32.1554 213.468 32.3141C213.149 32.4727 212.773 32.552 212.342 32.552ZM218.37 32.552C217.832 32.552 217.369 32.4372 216.981 32.2075C216.595 31.9755 216.297 31.65 216.086 31.231C215.878 30.8096 215.774 30.3159 215.774 29.7501C215.774 29.1914 215.878 28.699 216.086 28.2729C216.297 27.8467 216.59 27.5141 216.967 27.275C217.346 27.0359 217.788 26.9163 218.295 26.9163C218.603 26.9163 218.901 26.9672 219.19 27.069C219.479 27.1708 219.738 27.3306 219.968 27.5484C220.197 27.7662 220.378 28.0491 220.511 28.3972C220.643 28.7428 220.71 29.163 220.71 29.6578V30.0342H216.374V29.2388H219.669C219.669 28.9594 219.612 28.712 219.499 28.4966C219.385 28.2788 219.225 28.1071 219.019 27.9817C218.816 27.8562 218.577 27.7935 218.302 27.7935C218.004 27.7935 217.743 27.8668 217.521 28.0136C217.301 28.158 217.13 28.3474 217.009 28.5818C216.891 28.8138 216.832 29.0659 216.832 29.3382V29.9597C216.832 30.3242 216.896 30.6344 217.024 30.89C217.154 31.1457 217.335 31.341 217.567 31.476C217.799 31.6086 218.07 31.6748 218.38 31.6748C218.581 31.6748 218.765 31.6464 218.931 31.5896C219.096 31.5304 219.24 31.4428 219.36 31.3268C219.481 31.2108 219.573 31.0676 219.637 30.8972L220.642 31.0783C220.562 31.3742 220.417 31.6334 220.209 31.856C220.003 32.0761 219.744 32.2478 219.431 32.3709C219.121 32.4916 218.767 32.552 218.37 32.552Z" fill="#374144"/>
      </g>
    </g>
  </g>
</svg>