<?xml version="1.0" encoding="utf-8"?>
<svg viewBox="0 0 398 189" fill="none" xmlns="http://www.w3.org/2000/svg">
  <defs>
    <clipPath id="clip0_389_3397">
      <path d="M0.666992 16C0.666992 7.16344 7.83044 0 16.667 0H382C390.837 0 398 7.16344 398 16V189H0.666992V16Z" fill="white"/>
    </clipPath>
  </defs>
  <g clip-path="url(#clip0_389_3397)" transform="matrix(1, 0, 0, 1, 1.7763568394002505e-15, 1.7763568394002505e-15)">
    <path d="M0.666992 16C0.666992 7.16344 7.83044 0 16.667 0H382C390.837 0 398 7.16344 398 16V189H0.666992V16Z" fill="#222037"/>
    <path d="M68.8742 54.863C72.2763 43.893 83.9272 37.7579 94.8972 41.16L183.501 68.6381C194.471 72.0401 200.606 83.691 197.204 94.6611C193.802 105.631 182.151 111.766 171.181 108.364L82.5773 80.886C71.6072 77.484 65.4722 65.8331 68.8742 54.863Z" fill="#8C78F7"/>
    <path d="M108.902 64.7631L106.164 63.914C106.225 63.4408 106.204 62.9984 106.102 62.5868C106.001 62.1703 105.832 61.7916 105.596 61.4508C105.359 61.1099 105.059 60.8164 104.697 60.5703C104.341 60.3208 103.934 60.1249 103.475 59.9826C102.66 59.7299 101.874 59.7109 101.117 59.9256C100.362 60.1354 99.6846 60.5779 99.0847 61.2532C98.4863 61.9236 98.0123 62.8224 97.6626 63.9498C97.307 65.0967 97.1854 66.1182 97.298 67.0145C97.417 67.9073 97.7268 68.6507 98.2274 69.2446C98.7343 69.8352 99.3929 70.2561 100.203 70.5073C100.652 70.6466 101.09 70.7181 101.517 70.7221C101.95 70.7227 102.359 70.6543 102.744 70.5169C103.134 70.381 103.489 70.1756 103.81 69.9005C104.135 69.627 104.408 69.2835 104.627 68.87L107.36 69.7337C107.037 70.4145 106.607 71.0142 106.072 71.5329C105.541 72.0532 104.929 72.4677 104.234 72.7765C103.54 73.0804 102.786 73.253 101.971 73.2944C101.157 73.3309 100.304 73.2107 99.4104 72.9337C98.0927 72.5251 97.0112 71.8553 96.1657 70.9244C95.3203 69.9935 94.7784 68.8598 94.5402 67.5234C94.302 66.187 94.4326 64.7135 94.9321 63.103C95.433 61.4876 96.1615 60.1995 97.1175 59.2388C98.0749 58.2732 99.1656 57.6458 100.389 57.3566C101.613 57.0674 102.879 57.1257 104.187 57.5313C105.022 57.7901 105.761 58.1479 106.406 58.6046C107.051 59.0613 107.583 59.6037 108.004 60.2316C108.426 60.8547 108.716 61.5492 108.874 62.3151C109.039 63.0777 109.048 63.8937 108.902 64.7631ZM116.824 72.9256L118.845 66.4103L121.495 67.2321L118.008 78.4765L115.438 77.6796L116.058 75.6811L115.941 75.6448C115.492 76.1956 114.915 76.5811 114.21 76.8012C113.51 77.0228 112.738 77.0027 111.894 76.7408C111.157 76.5123 110.556 76.1467 110.091 75.6442C109.633 75.1383 109.343 74.5213 109.221 73.7934C109.1 73.0606 109.179 72.2452 109.458 71.3472L111.678 64.1877L114.328 65.0095L112.235 71.7591C112.014 72.4716 112.034 73.0983 112.294 73.639C112.554 74.1798 113.001 74.5486 113.636 74.7454C114.026 74.8665 114.434 74.8886 114.859 74.8118C115.284 74.7349 115.672 74.545 116.023 74.2418C116.38 73.9353 116.647 73.4966 116.824 72.9256ZM132.185 73.8055L129.688 73.3198C129.695 73.0546 129.647 72.7881 129.543 72.5204C129.443 72.2542 129.272 72.0114 129.03 71.7918C128.788 71.5723 128.462 71.3989 128.052 71.2718C127.501 71.1008 127 71.0765 126.55 71.1991C126.105 71.3232 125.826 71.5764 125.713 71.9586C125.606 72.284 125.643 72.5871 125.824 72.8678C126.009 73.1499 126.367 73.4454 126.897 73.7543L128.688 74.759C129.681 75.3184 130.358 75.9271 130.721 76.5854C131.089 77.2451 131.151 77.9784 130.906 78.7851C130.682 79.4913 130.28 80.0516 129.702 80.4662C129.131 80.8774 128.437 81.1223 127.621 81.2009C126.805 81.2795 125.928 81.1735 124.991 80.8829C123.615 80.4561 122.596 79.8246 121.936 78.9884C121.276 78.1473 121.026 77.1845 121.186 76.0999L123.848 76.6524C123.807 77.1963 123.937 77.6566 124.238 78.0333C124.538 78.41 124.994 78.6929 125.604 78.8821C126.233 79.0774 126.778 79.1047 127.239 78.9641C127.705 78.825 127.997 78.5651 128.115 78.1844C128.215 77.8623 128.173 77.5578 127.989 77.2707C127.81 76.9852 127.479 76.7061 126.997 76.4334L125.204 75.436C124.195 74.877 123.514 74.2513 123.162 73.5589C122.811 72.8616 122.765 72.1038 123.024 71.2854C123.234 70.5909 123.609 70.0489 124.147 69.6594C124.691 69.2665 125.348 69.0369 126.118 68.9706C126.893 68.901 127.73 69.0054 128.628 69.2839C129.946 69.6925 130.896 70.2948 131.479 71.0906C132.066 71.888 132.301 72.7929 132.185 73.8055ZM141.149 73.3272L140.513 75.3769L134.049 73.3723L134.685 71.3226L141.149 73.3272ZM137.116 69.1235L139.766 69.9453L136.492 80.5016C136.382 80.8578 136.351 81.1478 136.399 81.3714C136.454 81.5917 136.561 81.764 136.72 81.8883C136.88 82.0126 137.069 82.1088 137.289 82.177C137.455 82.2284 137.61 82.2631 137.754 82.2811C137.903 82.3006 138.017 82.3119 138.097 82.3151L137.901 84.5253C137.744 84.5302 137.525 84.5211 137.243 84.4979C136.966 84.4763 136.638 84.4121 136.26 84.3053C135.59 84.119 135.023 83.8335 134.559 83.4489C134.097 83.0595 133.782 82.582 133.615 82.0167C133.453 81.4528 133.483 80.8202 133.706 80.119L137.116 69.1235ZM144.594 86.9621C143.496 86.6216 142.619 86.0849 141.964 85.352C141.308 84.6191 140.893 83.7494 140.718 82.743C140.548 81.7381 140.644 80.6549 141.004 79.4933C141.364 78.3318 141.899 77.3823 142.609 76.645C143.324 75.9091 144.16 75.4245 145.115 75.1911C146.07 74.9576 147.096 75.0112 148.194 75.3517C149.292 75.6923 150.169 76.229 150.825 76.9619C151.48 77.6947 151.892 78.5661 152.06 79.5759C152.233 80.5872 152.14 81.6736 151.78 82.8352C151.42 83.9967 150.883 84.9429 150.169 85.6739C149.46 86.4064 148.629 86.8894 147.674 87.1228C146.718 87.3562 145.692 87.3026 144.594 86.9621ZM145.267 84.8437C145.862 85.0283 146.411 85.0192 146.912 84.8163C147.415 84.6086 147.851 84.2568 148.219 83.761C148.591 83.2667 148.883 82.6779 149.095 81.9946C149.309 81.3065 149.402 80.6532 149.374 80.0348C149.353 79.413 149.194 78.8742 148.896 78.4182C148.599 77.9622 148.153 77.6419 147.557 77.4573C146.947 77.2681 146.388 77.2766 145.88 77.4828C145.377 77.6906 144.939 78.0441 144.565 78.5433C144.197 79.0391 143.906 79.6311 143.693 80.3192C143.481 81.0024 143.386 81.6525 143.409 82.2694C143.437 82.8878 143.599 83.425 143.896 83.881C144.2 84.3336 144.657 84.6545 145.267 84.8437ZM152.299 89.1109L155.786 77.8666L158.319 78.6521L157.727 80.5628L157.858 80.6036C158.292 80.0321 158.836 79.6497 159.49 79.4566C160.145 79.2585 160.849 79.2761 161.6 79.5091C162.361 79.7453 162.946 80.1297 163.353 80.6626C163.766 81.1921 163.982 81.8073 164 82.5084L164.117 82.5447C164.56 81.9972 165.134 81.6296 165.84 81.4418C166.552 81.2507 167.315 81.2815 168.13 81.5342C169.165 81.8551 169.908 82.4439 170.359 83.3007C170.81 84.1575 170.841 85.213 170.452 86.4672L168.111 94.0147L165.454 93.1906L167.668 86.0531C167.884 85.3552 167.857 84.7877 167.586 84.3505C167.316 83.9085 166.913 83.6043 166.376 83.4378C165.737 83.2395 165.175 83.2845 164.689 83.5727C164.21 83.8575 163.873 84.3171 163.676 84.9516L161.501 91.9647L158.902 91.1587L161.15 83.9114C161.33 83.3306 161.298 82.8125 161.054 82.357C160.815 81.9031 160.415 81.589 159.854 81.415C159.473 81.2969 159.096 81.2871 158.723 81.3854C158.352 81.4789 158.019 81.6726 157.725 81.9665C157.432 82.2554 157.213 82.6318 157.069 83.0954L154.949 89.9328L152.299 89.1109Z" fill="white"/>
    <path d="M180.77 132.563C178.185 121.217 185.288 109.924 196.634 107.339L285.977 86.9862C297.323 84.4014 308.616 91.5039 311.201 102.85C313.785 114.196 306.683 125.489 295.337 128.074L205.994 148.427C194.648 151.012 183.355 143.91 180.77 132.563Z" fill="#F9E0B5"/>
    <path d="M216.325 132.669L208.671 118.627L211.594 117.961L216.81 128.373L216.95 128.341L217.324 116.655L219.984 116.05L225.393 126.425L225.524 126.395L225.714 114.744L228.638 114.078L227.821 130.05L225.14 130.661L219.737 120.815L219.619 120.842L219.006 132.058L216.325 132.669ZM233.824 128.682L231.26 117.427L233.913 116.823L236.477 128.078L233.824 128.682ZM232.23 115.526C231.81 115.622 231.417 115.565 231.05 115.355C230.683 115.141 230.454 114.836 230.364 114.44C230.273 114.04 230.347 113.666 230.586 113.318C230.825 112.966 231.154 112.742 231.574 112.646C231.999 112.549 232.393 112.609 232.755 112.824C233.122 113.034 233.35 113.339 233.442 113.739C233.532 114.135 233.458 114.509 233.219 114.861C232.985 115.207 232.655 115.429 232.23 115.526ZM243.426 126.703C242.542 126.904 241.699 126.857 240.897 126.562C240.095 126.267 239.393 125.733 238.79 124.961C238.188 124.189 237.746 123.185 237.464 121.949C237.179 120.698 237.144 119.596 237.359 118.643C237.577 117.684 237.988 116.904 238.591 116.304C239.193 115.7 239.927 115.299 240.791 115.102C241.451 114.951 242.018 114.94 242.495 115.068C242.97 115.191 243.367 115.381 243.688 115.637C244.007 115.888 244.266 116.134 244.465 116.377L244.575 116.352L243.297 110.739L245.956 110.133L249.375 125.139L246.767 125.734L246.363 123.96L246.201 123.997C246.127 124.302 245.995 124.638 245.806 125.004C245.617 125.366 245.334 125.703 244.958 126.015C244.582 126.326 244.071 126.556 243.426 126.703ZM243.671 124.358C244.232 124.23 244.677 123.969 245.003 123.576C245.329 123.178 245.532 122.683 245.612 122.089C245.693 121.495 245.65 120.834 245.485 120.106C245.319 119.378 245.072 118.769 244.744 118.278C244.422 117.787 244.029 117.437 243.565 117.229C243.106 117.02 242.591 116.981 242.02 117.111C241.429 117.246 240.97 117.512 240.645 117.91C240.319 118.308 240.118 118.801 240.041 119.388C239.964 119.976 240.006 120.62 240.165 121.318C240.325 122.022 240.568 122.626 240.894 123.133C241.224 123.633 241.623 123.997 242.091 124.224C242.563 124.446 243.089 124.49 243.671 124.358ZM258.111 127.836C257.159 128.053 256.311 128.109 255.568 128.006C254.826 127.908 254.199 127.691 253.686 127.356C253.173 127.021 252.776 126.61 252.496 126.124L254.753 125.001C254.91 125.197 255.116 125.378 255.37 125.546C255.625 125.72 255.942 125.837 256.322 125.9C256.707 125.967 257.165 125.939 257.698 125.818C258.45 125.646 259.031 125.321 259.441 124.843C259.852 124.369 259.963 123.717 259.774 122.886L259.288 120.754L259.156 120.784C259.082 121.089 258.946 121.415 258.747 121.763C258.554 122.111 258.265 122.431 257.88 122.724C257.499 123.016 256.986 123.236 256.342 123.383C255.477 123.58 254.647 123.556 253.851 123.31C253.059 123.059 252.363 122.576 251.763 121.859C251.167 121.137 250.729 120.163 250.45 118.937C250.168 117.701 250.136 116.611 250.352 115.667C250.573 114.718 250.985 113.943 251.588 113.343C252.19 112.739 252.924 112.338 253.788 112.141C254.448 111.991 255.016 111.979 255.492 112.107C255.972 112.229 256.374 112.418 256.7 112.672C257.024 112.922 257.283 113.169 257.477 113.412L257.624 113.379L257.2 111.518L259.816 110.922L262.421 122.36C262.64 123.322 262.592 124.171 262.277 124.906C261.961 125.64 261.441 126.255 260.716 126.749C259.991 127.243 259.123 127.605 258.111 127.836ZM256.608 121.133C257.169 121.005 257.617 120.759 257.95 120.396C258.284 120.032 258.495 119.57 258.583 119.011C258.671 118.451 258.634 117.812 258.47 117.094C258.309 116.386 258.065 115.789 257.738 115.303C257.417 114.816 257.025 114.471 256.562 114.268C256.103 114.059 255.588 114.02 255.017 114.15C254.426 114.285 253.967 114.551 253.642 114.949C253.316 115.347 253.115 115.837 253.037 116.42C252.958 116.998 252.995 117.627 253.15 118.306C253.307 118.995 253.545 119.575 253.863 120.047C254.185 120.514 254.577 120.846 255.038 121.044C255.503 121.236 256.026 121.266 256.608 121.133ZM270.131 120.642C269.002 120.899 267.974 120.887 267.047 120.605C266.123 120.317 265.343 119.791 264.706 119.026C264.069 118.257 263.616 117.283 263.347 116.106C263.084 114.948 263.072 113.882 263.312 112.908C263.557 111.927 264.021 111.102 264.706 110.432C265.39 109.757 266.269 109.298 267.344 109.053C268.038 108.895 268.718 108.858 269.385 108.942C270.055 109.021 270.68 109.238 271.26 109.594C271.844 109.949 272.355 110.455 272.792 111.11C273.228 111.761 273.558 112.58 273.783 113.567L273.969 114.38L264.743 116.482L264.336 114.694L271.019 113.172C270.898 112.665 270.685 112.238 270.38 111.891C270.074 111.54 269.702 111.293 269.263 111.151C268.83 111.008 268.359 110.995 267.851 111.111C267.309 111.234 266.863 111.475 266.513 111.832C266.161 112.184 265.919 112.599 265.787 113.076C265.658 113.548 265.648 114.035 265.758 114.54L266.113 116.1C266.262 116.755 266.51 117.29 266.856 117.704C267.201 118.114 267.617 118.394 268.104 118.545C268.589 118.691 269.12 118.699 269.697 118.568C270.083 118.48 270.42 118.346 270.708 118.168C270.995 117.984 271.229 117.759 271.409 117.491C271.59 117.224 271.703 116.918 271.748 116.574L274.288 116.288C274.28 116.979 274.113 117.618 273.784 118.207C273.46 118.789 272.989 119.292 272.371 119.716C271.752 120.134 271.005 120.443 270.131 120.642ZM280.386 106.236L280.853 108.288L274.383 109.762L273.915 107.71L280.386 106.236ZM274.898 104.649L277.551 104.045L279.958 114.611C280.039 114.968 280.155 115.229 280.306 115.395C280.461 115.555 280.636 115.649 280.833 115.676C281.029 115.703 281.237 115.692 281.457 115.642C281.623 115.604 281.772 115.557 281.903 115.502C282.039 115.445 282.141 115.399 282.21 115.362L283.13 117.334C282.999 117.415 282.809 117.515 282.558 117.634C282.313 117.752 282.003 117.858 281.629 117.954C280.969 118.124 280.348 118.161 279.765 118.062C279.182 117.959 278.68 117.708 278.261 117.31C277.846 116.912 277.561 116.36 277.406 115.655L274.898 104.649Z" fill="#374144"/>
    <path d="M-50.0627 200.199C-50.7643 196.961 -48.7076 193.766 -45.469 193.065L87.4478 164.27C90.6864 163.569 93.8805 165.625 94.5821 168.864L97.7695 183.577C98.4711 186.816 96.4144 190.01 93.1759 190.711L-39.741 219.506C-42.9795 220.208 -46.1737 218.151 -46.8753 214.912L-50.0627 200.199Z" fill="#F5B63F"/>
    <rect x="88.2432" y="127" width="123.638" height="26" rx="3" transform="rotate(11.6328 88.2432 127)" fill="#E3DEFC"/>
    <rect x="311.49" y="55.3923" width="97.9453" height="26" rx="4" transform="rotate(34.6439 311.49 55.3923)" fill="white"/>
    <rect width="68.7308" height="26" rx="4" transform="matrix(-0.918047 0.396471 0.396471 0.918047 98.7656 -17)" fill="#29D4CA"/>
    <rect width="166.363" height="30.9896" rx="4" transform="matrix(-0.994226 0.107307 0.107307 0.994226 328.069 -24)" fill="#29D4CA"/>
    <rect x="312" y="138" width="119" height="26" rx="4" fill="#EE762F"/>
    <rect x="-36" y="83" width="119" height="26" rx="4" fill="#EE762F"/>
    <circle cx="376.744" cy="75" r="21" fill="#E9C5FF"/>
  </g>
</svg>