<?xml version="1.0" encoding="utf-8"?>
<svg viewBox="38.197 87.135 201.537 190.283" fill="none" xmlns="http://www.w3.org/2000/svg">
  <defs>
    <filter id="filter0_d_350_2305" x="-52.7275" y="-2.69413e-05" width="383.321" height="370.943" filterUnits="userSpaceOnUse" color-interpolation-filters="sRGB">
      <feFlood flood-opacity="0" result="BackgroundImageFix"/>
      <feColorMatrix in="SourceAlpha" type="matrix" values="0 0 0 0 0 0 0 0 0 0 0 0 0 0 0 0 0 0 127 0" result="hardAlpha"/>
      <feOffset dy="3.63636"/>
      <feGaussianBlur stdDeviation="45.4545"/>
      <feComposite in2="hardAlpha" operator="out"/>
      <feColorMatrix type="matrix" values="0 0 0 0 0 0 0 0 0 0 0 0 0 0 0 0 0 0 0.15 0"/>
      <feBlend mode="normal" in2="BackgroundImageFix" result="effect1_dropShadow_350_2305"/>
      <feBlend mode="normal" in="SourceGraphic" in2="effect1_dropShadow_350_2305" result="shape"/>
    </filter>
    <clipPath id="clip0_350_2305">
      <path d="M38.1816 94.5454C38.1816 90.5288 41.4378 87.2727 45.4544 87.2727H232.412C236.428 87.2727 239.685 90.5288 239.685 94.5454V269.125C239.685 273.141 236.428 276.397 232.412 276.397H45.4544C41.4377 276.397 38.1816 273.141 38.1816 269.125V94.5454Z" fill="white"/>
    </clipPath>
    <linearGradient id="paint0_linear_350_2305" x1="38.1816" y1="87.2727" x2="264.961" y2="111.013" gradientUnits="userSpaceOnUse">
      <stop stop-color="#F1CF61"/>
      <stop offset="1" stop-color="#EE86B6"/>
    </linearGradient>
    <clipPath id="clip1_350_2305">
      <rect width="15.7015" height="15.7015" fill="white" transform="translate(55.1917 105.432)"/>
    </clipPath>
    <clipPath id="clip2_350_2305">
      <rect width="15.7015" height="15.7015" fill="white" transform="translate(206.973 105.432)"/>
    </clipPath>
  </defs>
  <g filter="url(#filter0_d_350_2305)" transform="matrix(1, 0, 0, 1, 7.105427357601002e-15, 0)">
    <g clip-path="url(#clip0_350_2305)">
      <path d="M38.1816 94.5454C38.1816 90.5288 41.4378 87.2727 45.4544 87.2727H232.412C236.428 87.2727 239.685 90.5288 239.685 94.5454V269.125C239.685 273.141 236.428 276.397 232.412 276.397H45.4544C41.4377 276.397 38.1816 273.141 38.1816 269.125V94.5454Z" fill="url(#paint0_linear_350_2305)"/>
      <g clip-path="url(#clip1_350_2305)">
        <path d="M66.2319 116.718H60.2929C60.0631 116.717 59.8406 116.637 59.6641 116.49C59.4877 116.342 59.3686 116.138 59.3275 115.912L57.7629 107.307C57.7423 107.194 57.6828 107.092 57.5946 107.018C57.5063 106.944 57.3951 106.904 57.2802 106.904H56.1731" stroke="black" stroke-width="0.981345" stroke-linecap="round" stroke-linejoin="round"/>
        <path d="M60.3436 119.171C61.0211 119.171 61.5703 118.621 61.5703 117.944C61.5703 117.266 61.0211 116.717 60.3436 116.717C59.6661 116.717 59.1169 117.266 59.1169 117.944C59.1169 118.621 59.6661 119.171 60.3436 119.171Z" stroke="black" stroke-width="0.981345" stroke-linecap="round" stroke-linejoin="round"/>
        <path d="M66.2318 119.171C66.9093 119.171 67.4585 118.621 67.4585 117.944C67.4585 117.266 66.9093 116.717 66.2318 116.717C65.5543 116.717 65.0051 117.266 65.0051 117.944C65.0051 118.621 65.5543 119.171 66.2318 119.171Z" stroke="black" stroke-width="0.981345" stroke-linecap="round" stroke-linejoin="round"/>
        <path d="M59.0282 114.264H66.7286C66.9585 114.264 67.181 114.183 67.3574 114.036C67.5338 113.889 67.653 113.684 67.694 113.458L68.4399 109.357H58.1357" stroke="black" stroke-width="0.981345" stroke-linecap="round" stroke-linejoin="round"/>
      </g>
      <path d="M80.7778 117.283V108.718H86.2645V110.019H82.3293V112.344H85.8881V113.644H82.3293V117.283H80.7778ZM91.3026 114.581V110.859H92.8164V117.283H91.3486V116.141H91.2817C91.1367 116.501 90.8983 116.795 90.5666 117.023C90.2376 117.252 89.8319 117.366 89.3496 117.366C88.9287 117.366 88.5565 117.273 88.2331 117.086C87.9125 116.897 87.6615 116.622 87.4803 116.262C87.2991 115.9 87.2085 115.462 87.2085 114.949V110.859H88.7223V114.715C88.7223 115.122 88.8339 115.445 89.0569 115.685C89.2799 115.925 89.5727 116.045 89.9351 116.045C90.1581 116.045 90.3742 115.991 90.5833 115.882C90.7924 115.773 90.9638 115.611 91.0977 115.397C91.2343 115.179 91.3026 114.907 91.3026 114.581ZM95.8869 108.718V117.283H94.3731V108.718H95.8869ZM98.9575 108.718V117.283H97.4436V108.718H98.9575ZM103.768 110.859V112.03H99.9705V110.859H103.768ZM100.92 117.283V110.253C100.92 109.821 101.009 109.461 101.187 109.174C101.369 108.887 101.611 108.672 101.915 108.53C102.219 108.388 102.556 108.317 102.927 108.317C103.189 108.317 103.422 108.338 103.625 108.38C103.829 108.421 103.98 108.459 104.077 108.492L103.776 109.663C103.712 109.644 103.631 109.624 103.533 109.605C103.436 109.582 103.327 109.571 103.207 109.571C102.926 109.571 102.726 109.64 102.609 109.776C102.495 109.91 102.438 110.102 102.438 110.353V117.283H100.92ZM104.953 117.283V110.859H106.467V117.283H104.953ZM105.714 109.948C105.475 109.948 105.268 109.868 105.095 109.709C104.923 109.548 104.836 109.354 104.836 109.128C104.836 108.899 104.923 108.706 105.095 108.547C105.268 108.385 105.475 108.304 105.714 108.304C105.957 108.304 106.163 108.385 106.333 108.547C106.506 108.706 106.593 108.899 106.593 109.128C106.593 109.354 106.506 109.548 106.333 109.709C106.163 109.868 105.957 109.948 105.714 109.948ZM109.538 108.718V117.283H108.024V108.718H109.538ZM112.608 108.718V117.283H111.094V108.718H112.608ZM117.009 117.408C116.365 117.408 115.808 117.274 115.34 117.007C114.874 116.736 114.516 116.354 114.265 115.861C114.014 115.365 113.889 114.781 113.889 114.109C113.889 113.448 114.014 112.868 114.265 112.369C114.519 111.867 114.873 111.477 115.327 111.198C115.782 110.917 116.316 110.776 116.929 110.776C117.325 110.776 117.699 110.84 118.05 110.968C118.404 111.094 118.716 111.289 118.987 111.554C119.26 111.818 119.474 112.156 119.631 112.566C119.787 112.973 119.865 113.458 119.865 114.021V114.485H114.6V113.465H118.414C118.411 113.175 118.348 112.917 118.225 112.691C118.103 112.462 117.931 112.283 117.711 112.152C117.494 112.021 117.24 111.955 116.95 111.955C116.641 111.955 116.369 112.03 116.135 112.181C115.9 112.329 115.718 112.524 115.587 112.766C115.458 113.006 115.393 113.27 115.39 113.557V114.447C115.39 114.821 115.458 115.142 115.595 115.409C115.732 115.674 115.923 115.878 116.168 116.02C116.413 116.159 116.7 116.229 117.029 116.229C117.25 116.229 117.449 116.198 117.627 116.137C117.806 116.073 117.961 115.979 118.092 115.857C118.223 115.734 118.322 115.582 118.389 115.401L119.802 115.56C119.713 115.933 119.543 116.26 119.292 116.538C119.044 116.814 118.726 117.029 118.338 117.182C117.951 117.333 117.508 117.408 117.009 117.408ZM123.529 117.396C123.024 117.396 122.573 117.266 122.174 117.007C121.775 116.747 121.46 116.371 121.229 115.878C120.998 115.384 120.882 114.785 120.882 114.079C120.882 113.366 120.999 112.764 121.233 112.273C121.47 111.779 121.789 111.407 122.191 111.156C122.592 110.903 123.04 110.776 123.533 110.776C123.91 110.776 124.219 110.84 124.462 110.968C124.704 111.094 124.897 111.245 125.039 111.424C125.181 111.6 125.291 111.765 125.369 111.922H125.432V108.718H126.95V117.283H125.461V116.271H125.369C125.291 116.427 125.178 116.593 125.03 116.768C124.883 116.941 124.687 117.089 124.445 117.212C124.202 117.334 123.897 117.396 123.529 117.396ZM123.951 116.154C124.272 116.154 124.545 116.067 124.771 115.894C124.997 115.719 125.168 115.475 125.285 115.163C125.403 114.85 125.461 114.486 125.461 114.071C125.461 113.656 125.403 113.295 125.285 112.988C125.171 112.681 125.001 112.443 124.775 112.273C124.552 112.103 124.278 112.018 123.951 112.018C123.614 112.018 123.333 112.106 123.107 112.281C122.881 112.457 122.711 112.699 122.597 113.009C122.482 113.318 122.425 113.672 122.425 114.071C122.425 114.472 122.482 114.831 122.597 115.146C122.714 115.458 122.885 115.705 123.111 115.886C123.34 116.064 123.62 116.154 123.951 116.154ZM139.204 113C139.204 113.923 139.031 114.714 138.685 115.372C138.342 116.027 137.874 116.529 137.28 116.877C136.689 117.226 136.019 117.4 135.269 117.4C134.519 117.4 133.847 117.226 133.253 116.877C132.662 116.526 132.194 116.023 131.848 115.367C131.505 114.709 131.334 113.92 131.334 113C131.334 112.078 131.505 111.289 131.848 110.634C132.194 109.976 132.662 109.472 133.253 109.124C133.847 108.775 134.519 108.601 135.269 108.601C136.019 108.601 136.689 108.775 137.28 109.124C137.874 109.472 138.342 109.976 138.685 110.634C139.031 111.289 139.204 112.078 139.204 113ZM137.644 113C137.644 112.351 137.542 111.803 137.339 111.357C137.138 110.908 136.859 110.569 136.502 110.341C136.145 110.109 135.734 109.994 135.269 109.994C134.803 109.994 134.392 110.109 134.035 110.341C133.678 110.569 133.398 110.908 133.194 111.357C132.994 111.803 132.893 112.351 132.893 113C132.893 113.65 132.994 114.199 133.194 114.648C133.398 115.094 133.678 115.433 134.035 115.664C134.392 115.893 134.803 116.007 135.269 116.007C135.734 116.007 136.145 115.893 136.502 115.664C136.859 115.433 137.138 115.094 137.339 114.648C137.542 114.199 137.644 113.65 137.644 113ZM140.604 117.283V110.859H142.071V111.93H142.138C142.255 111.559 142.456 111.273 142.741 111.073C143.028 110.869 143.355 110.767 143.723 110.767C143.807 110.767 143.9 110.772 144.004 110.78C144.109 110.785 144.197 110.795 144.267 110.809V112.202C144.203 112.179 144.101 112.16 143.962 112.143C143.825 112.124 143.693 112.114 143.564 112.114C143.288 112.114 143.04 112.174 142.82 112.294C142.603 112.411 142.431 112.574 142.306 112.783C142.18 112.992 142.117 113.233 142.117 113.506V117.283H140.604ZM147.392 117.396C146.887 117.396 146.436 117.266 146.037 117.007C145.638 116.747 145.323 116.371 145.092 115.878C144.86 115.384 144.745 114.785 144.745 114.079C144.745 113.366 144.862 112.764 145.096 112.273C145.333 111.779 145.652 111.407 146.054 111.156C146.455 110.903 146.903 110.776 147.396 110.776C147.772 110.776 148.082 110.84 148.324 110.968C148.567 111.094 148.759 111.245 148.902 111.424C149.044 111.6 149.154 111.765 149.232 111.922H149.295V108.718H150.813V117.283H149.324V116.271H149.232C149.154 116.427 149.041 116.593 148.893 116.768C148.745 116.941 148.55 117.089 148.308 117.212C148.065 117.334 147.76 117.396 147.392 117.396ZM147.814 116.154C148.135 116.154 148.408 116.067 148.634 115.894C148.86 115.719 149.031 115.475 149.148 115.163C149.265 114.85 149.324 114.486 149.324 114.071C149.324 113.656 149.265 113.295 149.148 112.988C149.034 112.681 148.864 112.443 148.638 112.273C148.415 112.103 148.14 112.018 147.814 112.018C147.477 112.018 147.195 112.106 146.97 112.281C146.744 112.457 146.574 112.699 146.459 113.009C146.345 113.318 146.288 113.672 146.288 114.071C146.288 114.472 146.345 114.831 146.459 115.146C146.576 115.458 146.748 115.705 146.974 115.886C147.202 116.064 147.482 116.154 147.814 116.154ZM155.269 117.408C154.625 117.408 154.069 117.274 153.601 117.007C153.135 116.736 152.777 116.354 152.526 115.861C152.275 115.365 152.15 114.781 152.15 114.109C152.15 113.448 152.275 112.868 152.526 112.369C152.78 111.867 153.134 111.477 153.588 111.198C154.043 110.917 154.577 110.776 155.19 110.776C155.586 110.776 155.959 110.84 156.311 110.968C156.665 111.094 156.977 111.289 157.248 111.554C157.521 111.818 157.735 112.156 157.892 112.566C158.048 112.973 158.126 113.458 158.126 114.021V114.485H152.861V113.465H156.675C156.672 113.175 156.609 112.917 156.486 112.691C156.364 112.462 156.192 112.283 155.972 112.152C155.755 112.021 155.501 111.955 155.211 111.955C154.901 111.955 154.63 112.03 154.395 112.181C154.161 112.329 153.979 112.524 153.848 112.766C153.719 113.006 153.654 113.27 153.651 113.557V114.447C153.651 114.821 153.719 115.142 153.856 115.409C153.993 115.674 154.184 115.878 154.429 116.02C154.674 116.159 154.961 116.229 155.29 116.229C155.511 116.229 155.71 116.198 155.888 116.137C156.067 116.073 156.222 115.979 156.353 115.857C156.484 115.734 156.583 115.582 156.649 115.401L158.063 115.56C157.974 115.933 157.804 116.26 157.553 116.538C157.305 116.814 156.987 117.029 156.599 117.182C156.212 117.333 155.769 117.408 155.269 117.408ZM159.406 117.283V110.859H160.874V111.93H160.941C161.058 111.559 161.259 111.273 161.543 111.073C161.83 110.869 162.158 110.767 162.526 110.767C162.61 110.767 162.703 110.772 162.806 110.78C162.912 110.785 163 110.795 163.07 110.809V112.202C163.006 112.179 162.904 112.16 162.764 112.143C162.628 112.124 162.495 112.114 162.367 112.114C162.091 112.114 161.843 112.174 161.623 112.294C161.405 112.411 161.234 112.574 161.108 112.783C160.983 112.992 160.92 113.233 160.92 113.506V117.283H159.406ZM173.039 113.682L167.318 116.325V114.841L171.383 113.097L171.337 113.176V112.984L171.383 113.063L167.318 111.319V109.835L173.039 112.478V113.682ZM179.459 108.718V117.283H177.908V108.718H179.459ZM186.149 112.557L184.769 112.708C184.73 112.568 184.662 112.437 184.565 112.315C184.47 112.192 184.341 112.093 184.18 112.018C184.018 111.942 183.82 111.905 183.586 111.905C183.271 111.905 183.006 111.973 182.791 112.11C182.58 112.246 182.475 112.423 182.478 112.641C182.475 112.828 182.543 112.98 182.683 113.097C182.825 113.214 183.059 113.31 183.385 113.385L184.481 113.619C185.089 113.75 185.54 113.958 185.836 114.242C186.134 114.527 186.285 114.899 186.287 115.359C186.285 115.763 186.166 116.12 185.932 116.43C185.701 116.736 185.379 116.976 184.966 117.149C184.553 117.322 184.079 117.408 183.544 117.408C182.758 117.408 182.125 117.244 181.646 116.915C181.166 116.583 180.88 116.122 180.788 115.531L182.264 115.388C182.331 115.678 182.474 115.897 182.691 116.045C182.908 116.193 183.191 116.267 183.54 116.267C183.9 116.267 184.188 116.193 184.406 116.045C184.626 115.897 184.736 115.715 184.736 115.497C184.736 115.313 184.665 115.161 184.523 115.041C184.383 114.921 184.166 114.829 183.87 114.765L182.775 114.535C182.159 114.407 181.703 114.191 181.407 113.887C181.112 113.58 180.965 113.193 180.968 112.724C180.965 112.329 181.073 111.986 181.29 111.696C181.51 111.403 181.816 111.177 182.206 111.018C182.599 110.857 183.052 110.776 183.565 110.776C184.318 110.776 184.91 110.936 185.342 111.257C185.777 111.577 186.046 112.011 186.149 112.557ZM188.468 117.375C188.215 117.375 187.997 117.286 187.816 117.107C187.635 116.929 187.545 116.711 187.548 116.455C187.545 116.204 187.635 115.989 187.816 115.811C187.997 115.632 188.215 115.543 188.468 115.543C188.714 115.543 188.927 115.632 189.108 115.811C189.292 115.989 189.386 116.204 189.388 116.455C189.386 116.625 189.341 116.779 189.254 116.919C189.171 117.058 189.059 117.17 188.92 117.253C188.783 117.334 188.633 117.375 188.468 117.375ZM191.884 117.375C191.63 117.375 191.413 117.286 191.231 117.107C191.05 116.929 190.961 116.711 190.964 116.455C190.961 116.204 191.05 115.989 191.231 115.811C191.413 115.632 191.63 115.543 191.884 115.543C192.129 115.543 192.342 115.632 192.524 115.811C192.708 115.989 192.801 116.204 192.804 116.455C192.801 116.625 192.756 116.779 192.67 116.919C192.586 117.058 192.475 117.17 192.335 117.253C192.199 117.334 192.048 117.375 191.884 117.375ZM195.299 117.375C195.046 117.375 194.828 117.286 194.647 117.107C194.466 116.929 194.377 116.711 194.379 116.455C194.377 116.204 194.466 115.989 194.647 115.811C194.828 115.632 195.046 115.543 195.299 115.543C195.545 115.543 195.758 115.632 195.939 115.811C196.123 115.989 196.217 116.204 196.219 116.455C196.217 116.625 196.172 116.779 196.086 116.919C196.002 117.058 195.89 117.17 195.751 117.253C195.614 117.334 195.464 117.375 195.299 117.375Z" fill="black"/>
      <g clip-path="url(#clip2_350_2305)">
        <path d="M214.824 119.171C218.076 119.171 220.712 116.534 220.712 113.283C220.712 110.031 218.076 107.395 214.824 107.395C211.572 107.395 208.936 110.031 208.936 113.283C208.936 116.534 211.572 119.171 214.824 119.171Z" stroke="black" stroke-width="0.981345" stroke-linecap="round" stroke-linejoin="round"/>
        <path d="M213.843 110.829L216.296 113.283L213.843 115.736" stroke="black" stroke-width="0.981345" stroke-linecap="round" stroke-linejoin="round"/>
      </g>
      <path d="M38.1816 139.293H239.685V269.125C239.685 273.141 236.428 276.397 232.412 276.397H45.4544C41.4377 276.397 38.1816 273.141 38.1816 269.125V139.293Z" fill="white"/>
      <path d="M59.0264 169.42C58.4242 169.42 57.889 169.317 57.4206 169.11C56.955 168.904 56.587 168.617 56.3166 168.249C56.0461 167.881 55.9026 167.456 55.8858 166.973H57.4582C57.4722 167.205 57.5488 167.407 57.6882 167.58C57.8276 167.75 58.013 167.882 58.2444 167.977C58.4758 168.072 58.7351 168.119 59.0222 168.119C59.3289 168.119 59.6007 168.066 59.8377 167.96C60.0747 167.852 60.2601 167.701 60.3939 167.509C60.5277 167.316 60.5932 167.095 60.5904 166.844C60.5932 166.585 60.5263 166.356 60.3897 166.158C60.2531 165.96 60.0552 165.805 59.7959 165.694C59.5394 165.582 59.2299 165.527 58.8675 165.527H58.1106V164.33H58.8675C59.1658 164.33 59.4265 164.279 59.6495 164.176C59.8753 164.073 60.0524 163.928 60.1806 163.741C60.3089 163.551 60.3716 163.332 60.3688 163.084C60.3716 162.842 60.3172 162.631 60.2057 162.453C60.097 162.272 59.9423 162.131 59.7415 162.03C59.5436 161.93 59.3108 161.88 59.0432 161.88C58.7811 161.88 58.5385 161.927 58.3155 162.022C58.0925 162.117 57.9127 162.252 57.776 162.428C57.6394 162.601 57.567 162.807 57.5586 163.047H56.0657C56.0768 162.567 56.2148 162.146 56.4797 161.784C56.7473 161.419 57.1042 161.134 57.5502 160.931C57.9963 160.724 58.4967 160.621 59.0515 160.621C59.623 160.621 60.1193 160.729 60.5403 160.943C60.964 161.155 61.2916 161.441 61.523 161.8C61.7544 162.16 61.8701 162.557 61.8701 162.992C61.8729 163.475 61.7307 163.879 61.4435 164.205C61.1592 164.531 60.7856 164.744 60.3228 164.845V164.912C60.925 164.995 61.3864 165.218 61.707 165.581C62.0304 165.941 62.1907 166.388 62.1879 166.923C62.1879 167.403 62.0513 167.832 61.7781 168.211C61.5077 168.588 61.1341 168.883 60.6574 169.098C60.1834 169.312 59.6398 169.42 59.0264 169.42ZM66.789 169.466C66.1004 169.466 65.5094 169.292 65.0159 168.943C64.5252 168.592 64.1475 168.086 63.8826 167.425C63.6206 166.762 63.4895 165.963 63.4895 165.029C63.4923 164.095 63.6247 163.3 63.8868 162.645C64.1517 161.987 64.5294 161.485 65.0201 161.14C65.5135 160.794 66.1032 160.621 66.789 160.621C67.4748 160.621 68.0645 160.794 68.5579 161.14C69.0514 161.485 69.4292 161.987 69.6912 162.645C69.9561 163.303 70.0885 164.098 70.0885 165.029C70.0885 165.966 69.9561 166.766 69.6912 167.429C69.4292 168.09 69.0514 168.595 68.5579 168.943C68.0673 169.292 67.4776 169.466 66.789 169.466ZM66.789 168.157C67.3243 168.157 67.7467 167.893 68.0561 167.367C68.3684 166.837 68.5245 166.058 68.5245 165.029C68.5245 164.349 68.4534 163.777 68.3112 163.314C68.169 162.852 67.9683 162.503 67.709 162.269C67.4498 162.032 67.1431 161.913 66.789 161.913C66.2565 161.913 65.8356 162.178 65.5261 162.708C65.2166 163.235 65.0605 164.008 65.0577 165.029C65.0549 165.712 65.1232 166.286 65.2626 166.752C65.4048 167.217 65.6055 167.569 65.8648 167.806C66.1241 168.04 66.4322 168.157 66.789 168.157Z" fill="#374144"/>
      <path d="M61.8492 181.355H62.8863V187.026C62.8863 187.611 62.7483 188.134 62.4723 188.594C62.1991 189.051 61.8129 189.412 61.3139 189.677C60.8149 189.939 60.2294 190.07 59.5575 190.07C58.8856 190.07 58.3002 189.939 57.8011 189.677C57.3021 189.412 56.9146 189.051 56.6386 188.594C56.3654 188.134 56.2288 187.611 56.2288 187.026V181.355H57.2659V186.942C57.2659 187.36 57.3579 187.732 57.5419 188.059C57.7259 188.382 57.9879 188.637 58.3281 188.824C58.671 189.008 59.0808 189.1 59.5575 189.1C60.0343 189.1 60.4441 189.008 60.787 188.824C61.1299 188.637 61.392 188.382 61.5732 188.059C61.7572 187.732 61.8492 187.36 61.8492 186.942V181.355ZM65.8105 186.055V189.919H64.8235V183.496H65.777V184.5H65.8606C66.0112 184.174 66.2398 183.911 66.5465 183.714C66.8531 183.513 67.249 183.412 67.7341 183.412C68.169 183.412 68.5496 183.502 68.8758 183.68C69.202 183.856 69.4557 184.123 69.6369 184.483C69.8181 184.84 69.9087 185.291 69.9087 185.838V189.919H68.9218V185.905C68.9218 185.4 68.7907 185.007 68.5287 184.726C68.2666 184.441 67.907 184.299 67.4498 184.299C67.1347 184.299 66.8531 184.367 66.605 184.504C66.3597 184.641 66.1659 184.84 66.0237 185.102C65.8816 185.364 65.8105 185.682 65.8105 186.055ZM71.7121 189.919V183.496H72.699V189.919H71.7121ZM72.2139 182.426C72.0216 182.426 71.8557 182.36 71.7163 182.229C71.5797 182.098 71.5114 181.94 71.5114 181.756C71.5114 181.572 71.5797 181.415 71.7163 181.284C71.8557 181.153 72.0216 181.087 72.2139 181.087C72.4063 181.087 72.5708 181.153 72.7074 181.284C72.8468 181.415 72.9165 181.572 72.9165 181.756C72.9165 181.94 72.8468 182.098 72.7074 182.229C72.5708 182.36 72.4063 182.426 72.2139 182.426ZM78.8893 192.328V188.933H78.8056C78.7331 189.05 78.63 189.197 78.4962 189.376C78.3623 189.551 78.1714 189.709 77.9232 189.848C77.6751 189.985 77.3448 190.053 76.9321 190.053C76.3969 190.053 75.9243 189.918 75.5145 189.648C75.1047 189.374 74.7841 188.99 74.5527 188.493C74.3213 187.994 74.2056 187.405 74.2056 186.724C74.2056 186.05 74.3213 185.464 74.5527 184.968C74.7841 184.472 75.1061 184.089 75.5187 183.818C75.9313 183.548 76.408 183.412 76.9489 183.412C77.3671 183.412 77.6974 183.482 77.94 183.622C78.1853 183.758 78.3721 183.914 78.5003 184.09C78.6314 184.263 78.7331 184.405 78.8056 184.516H78.9227V183.496H79.8762V192.328H78.8893ZM77.066 189.167C77.4618 189.167 77.7964 189.064 78.0696 188.857C78.3428 188.648 78.5505 188.36 78.6927 187.992C78.8349 187.621 78.906 187.193 78.906 186.708C78.906 186.228 78.8363 185.809 78.6969 185.449C78.5575 185.087 78.3512 184.805 78.078 184.604C77.8048 184.401 77.4674 184.299 77.066 184.299C76.6478 184.299 76.2993 184.406 76.0205 184.621C75.7445 184.833 75.5368 185.121 75.3974 185.487C75.2608 185.849 75.1925 186.256 75.1925 186.708C75.1925 187.165 75.2622 187.58 75.4016 187.954C75.5438 188.325 75.7529 188.62 76.0289 188.841C76.3076 189.058 76.6534 189.167 77.066 189.167ZM85.7308 187.293V183.496H86.7177V189.919H85.7308V188.832H85.6639C85.5133 189.158 85.2792 189.436 84.9613 189.664C84.6435 189.89 84.242 190.003 83.757 190.003C83.3555 190.003 82.9986 189.915 82.6864 189.74C82.3741 189.561 82.1288 189.294 81.9504 188.937C81.772 188.577 81.6827 188.124 81.6827 187.578V183.496H82.6697V187.511C82.6697 187.979 82.8007 188.353 83.0628 188.631C83.3276 188.91 83.665 189.05 84.0748 189.05C84.3201 189.05 84.5696 188.987 84.8233 188.861C85.0798 188.736 85.2945 188.544 85.4673 188.284C85.643 188.025 85.7308 187.695 85.7308 187.293ZM91.2185 190.053C90.5995 190.053 90.0656 189.917 89.6168 189.643C89.1707 189.367 88.8264 188.983 88.5839 188.489C88.3441 187.993 88.2242 187.416 88.2242 186.758C88.2242 186.1 88.3441 185.52 88.5839 185.018C88.8264 184.514 89.1638 184.121 89.5959 183.839C90.0308 183.555 90.5382 183.412 91.1181 183.412C91.4526 183.412 91.783 183.468 92.1092 183.58C92.4354 183.691 92.7323 183.872 92.9999 184.123C93.2676 184.371 93.4808 184.7 93.6398 185.11C93.7987 185.52 93.8781 186.025 93.8781 186.624V187.042H88.9268V186.189H92.8745C92.8745 185.827 92.802 185.503 92.657 185.219C92.5148 184.935 92.3113 184.71 92.0465 184.546C91.7844 184.381 91.4749 184.299 91.1181 184.299C90.725 184.299 90.3849 184.397 90.0977 184.592C89.8133 184.784 89.5945 185.035 89.4412 185.344C89.2878 185.654 89.2112 185.986 89.2112 186.34V186.908C89.2112 187.394 89.2948 187.805 89.4621 188.142C89.6321 188.477 89.8677 188.732 90.1688 188.907C90.4699 189.08 90.8198 189.167 91.2185 189.167C91.4777 189.167 91.7119 189.13 91.921 189.058C92.1329 188.983 92.3155 188.871 92.4688 188.723C92.6222 188.573 92.7407 188.386 92.8243 188.163L93.7778 188.431C93.6774 188.754 93.5087 189.038 93.2717 189.284C93.0348 189.526 92.742 189.716 92.3936 189.853C92.0451 189.986 91.6534 190.053 91.2185 190.053ZM102.74 187.293V183.496H103.726V189.919H102.74V188.832H102.673C102.522 189.158 102.288 189.436 101.97 189.664C101.652 189.89 101.251 190.003 100.766 190.003C100.364 190.003 100.007 189.915 99.6951 189.74C99.3829 189.561 99.1375 189.294 98.9591 188.937C98.7807 188.577 98.6915 188.124 98.6915 187.578V183.496H99.6784V187.511C99.6784 187.979 99.8094 188.353 100.071 188.631C100.336 188.91 100.674 189.05 101.083 189.05C101.329 189.05 101.578 188.987 101.832 188.861C102.089 188.736 102.303 188.544 102.476 188.284C102.652 188.025 102.74 187.695 102.74 187.293ZM110.084 184.935L109.197 185.186C109.142 185.038 109.059 184.894 108.951 184.755C108.845 184.613 108.7 184.496 108.516 184.404C108.332 184.312 108.096 184.266 107.809 184.266C107.416 184.266 107.088 184.356 106.826 184.537C106.567 184.716 106.437 184.943 106.437 185.219C106.437 185.464 106.527 185.658 106.705 185.8C106.883 185.942 107.162 186.061 107.541 186.156L108.495 186.39C109.069 186.529 109.497 186.743 109.779 187.03C110.06 187.314 110.201 187.681 110.201 188.13C110.201 188.498 110.095 188.827 109.883 189.117C109.674 189.406 109.381 189.635 109.005 189.802C108.629 189.97 108.191 190.053 107.692 190.053C107.037 190.053 106.494 189.911 106.065 189.627C105.636 189.342 105.364 188.927 105.25 188.381L106.186 188.146C106.276 188.492 106.444 188.751 106.692 188.924C106.943 189.097 107.271 189.183 107.675 189.183C108.135 189.183 108.5 189.086 108.771 188.891C109.044 188.693 109.181 188.456 109.181 188.18C109.181 187.957 109.103 187.77 108.946 187.619C108.79 187.466 108.551 187.352 108.227 187.276L107.157 187.026C106.568 186.886 106.136 186.67 105.86 186.377C105.587 186.082 105.45 185.712 105.45 185.269C105.45 184.907 105.552 184.586 105.756 184.307C105.962 184.029 106.242 183.81 106.596 183.651C106.953 183.492 107.357 183.412 107.809 183.412C108.445 183.412 108.944 183.552 109.306 183.831C109.671 184.109 109.931 184.477 110.084 184.935ZM114.38 190.053C113.761 190.053 113.227 189.917 112.778 189.643C112.332 189.367 111.988 188.983 111.745 188.489C111.505 187.993 111.386 187.416 111.386 186.758C111.386 186.1 111.505 185.52 111.745 185.018C111.988 184.514 112.325 184.121 112.757 183.839C113.192 183.555 113.699 183.412 114.279 183.412C114.614 183.412 114.944 183.468 115.27 183.58C115.597 183.691 115.894 183.872 116.161 184.123C116.429 184.371 116.642 184.7 116.801 185.11C116.96 185.52 117.039 186.025 117.039 186.624V187.042H112.088V186.189H116.036C116.036 185.827 115.963 185.503 115.818 185.219C115.676 184.935 115.473 184.71 115.208 184.546C114.946 184.381 114.636 184.299 114.279 184.299C113.886 184.299 113.546 184.397 113.259 184.592C112.975 184.784 112.756 185.035 112.602 185.344C112.449 185.654 112.372 185.986 112.372 186.34V186.908C112.372 187.394 112.456 187.805 112.623 188.142C112.793 188.477 113.029 188.732 113.33 188.907C113.631 189.08 113.981 189.167 114.38 189.167C114.639 189.167 114.873 189.13 115.082 189.058C115.294 188.983 115.477 188.871 115.63 188.723C115.783 188.573 115.902 188.386 115.986 188.163L116.939 188.431C116.839 188.754 116.67 189.038 116.433 189.284C116.196 189.526 115.903 189.716 115.555 189.853C115.206 189.986 114.815 190.053 114.38 190.053ZM118.541 189.919V183.496H119.494V184.466H119.561C119.678 184.148 119.89 183.891 120.197 183.693C120.503 183.495 120.849 183.396 121.234 183.396C121.306 183.396 121.397 183.397 121.506 183.4C121.614 183.403 121.697 183.407 121.752 183.412V184.416C121.719 184.408 121.642 184.395 121.522 184.378C121.405 184.359 121.281 184.349 121.15 184.349C120.838 184.349 120.559 184.415 120.314 184.546C120.071 184.674 119.879 184.852 119.737 185.081C119.597 185.307 119.528 185.565 119.528 185.855V189.919H118.541ZM127.472 184.935L126.586 185.186C126.53 185.038 126.448 184.894 126.339 184.755C126.233 184.613 126.088 184.496 125.904 184.404C125.72 184.312 125.484 184.266 125.197 184.266C124.804 184.266 124.477 184.356 124.214 184.537C123.955 184.716 123.826 184.943 123.826 185.219C123.826 185.464 123.915 185.658 124.093 185.8C124.272 185.942 124.55 186.061 124.93 186.156L125.883 186.39C126.457 186.529 126.885 186.743 127.167 187.03C127.448 187.314 127.589 187.681 127.589 188.13C127.589 188.498 127.483 188.827 127.271 189.117C127.062 189.406 126.77 189.635 126.393 189.802C126.017 189.97 125.579 190.053 125.08 190.053C124.425 190.053 123.883 189.911 123.453 189.627C123.024 189.342 122.752 188.927 122.638 188.381L123.575 188.146C123.664 188.492 123.832 188.751 124.081 188.924C124.332 189.097 124.659 189.183 125.063 189.183C125.523 189.183 125.889 189.086 126.159 188.891C126.432 188.693 126.569 188.456 126.569 188.18C126.569 187.957 126.491 187.77 126.335 187.619C126.179 187.466 125.939 187.352 125.615 187.276L124.545 187.026C123.957 186.886 123.524 186.67 123.248 186.377C122.975 186.082 122.839 185.712 122.839 185.269C122.839 184.907 122.94 184.586 123.144 184.307C123.35 184.029 123.63 183.81 123.984 183.651C124.341 183.492 124.746 183.412 125.197 183.412C125.833 183.412 126.332 183.552 126.694 183.831C127.06 184.109 127.319 184.477 127.472 184.935Z" fill="#B1B1B1"/>
      <path d="M160.281 167.714V166.48L163.915 160.738H164.944V162.495H164.316L161.87 166.371V166.438H166.943V167.714H160.281ZM164.367 169.303V167.337L164.383 166.785V160.738H165.847V169.303H164.367ZM171.444 169.466C170.756 169.466 170.165 169.292 169.671 168.943C169.181 168.592 168.803 168.086 168.538 167.425C168.276 166.762 168.145 165.963 168.145 165.029C168.148 164.095 168.28 163.3 168.542 162.645C168.807 161.987 169.185 161.485 169.676 161.14C170.169 160.794 170.759 160.621 171.444 160.621C172.13 160.621 172.72 160.794 173.213 161.14C173.707 161.485 174.085 161.987 174.347 162.645C174.611 163.303 174.744 164.098 174.744 165.029C174.744 165.966 174.611 166.766 174.347 167.429C174.085 168.09 173.707 168.595 173.213 168.943C172.723 169.292 172.133 169.466 171.444 169.466ZM171.444 168.157C171.98 168.157 172.402 167.893 172.712 167.367C173.024 166.837 173.18 166.058 173.18 165.029C173.18 164.349 173.109 163.777 172.967 163.314C172.824 162.852 172.624 162.503 172.364 162.269C172.105 162.032 171.798 161.913 171.444 161.913C170.912 161.913 170.491 162.178 170.182 162.708C169.872 163.235 169.716 164.008 169.713 165.029C169.71 165.712 169.779 166.286 169.918 166.752C170.06 167.217 170.261 167.569 170.52 167.806C170.78 168.04 171.088 168.157 171.444 168.157ZM180.712 167.697V167.245C180.712 166.913 180.782 166.608 180.922 166.329C181.064 166.051 181.27 165.826 181.541 165.656C181.811 165.486 182.139 165.401 182.523 165.401C182.919 165.401 183.251 165.486 183.519 165.656C183.786 165.823 183.988 166.046 184.125 166.325C184.264 166.604 184.334 166.911 184.334 167.245V167.697C184.334 168.029 184.264 168.334 184.125 168.613C183.986 168.892 183.781 169.116 183.51 169.286C183.243 169.456 182.914 169.541 182.523 169.541C182.133 169.541 181.803 169.456 181.532 169.286C181.262 169.116 181.057 168.892 180.917 168.613C180.781 168.334 180.712 168.029 180.712 167.697ZM181.804 167.245V167.697C181.804 167.917 181.857 168.119 181.963 168.303C182.069 168.487 182.256 168.579 182.523 168.579C182.794 168.579 182.979 168.489 183.079 168.307C183.183 168.123 183.234 167.92 183.234 167.697V167.245C183.234 167.022 183.185 166.819 183.088 166.635C182.99 166.448 182.802 166.355 182.523 166.355C182.261 166.355 182.076 166.448 181.967 166.635C181.858 166.819 181.804 167.022 181.804 167.245ZM176.359 162.796V162.344C176.359 162.01 176.43 161.703 176.572 161.424C176.715 161.145 176.921 160.922 177.191 160.755C177.462 160.585 177.789 160.5 178.174 160.5C178.567 160.5 178.898 160.585 179.165 160.755C179.436 160.922 179.639 161.145 179.776 161.424C179.912 161.703 179.981 162.01 179.981 162.344V162.796C179.981 163.13 179.911 163.437 179.772 163.716C179.635 163.992 179.431 164.213 179.161 164.381C178.891 164.548 178.562 164.632 178.174 164.632C177.781 164.632 177.449 164.548 177.179 164.381C176.911 164.213 176.708 163.99 176.568 163.712C176.429 163.433 176.359 163.128 176.359 162.796ZM177.459 162.344V162.796C177.459 163.019 177.511 163.222 177.614 163.406C177.72 163.588 177.906 163.678 178.174 163.678C178.442 163.678 178.626 163.588 178.726 163.406C178.829 163.222 178.881 163.019 178.881 162.796V162.344C178.881 162.121 178.832 161.918 178.734 161.734C178.637 161.547 178.45 161.453 178.174 161.453C177.909 161.453 177.724 161.547 177.618 161.734C177.512 161.92 177.459 162.124 177.459 162.344ZM176.836 169.303L182.724 160.738H183.769L177.881 169.303H176.836Z" fill="#374144"/>
      <path d="M167.603 184.031H166.566C166.505 183.733 166.398 183.471 166.244 183.245C166.094 183.019 165.91 182.83 165.692 182.676C165.478 182.52 165.239 182.403 164.977 182.325C164.715 182.247 164.442 182.208 164.158 182.208C163.639 182.208 163.169 182.339 162.748 182.601C162.33 182.863 161.997 183.249 161.749 183.76C161.503 184.27 161.381 184.896 161.381 185.637C161.381 186.379 161.503 187.005 161.749 187.515C161.997 188.025 162.33 188.411 162.748 188.673C163.169 188.935 163.639 189.066 164.158 189.066C164.442 189.066 164.715 189.027 164.977 188.949C165.239 188.871 165.478 188.755 165.692 188.602C165.91 188.446 166.094 188.255 166.244 188.029C166.398 187.801 166.505 187.539 166.566 187.243H167.603C167.525 187.681 167.383 188.072 167.177 188.418C166.971 188.764 166.714 189.058 166.407 189.301C166.101 189.54 165.756 189.723 165.374 189.848C164.995 189.974 164.59 190.037 164.158 190.037C163.427 190.037 162.778 189.858 162.209 189.501C161.64 189.144 161.193 188.637 160.866 187.979C160.54 187.321 160.377 186.54 160.377 185.637C160.377 184.734 160.54 183.953 160.866 183.295C161.193 182.637 161.64 182.13 162.209 181.773C162.778 181.416 163.427 181.238 164.158 181.238C164.59 181.238 164.995 181.301 165.374 181.426C165.756 181.552 166.101 181.736 166.407 181.978C166.714 182.218 166.971 182.511 167.177 182.856C167.383 183.199 167.525 183.591 167.603 184.031ZM171.755 190.053C171.175 190.053 170.666 189.915 170.229 189.639C169.794 189.363 169.454 188.977 169.208 188.481C168.966 187.985 168.844 187.405 168.844 186.741C168.844 186.072 168.966 185.488 169.208 184.989C169.454 184.49 169.794 184.102 170.229 183.826C170.666 183.55 171.175 183.412 171.755 183.412C172.335 183.412 172.842 183.55 173.277 183.826C173.715 184.102 174.055 184.49 174.298 184.989C174.543 185.488 174.666 186.072 174.666 186.741C174.666 187.405 174.543 187.985 174.298 188.481C174.055 188.977 173.715 189.363 173.277 189.639C172.842 189.915 172.335 190.053 171.755 190.053ZM171.755 189.167C172.195 189.167 172.558 189.054 172.842 188.828C173.127 188.602 173.337 188.305 173.474 187.937C173.61 187.569 173.679 187.171 173.679 186.741C173.679 186.312 173.61 185.912 173.474 185.541C173.337 185.17 173.127 184.871 172.842 184.642C172.558 184.413 172.195 184.299 171.755 184.299C171.314 184.299 170.952 184.413 170.668 184.642C170.383 184.871 170.173 185.17 170.036 185.541C169.9 185.912 169.831 186.312 169.831 186.741C169.831 187.171 169.9 187.569 170.036 187.937C170.173 188.305 170.383 188.602 170.668 188.828C170.952 189.054 171.314 189.167 171.755 189.167ZM177.159 186.055V189.919H176.172V183.496H177.126V184.5H177.209C177.36 184.174 177.588 183.911 177.895 183.714C178.202 183.513 178.598 183.412 179.083 183.412C179.518 183.412 179.898 183.502 180.224 183.68C180.55 183.856 180.804 184.123 180.985 184.483C181.167 184.84 181.257 185.291 181.257 185.838V189.919H180.27V185.905C180.27 185.4 180.139 185.007 179.877 184.726C179.615 184.441 179.255 184.299 178.798 184.299C178.483 184.299 178.202 184.367 177.954 184.504C177.708 184.641 177.514 184.84 177.372 185.102C177.23 185.364 177.159 185.682 177.159 186.055ZM188.083 183.496L185.708 189.919H184.704L182.329 183.496H183.399L185.172 188.615H185.239L187.012 183.496H188.083ZM191.849 190.053C191.23 190.053 190.696 189.917 190.247 189.643C189.801 189.367 189.457 188.983 189.214 188.489C188.974 187.993 188.855 187.416 188.855 186.758C188.855 186.1 188.974 185.52 189.214 185.018C189.457 184.514 189.794 184.121 190.226 183.839C190.661 183.555 191.169 183.412 191.748 183.412C192.083 183.412 192.413 183.468 192.74 183.58C193.066 183.691 193.363 183.872 193.63 184.123C193.898 184.371 194.111 184.7 194.27 185.11C194.429 185.52 194.508 186.025 194.508 186.624V187.042H189.557V186.189H193.505C193.505 185.827 193.432 185.503 193.287 185.219C193.145 184.935 192.942 184.71 192.677 184.546C192.415 184.381 192.105 184.299 191.748 184.299C191.355 184.299 191.015 184.397 190.728 184.592C190.444 184.784 190.225 185.035 190.072 185.344C189.918 185.654 189.842 185.986 189.842 186.34V186.908C189.842 187.394 189.925 187.805 190.092 188.142C190.262 188.477 190.498 188.732 190.799 188.907C191.1 189.08 191.45 189.167 191.849 189.167C192.108 189.167 192.342 189.13 192.551 189.058C192.763 188.983 192.946 188.871 193.099 188.723C193.253 188.573 193.371 188.386 193.455 188.163L194.408 188.431C194.308 188.754 194.139 189.038 193.902 189.284C193.665 189.526 193.372 189.716 193.024 189.853C192.675 189.986 192.284 190.053 191.849 190.053ZM196.01 189.919V183.496H196.963V184.466H197.03C197.147 184.148 197.359 183.891 197.666 183.693C197.972 183.495 198.318 183.396 198.703 183.396C198.775 183.396 198.866 183.397 198.975 183.4C199.083 183.403 199.166 183.407 199.221 183.412V184.416C199.188 184.408 199.111 184.395 198.991 184.378C198.874 184.359 198.75 184.349 198.619 184.349C198.307 184.349 198.028 184.415 197.783 184.546C197.54 184.674 197.348 184.852 197.206 185.081C197.066 185.307 196.997 185.565 196.997 185.855V189.919H196.01ZM204.941 184.935L204.055 185.186C203.999 185.038 203.917 184.894 203.808 184.755C203.702 184.613 203.557 184.496 203.373 184.404C203.189 184.312 202.953 184.266 202.666 184.266C202.273 184.266 201.946 184.356 201.684 184.537C201.424 184.716 201.295 184.943 201.295 185.219C201.295 185.464 201.384 185.658 201.562 185.8C201.741 185.942 202.019 186.061 202.399 186.156L203.352 186.39C203.926 186.529 204.354 186.743 204.636 187.03C204.918 187.314 205.058 187.681 205.058 188.13C205.058 188.498 204.952 188.827 204.74 189.117C204.531 189.406 204.239 189.635 203.862 189.802C203.486 189.97 203.048 190.053 202.549 190.053C201.894 190.053 201.352 189.911 200.922 189.627C200.493 189.342 200.221 188.927 200.107 188.381L201.044 188.146C201.133 188.492 201.302 188.751 201.55 188.924C201.801 189.097 202.128 189.183 202.532 189.183C202.992 189.183 203.358 189.086 203.628 188.891C203.901 188.693 204.038 188.456 204.038 188.18C204.038 187.957 203.96 187.77 203.804 187.619C203.648 187.466 203.408 187.352 203.084 187.276L202.014 187.026C201.426 186.886 200.994 186.67 200.718 186.377C200.444 186.082 200.308 185.712 200.308 185.269C200.308 184.907 200.409 184.586 200.613 184.307C200.819 184.029 201.099 183.81 201.454 183.651C201.81 183.492 202.215 183.412 202.666 183.412C203.302 183.412 203.801 183.552 204.163 183.831C204.529 184.109 204.788 184.477 204.941 184.935ZM206.544 189.919V183.496H207.531V189.919H206.544ZM207.046 182.426C206.853 182.426 206.687 182.36 206.548 182.229C206.411 182.098 206.343 181.94 206.343 181.756C206.343 181.572 206.411 181.415 206.548 181.284C206.687 181.153 206.853 181.087 207.046 181.087C207.238 181.087 207.403 181.153 207.539 181.284C207.679 181.415 207.748 181.572 207.748 181.756C207.748 181.94 207.679 182.098 207.539 182.229C207.403 182.36 207.238 182.426 207.046 182.426ZM211.948 190.053C211.368 190.053 210.859 189.915 210.422 189.639C209.987 189.363 209.647 188.977 209.401 188.481C209.159 187.985 209.037 187.405 209.037 186.741C209.037 186.072 209.159 185.488 209.401 184.989C209.647 184.49 209.987 184.102 210.422 183.826C210.859 183.55 211.368 183.412 211.948 183.412C212.528 183.412 213.035 183.55 213.47 183.826C213.908 184.102 214.248 184.49 214.491 184.989C214.736 185.488 214.859 186.072 214.859 186.741C214.859 187.405 214.736 187.985 214.491 188.481C214.248 188.977 213.908 189.363 213.47 189.639C213.035 189.915 212.528 190.053 211.948 190.053ZM211.948 189.167C212.388 189.167 212.751 189.054 213.035 188.828C213.32 188.602 213.53 188.305 213.667 187.937C213.803 187.569 213.872 187.171 213.872 186.741C213.872 186.312 213.803 185.912 213.667 185.541C213.53 185.17 213.32 184.871 213.035 184.642C212.751 184.413 212.388 184.299 211.948 184.299C211.507 184.299 211.145 184.413 210.861 184.642C210.576 184.871 210.366 185.17 210.229 185.541C210.093 185.912 210.024 186.312 210.024 186.741C210.024 187.171 210.093 187.569 210.229 187.937C210.366 188.305 210.576 188.602 210.861 188.828C211.145 189.054 211.507 189.167 211.948 189.167ZM217.352 186.055V189.919H216.365V183.496H217.318V184.5H217.402C217.553 184.174 217.781 183.911 218.088 183.714C218.395 183.513 218.791 183.412 219.276 183.412C219.711 183.412 220.091 183.502 220.417 183.68C220.743 183.856 220.997 184.123 221.178 184.483C221.36 184.84 221.45 185.291 221.45 185.838V189.919H220.463V185.905C220.463 185.4 220.332 185.007 220.07 184.726C219.808 184.441 219.448 184.299 218.991 184.299C218.676 184.299 218.395 184.367 218.146 184.504C217.901 184.641 217.707 184.84 217.565 185.102C217.423 185.364 217.352 185.682 217.352 186.055ZM160.578 207.919V201.496H161.531V202.466H161.598C161.715 202.148 161.927 201.891 162.234 201.693C162.541 201.495 162.886 201.396 163.271 201.396C163.343 201.396 163.434 201.397 163.543 201.4C163.652 201.403 163.734 201.407 163.79 201.412V202.416C163.756 202.408 163.679 202.395 163.56 202.378C163.442 202.359 163.318 202.349 163.187 202.349C162.875 202.349 162.596 202.415 162.351 202.546C162.108 202.674 161.916 202.852 161.774 203.081C161.634 203.307 161.565 203.565 161.565 203.855V207.919H160.578ZM166.85 208.07C166.443 208.07 166.073 207.993 165.741 207.84C165.41 207.684 165.146 207.459 164.951 207.167C164.756 206.871 164.658 206.514 164.658 206.096C164.658 205.728 164.731 205.43 164.876 205.201C165.021 204.97 165.214 204.789 165.457 204.658C165.7 204.527 165.967 204.429 166.26 204.365C166.555 204.298 166.852 204.245 167.151 204.206C167.541 204.156 167.857 204.118 168.1 204.093C168.345 204.065 168.524 204.019 168.635 203.955C168.75 203.891 168.807 203.779 168.807 203.62V203.587C168.807 203.174 168.694 202.854 168.468 202.625C168.245 202.397 167.906 202.282 167.452 202.282C166.981 202.282 166.611 202.385 166.344 202.592C166.076 202.798 165.888 203.018 165.779 203.252L164.842 202.918C165.01 202.528 165.233 202.224 165.511 202.006C165.793 201.786 166.1 201.633 166.431 201.546C166.766 201.457 167.095 201.412 167.418 201.412C167.625 201.412 167.862 201.438 168.129 201.488C168.4 201.535 168.66 201.634 168.911 201.785C169.165 201.935 169.375 202.162 169.543 202.466C169.71 202.77 169.794 203.177 169.794 203.687V207.919H168.807V207.05H168.757C168.69 207.189 168.578 207.338 168.422 207.497C168.266 207.656 168.058 207.791 167.799 207.903C167.54 208.014 167.223 208.07 166.85 208.07ZM167 207.183C167.39 207.183 167.719 207.107 167.987 206.953C168.257 206.8 168.461 206.602 168.598 206.36C168.737 206.117 168.807 205.862 168.807 205.594V204.691C168.765 204.741 168.673 204.787 168.531 204.829C168.391 204.868 168.23 204.903 168.046 204.934C167.864 204.961 167.687 204.987 167.515 205.009C167.344 205.028 167.206 205.045 167.101 205.059C166.844 205.092 166.604 205.147 166.381 205.222C166.161 205.295 165.983 205.405 165.846 205.552C165.712 205.697 165.645 205.895 165.645 206.146C165.645 206.489 165.772 206.749 166.026 206.924C166.282 207.097 166.607 207.183 167 207.183ZM174.388 201.496V202.332H171.06V201.496H174.388ZM172.03 199.957H173.017V206.079C173.017 206.358 173.057 206.567 173.138 206.707C173.222 206.843 173.328 206.935 173.456 206.983C173.587 207.027 173.725 207.05 173.87 207.05C173.979 207.05 174.068 207.044 174.138 207.033C174.207 207.019 174.263 207.008 174.305 206.999L174.506 207.886C174.439 207.911 174.345 207.936 174.225 207.961C174.105 207.989 173.954 208.003 173.77 208.003C173.491 208.003 173.218 207.943 172.95 207.823C172.685 207.703 172.465 207.521 172.289 207.275C172.116 207.03 172.03 206.721 172.03 206.347V199.957ZM178.497 208.053C177.878 208.053 177.344 207.917 176.895 207.643C176.449 207.367 176.105 206.983 175.863 206.489C175.623 205.993 175.503 205.416 175.503 204.758C175.503 204.1 175.623 203.52 175.863 203.018C176.105 202.514 176.442 202.121 176.875 201.839C177.31 201.555 177.817 201.412 178.397 201.412C178.731 201.412 179.062 201.468 179.388 201.58C179.714 201.691 180.011 201.872 180.279 202.123C180.546 202.371 180.76 202.7 180.918 203.11C181.077 203.52 181.157 204.025 181.157 204.624V205.042H176.205V204.189H180.153C180.153 203.827 180.081 203.503 179.936 203.219C179.794 202.935 179.59 202.71 179.325 202.546C179.063 202.381 178.754 202.299 178.397 202.299C178.004 202.299 177.664 202.397 177.376 202.592C177.092 202.784 176.873 203.035 176.72 203.344C176.567 203.654 176.49 203.986 176.49 204.34V204.908C176.49 205.394 176.573 205.805 176.741 206.142C176.911 206.477 177.146 206.732 177.448 206.907C177.749 207.08 178.098 207.167 178.497 207.167C178.756 207.167 178.991 207.13 179.2 207.058C179.412 206.983 179.594 206.871 179.748 206.723C179.901 206.573 180.019 206.386 180.103 206.163L181.056 206.431C180.956 206.754 180.787 207.038 180.55 207.284C180.313 207.526 180.021 207.716 179.672 207.853C179.324 207.986 178.932 208.053 178.497 208.053Z" fill="#B1B1B1"/>
      <path fill-rule="evenodd" clip-rule="evenodd" d="M147.167 192.788L161.03 197.182C162.008 197.474 162.726 198.31 162.866 199.321C163.006 200.332 162.543 201.332 161.682 201.879L156.848 204.909C156.529 205.108 156.259 205.377 156.061 205.697L153.03 210.53C152.574 211.271 151.764 211.719 150.894 211.712C149.732 211.72 148.7 210.971 148.348 209.864L143.955 196C143.667 195.089 143.911 194.095 144.586 193.419C145.261 192.744 146.256 192.501 147.167 192.788ZM155.561 202.818L160.394 199.788C160.445 199.74 160.451 199.662 160.409 199.606C160.394 199.5 160.288 199.5 160.288 199.5L146.424 195.106V195.197L150.818 209.061C150.834 209.155 150.92 209.221 151.015 209.212L154.045 204.333C154.438 203.727 154.954 203.21 155.561 202.818Z" fill="#212121"/>
      <path d="M138.303 185.621C137.872 185.236 137.219 185.236 136.788 185.621C136.415 186.058 136.415 186.7 136.788 187.137L139.818 190.318C140.034 190.526 140.321 190.645 140.621 190.652C140.922 190.648 141.209 190.529 141.424 190.318C141.666 190.112 141.809 189.813 141.818 189.495C141.827 189.177 141.7 188.871 141.47 188.652L138.303 185.621Z" fill="#212121"/>
      <path d="M144.773 188.652C145.074 188.644 145.36 188.516 145.567 188.297C145.775 188.079 145.887 187.786 145.879 187.485V183.076C145.879 182.448 145.37 181.939 144.742 181.939C144.115 181.939 143.606 182.448 143.606 183.076V187.485C143.597 187.797 143.718 188.099 143.938 188.319C144.159 188.54 144.461 188.66 144.773 188.652Z" fill="#212121"/>
      <path d="M149 188.56C149.301 188.562 149.591 188.442 149.803 188.227L152.924 185.106C153.228 184.823 153.353 184.396 153.25 183.993C153.148 183.591 152.833 183.276 152.431 183.174C152.028 183.071 151.601 183.196 151.318 183.5L148.197 186.621C147.754 187.065 147.754 187.784 148.197 188.227C148.409 188.442 148.698 188.562 149 188.56Z" fill="#212121"/>
      <path d="M137.788 197.03L134.667 200.151C134.223 200.595 134.223 201.314 134.667 201.757C134.878 201.974 135.168 202.094 135.47 202.091C135.771 202.092 136.061 201.972 136.273 201.757L139.394 198.636C139.698 198.353 139.823 197.926 139.72 197.524C139.617 197.121 139.303 196.807 138.9 196.704C138.498 196.601 138.071 196.726 137.788 197.03Z" fill="#212121"/>
      <path d="M138.591 192.53H134.167C133.539 192.53 133.03 193.039 133.03 193.667C133.03 194.294 133.539 194.803 134.167 194.803H138.591C139.218 194.803 139.727 194.294 139.727 193.667C139.727 193.039 139.218 192.53 138.591 192.53Z" fill="#212121"/>
      <path d="M58.7128 234.841V224.135H59.3986V234.841H58.7128ZM60.6908 227.56C60.6518 227.195 60.4873 226.911 60.1973 226.707C59.9102 226.504 59.5366 226.402 59.0766 226.402C58.7532 226.402 58.4758 226.451 58.2444 226.548C58.013 226.646 57.836 226.778 57.7133 226.946C57.5906 227.113 57.5279 227.304 57.5251 227.519C57.5251 227.697 57.5656 227.852 57.6464 227.983C57.73 228.114 57.843 228.225 57.9851 228.317C58.1273 228.407 58.2848 228.482 58.4577 228.543C58.6305 228.605 58.8048 228.656 58.9804 228.698L59.7833 228.899C60.1067 228.974 60.4176 229.076 60.7159 229.204C61.017 229.332 61.286 229.494 61.523 229.689C61.7628 229.884 61.9523 230.12 62.0917 230.396C62.2311 230.672 62.3008 230.995 62.3008 231.366C62.3008 231.868 62.1726 232.31 61.9161 232.692C61.6596 233.071 61.2888 233.368 60.8037 233.582C60.3214 233.794 59.7373 233.9 59.0515 233.9C58.3852 233.9 57.8067 233.797 57.316 233.591C56.8282 233.384 56.4462 233.083 56.1702 232.687C55.897 232.292 55.7492 231.809 55.7269 231.24H57.2533C57.2756 231.539 57.3676 231.787 57.5293 231.985C57.691 232.183 57.9015 232.331 58.1608 232.428C58.4228 232.526 58.7156 232.574 59.039 232.574C59.3763 232.574 59.6718 232.524 59.9255 232.424C60.182 232.321 60.3827 232.179 60.5277 231.997C60.6727 231.813 60.7466 231.599 60.7494 231.353C60.7466 231.13 60.6811 230.946 60.5528 230.801C60.4246 230.654 60.2447 230.531 60.0133 230.433C59.7847 230.333 59.5171 230.244 59.2104 230.166L58.2361 229.915C57.5307 229.734 56.9731 229.459 56.5633 229.091C56.1563 228.72 55.9528 228.228 55.9528 227.615C55.9528 227.11 56.0894 226.668 56.3626 226.289C56.6386 225.91 57.0136 225.616 57.4875 225.407C57.9614 225.195 58.4981 225.089 59.0975 225.089C59.7053 225.089 60.2378 225.195 60.695 225.407C61.155 225.616 61.516 225.907 61.7781 226.281C62.0402 226.652 62.1754 227.078 62.1837 227.56H60.6908ZM66.5737 225.089C66.9835 225.092 67.3821 225.164 67.7697 225.306C68.16 225.446 68.5113 225.674 68.8235 225.992C69.1357 226.307 69.3839 226.73 69.5679 227.259C69.7519 227.789 69.8439 228.444 69.8439 229.225C69.8467 229.961 69.7686 230.619 69.6097 231.199C69.4536 231.776 69.2291 232.264 68.9364 232.662C68.6437 233.061 68.291 233.365 67.8784 233.574C67.4658 233.783 67.0016 233.888 66.4858 233.888C65.945 233.888 65.4655 233.782 65.0473 233.57C64.6319 233.358 64.2959 233.068 64.0394 232.7C63.783 232.332 63.6254 231.911 63.5669 231.437H65.0933C65.1713 231.777 65.3302 232.048 65.57 232.248C65.8126 232.446 66.1178 232.545 66.4858 232.545C67.0797 232.545 67.5369 232.287 67.8575 231.772C68.1781 231.256 68.3384 230.539 68.3384 229.622H68.2799C68.1432 229.867 67.9662 230.079 67.7488 230.258C67.5313 230.433 67.2846 230.569 67.0086 230.663C66.7354 230.758 66.4454 230.806 66.1387 230.806C65.6369 230.806 65.1853 230.686 64.7838 230.446C64.3851 230.206 64.0687 229.877 63.8345 229.459C63.6031 229.041 63.486 228.563 63.4833 228.025C63.4833 227.467 63.6115 226.967 63.868 226.523C64.1273 226.077 64.4883 225.726 64.9511 225.469C65.4139 225.21 65.9547 225.083 66.5737 225.089ZM66.5778 226.344C66.2767 226.344 66.0049 226.417 65.7624 226.565C65.5226 226.71 65.333 226.908 65.1936 227.159C65.057 227.407 64.9887 227.684 64.9887 227.991C64.9915 228.295 65.0598 228.571 65.1936 228.819C65.3302 229.067 65.5156 229.264 65.7498 229.409C65.9868 229.554 66.2572 229.626 66.5611 229.626C66.7869 229.626 66.9974 229.583 67.1926 229.497C67.3877 229.41 67.5578 229.29 67.7028 229.137C67.8505 228.981 67.9648 228.804 68.0457 228.606C68.1293 228.408 68.1697 228.199 68.1669 227.979C68.1669 227.686 68.0972 227.415 67.9579 227.167C67.8212 226.919 67.6331 226.72 67.3933 226.569C67.1563 226.419 66.8845 226.344 66.5778 226.344ZM74.4021 233.934C73.7135 233.934 73.1225 233.759 72.629 233.411C72.1383 233.06 71.7606 232.554 71.4957 231.893C71.2336 231.229 71.1026 230.431 71.1026 229.497C71.1054 228.563 71.2378 227.768 71.4999 227.113C71.7647 226.455 72.1425 225.953 72.6332 225.607C73.1266 225.262 73.7163 225.089 74.4021 225.089C75.0879 225.089 75.6776 225.262 76.171 225.607C76.6645 225.953 77.0423 226.455 77.3043 227.113C77.5692 227.771 77.7016 228.565 77.7016 229.497C77.7016 230.433 77.5692 231.234 77.3043 231.897C77.0423 232.558 76.6645 233.062 76.171 233.411C75.6804 233.759 75.0907 233.934 74.4021 233.934ZM74.4021 232.625C74.9374 232.625 75.3598 232.361 75.6692 231.834C75.9815 231.305 76.1376 230.525 76.1376 229.497C76.1376 228.816 76.0665 228.245 75.9243 227.782C75.7821 227.319 75.5814 226.971 75.3221 226.737C75.0628 226.5 74.7562 226.381 74.4021 226.381C73.8696 226.381 73.4486 226.646 73.1392 227.176C72.8297 227.703 72.6736 228.476 72.6708 229.497C72.668 230.18 72.7363 230.754 72.8757 231.22C73.0179 231.685 73.2186 232.036 73.4779 232.273C73.7372 232.508 74.0453 232.625 74.4021 232.625ZM82.2567 233.934C81.5681 233.934 80.9771 233.759 80.4836 233.411C79.9929 233.06 79.6152 232.554 79.3503 231.893C79.0882 231.229 78.9572 230.431 78.9572 229.497C78.96 228.563 79.0924 227.768 79.3545 227.113C79.6193 226.455 79.9971 225.953 80.4878 225.607C80.9812 225.262 81.5709 225.089 82.2567 225.089C82.9425 225.089 83.5322 225.262 84.0256 225.607C84.5191 225.953 84.8969 226.455 85.1589 227.113C85.4238 227.771 85.5562 228.565 85.5562 229.497C85.5562 230.433 85.4238 231.234 85.1589 231.897C84.8969 232.558 84.5191 233.062 84.0256 233.411C83.535 233.759 82.9453 233.934 82.2567 233.934ZM82.2567 232.625C82.792 232.625 83.2144 232.361 83.5238 231.834C83.8361 231.305 83.9922 230.525 83.9922 229.497C83.9922 228.816 83.9211 228.245 83.7789 227.782C83.6367 227.319 83.436 226.971 83.1767 226.737C82.9174 226.5 82.6108 226.381 82.2567 226.381C81.7242 226.381 81.3032 226.646 80.9938 227.176C80.6843 227.703 80.5282 228.476 80.5254 229.497C80.5226 230.18 80.5909 230.754 80.7303 231.22C80.8725 231.685 81.0732 232.036 81.3325 232.273C81.5918 232.508 81.8999 232.625 82.2567 232.625Z" fill="#374144"/>
      <path d="M56.2288 254.387V245.823H59.1226C59.7917 245.823 60.3409 245.937 60.7703 246.166C61.1996 246.391 61.5174 246.702 61.7237 247.098C61.93 247.494 62.0332 247.944 62.0332 248.449C62.0332 248.954 61.93 249.401 61.7237 249.791C61.5174 250.182 61.201 250.488 60.7744 250.711C60.3479 250.932 59.8029 251.042 59.1393 251.042H56.7975V250.105H59.1059C59.5631 250.105 59.9311 250.038 60.2099 249.904C60.4915 249.77 60.695 249.581 60.8204 249.336C60.9487 249.087 61.0128 248.792 61.0128 248.449C61.0128 248.106 60.9487 247.806 60.8204 247.55C60.6922 247.293 60.4873 247.095 60.2057 246.956C59.9241 246.814 59.5519 246.743 59.0892 246.743H57.2659V254.387H56.2288ZM60.2601 250.54L62.3677 254.387H61.1634L59.0892 250.54H60.2601ZM66.2516 254.521C65.6327 254.521 65.0988 254.384 64.65 254.111C64.2039 253.835 63.8596 253.45 63.6171 252.957C63.3773 252.461 63.2574 251.884 63.2574 251.226C63.2574 250.568 63.3773 249.988 63.6171 249.486C63.8596 248.981 64.197 248.588 64.6291 248.307C65.064 248.022 65.5714 247.88 66.1513 247.88C66.4858 247.88 66.8162 247.936 67.1424 248.047C67.4686 248.159 67.7655 248.34 68.0331 248.591C68.3008 248.839 68.514 249.168 68.673 249.578C68.8319 249.988 68.9113 250.492 68.9113 251.092V251.51H63.96V250.657H67.9077C67.9077 250.295 67.8352 249.971 67.6902 249.687C67.548 249.402 67.3445 249.178 67.0797 249.014C66.8176 248.849 66.5081 248.767 66.1513 248.767C65.7582 248.767 65.4181 248.864 65.1309 249.06C64.8465 249.252 64.6277 249.503 64.4744 249.812C64.321 250.122 64.2444 250.453 64.2444 250.808V251.376C64.2444 251.861 64.328 252.273 64.4953 252.61C64.6653 252.944 64.9009 253.2 65.202 253.375C65.5031 253.548 65.853 253.634 66.2516 253.634C66.5109 253.634 66.7451 253.598 66.9542 253.526C67.1661 253.45 67.3487 253.339 67.502 253.191C67.6554 253.041 67.7738 252.854 67.8575 252.631L68.811 252.898C68.7106 253.222 68.5419 253.506 68.3049 253.752C68.068 253.994 67.7752 254.184 67.4268 254.32C67.0783 254.454 66.6866 254.521 66.2516 254.521ZM75.4695 247.964L73.0942 254.387H72.0906L69.7153 247.964H70.7858L72.559 253.082H72.6259L74.399 247.964H75.4695ZM79.2353 254.521C78.6164 254.521 78.0825 254.384 77.6337 254.111C77.1876 253.835 76.8433 253.45 76.6007 252.957C76.361 252.461 76.2411 251.884 76.2411 251.226C76.2411 250.568 76.361 249.988 76.6007 249.486C76.8433 248.981 77.1806 248.588 77.6127 248.307C78.0477 248.022 78.5551 247.88 79.1349 247.88C79.4695 247.88 79.7999 247.936 80.126 248.047C80.4522 248.159 80.7491 248.34 81.0168 248.591C81.2844 248.839 81.4977 249.168 81.6566 249.578C81.8155 249.988 81.895 250.492 81.895 251.092V251.51H76.9436V250.657H80.8913C80.8913 250.295 80.8188 249.971 80.6739 249.687C80.5317 249.402 80.3282 249.178 80.0633 249.014C79.8013 248.849 79.4918 248.767 79.1349 248.767C78.7418 248.767 78.4017 248.864 78.1146 249.06C77.8302 249.252 77.6113 249.503 77.458 249.812C77.3047 250.122 77.228 250.453 77.228 250.808V251.376C77.228 251.861 77.3116 252.273 77.4789 252.61C77.649 252.944 77.8846 253.2 78.1857 253.375C78.4868 253.548 78.8366 253.634 79.2353 253.634C79.4946 253.634 79.7288 253.598 79.9379 253.526C80.1497 253.45 80.3323 253.339 80.4857 253.191C80.639 253.041 80.7575 252.854 80.8411 252.631L81.7946 252.898C81.6942 253.222 81.5256 253.506 81.2886 253.752C81.0516 253.994 80.7589 254.184 80.4104 254.32C80.0619 254.454 79.6702 254.521 79.2353 254.521ZM84.3832 250.523V254.387H83.3963V247.964H84.3497V248.968H84.4334C84.5839 248.641 84.8125 248.379 85.1192 248.181C85.4259 247.981 85.8217 247.88 86.3068 247.88C86.7418 247.88 87.1223 247.969 87.4485 248.148C87.7747 248.323 88.0284 248.591 88.2096 248.951C88.3908 249.308 88.4814 249.759 88.4814 250.306V254.387H87.4945V250.373C87.4945 249.868 87.3635 249.475 87.1014 249.193C86.8393 248.909 86.4797 248.767 86.0225 248.767C85.7074 248.767 85.4259 248.835 85.1777 248.972C84.9324 249.108 84.7386 249.308 84.5965 249.57C84.4543 249.832 84.3832 250.15 84.3832 250.523ZM94.3329 251.761V247.964H95.3198V254.387H94.3329V253.3H94.266C94.1154 253.626 93.8813 253.904 93.5634 254.132C93.2456 254.358 92.8442 254.471 92.3591 254.471C91.9576 254.471 91.6007 254.383 91.2885 254.207C90.9763 254.029 90.7309 253.761 90.5525 253.404C90.3741 253.045 90.2848 252.592 90.2848 252.045V247.964H91.2718V251.978C91.2718 252.447 91.4028 252.82 91.6649 253.099C91.9297 253.378 92.2671 253.517 92.6769 253.517C92.9222 253.517 93.1717 253.455 93.4254 253.329C93.6819 253.204 93.8966 253.011 94.0694 252.752C94.2451 252.493 94.3329 252.162 94.3329 251.761ZM99.8206 254.521C99.2016 254.521 98.6678 254.384 98.2189 254.111C97.7728 253.835 97.4285 253.45 97.186 252.957C96.9462 252.461 96.8263 251.884 96.8263 251.226C96.8263 250.568 96.9462 249.988 97.186 249.486C97.4285 248.981 97.7659 248.588 98.198 248.307C98.6329 248.022 99.1403 247.88 99.7202 247.88C100.055 247.88 100.385 247.936 100.711 248.047C101.037 248.159 101.334 248.34 101.602 248.591C101.87 248.839 102.083 249.168 102.242 249.578C102.401 249.988 102.48 250.492 102.48 251.092V251.51H97.5289V250.657H101.477C101.477 250.295 101.404 249.971 101.259 249.687C101.117 249.402 100.913 249.178 100.649 249.014C100.387 248.849 100.077 248.767 99.7202 248.767C99.3271 248.767 98.987 248.864 98.6998 249.06C98.4154 249.252 98.1966 249.503 98.0433 249.812C97.8899 250.122 97.8133 250.453 97.8133 250.808V251.376C97.8133 251.861 97.8969 252.273 98.0642 252.61C98.2342 252.944 98.4698 253.2 98.7709 253.375C99.072 253.548 99.4219 253.634 99.8206 253.634C100.08 253.634 100.314 253.598 100.523 253.526C100.735 253.45 100.918 253.339 101.071 253.191C101.224 253.041 101.343 252.854 101.426 252.631L102.38 252.898C102.279 253.222 102.111 253.506 101.874 253.752C101.637 253.994 101.344 254.184 100.996 254.32C100.647 254.454 100.255 254.521 99.8206 254.521Z" fill="#B1B1B1"/>
      <path d="M162.814 233.888C162.256 233.888 161.757 233.783 161.316 233.574C160.876 233.362 160.526 233.072 160.267 232.704C160.01 232.336 159.874 231.915 159.857 231.441H161.362C161.39 231.792 161.542 232.08 161.818 232.303C162.094 232.523 162.426 232.633 162.814 232.633C163.117 232.633 163.388 232.563 163.625 232.424C163.862 232.285 164.049 232.091 164.185 231.843C164.322 231.595 164.389 231.312 164.386 230.994C164.389 230.67 164.32 230.383 164.181 230.132C164.042 229.881 163.851 229.685 163.608 229.543C163.366 229.398 163.087 229.325 162.772 229.325C162.515 229.322 162.263 229.37 162.015 229.467C161.767 229.565 161.57 229.693 161.425 229.852L160.024 229.622L160.472 225.206H165.44V226.502H161.756L161.509 228.773H161.559C161.718 228.586 161.942 228.432 162.232 228.309C162.522 228.184 162.84 228.121 163.186 228.121C163.704 228.121 164.167 228.243 164.574 228.489C164.981 228.731 165.302 229.066 165.536 229.492C165.77 229.919 165.887 230.407 165.887 230.956C165.887 231.522 165.756 232.027 165.494 232.47C165.235 232.91 164.874 233.258 164.411 233.511C163.951 233.762 163.419 233.888 162.814 233.888ZM167.602 233.771L171.244 226.561V226.502H167.016V225.206H172.85V226.532L169.212 233.771H167.602Z" fill="#374144"/>
      <path d="M160.463 254.387H159.376L162.521 245.823H163.591L166.736 254.387H165.649L163.09 247.178H163.023L160.463 254.387ZM160.865 251.042H165.247V251.962H160.865V251.042ZM174.894 250.105C174.894 251.008 174.731 251.789 174.405 252.447C174.078 253.105 173.631 253.612 173.062 253.969C172.494 254.326 171.844 254.504 171.114 254.504C170.383 254.504 169.733 254.326 169.165 253.969C168.596 253.612 168.149 253.105 167.822 252.447C167.496 251.789 167.333 251.008 167.333 250.105C167.333 249.202 167.496 248.421 167.822 247.763C168.149 247.105 168.596 246.598 169.165 246.241C169.733 245.884 170.383 245.706 171.114 245.706C171.844 245.706 172.494 245.884 173.062 246.241C173.631 246.598 174.078 247.105 174.405 247.763C174.731 248.421 174.894 249.202 174.894 250.105ZM173.89 250.105C173.89 249.363 173.766 248.738 173.518 248.227C173.273 247.717 172.94 247.331 172.519 247.069C172.1 246.807 171.632 246.676 171.114 246.676C170.595 246.676 170.125 246.807 169.704 247.069C169.286 247.331 168.953 247.717 168.705 248.227C168.459 248.738 168.337 249.363 168.337 250.105C168.337 250.847 168.459 251.472 168.705 251.983C168.953 252.493 169.286 252.879 169.704 253.141C170.125 253.403 170.595 253.534 171.114 253.534C171.632 253.534 172.1 253.403 172.519 253.141C172.94 252.879 173.273 252.493 173.518 251.983C173.766 251.472 173.89 250.847 173.89 250.105ZM176.587 245.823L179.129 253.032H179.229L181.772 245.823H182.859L179.715 254.387H178.644L175.499 245.823H176.587Z" fill="#B1B1B1"/>
    </g>
  </g>
</svg>