<svg width="184" height="243" viewBox="0 0 184 243" fill="none" xmlns="http://www.w3.org/2000/svg">
<g filter="url(#filter0_d_636_10834)">
<rect x="18.5674" y="70.1914" width="147.324" height="94.5143" rx="2.44724" fill="white"/>
<rect x="18.8121" y="70.4361" width="146.834" height="94.0248" rx="2.20251" stroke="#D9D9D9" stroke-width="0.489447"/>
<rect x="33.251" y="79.9805" width="16.3585" height="16.3585" rx="2.58859" fill="#151515"/>
<g clip-path="url(#clip0_636_10834)">
<rect x="36.064" y="82.7935" width="10.1944" height="10.1944" rx="5.0972" fill="white"/>
<g clip-path="url(#clip1_636_10834)">
<path d="M49.9393 88.4402C49.9393 87.8815 49.4847 87.4268 48.9259 87.4268C48.442 87.4268 48.0365 87.7679 47.9364 88.2222L40.401 86.5482C40.4103 86.3632 40.347 86.1185 40.2291 85.9479C41.1854 85.2168 42.3661 84.8159 43.5745 84.8159C44.4642 84.8159 45.3134 85.0214 46.0984 85.4266C46.8476 85.8133 47.5088 86.3771 48.0107 87.0571C48.0459 87.1047 48.1001 87.1299 48.1551 87.1299C48.192 87.1299 48.2293 87.1185 48.2613 87.0949C48.3409 87.0361 48.3579 86.9239 48.2991 86.8443C47.7647 86.1203 47.0605 85.5199 46.2628 85.1081C45.4382 84.6825 44.5086 84.4575 43.5744 84.4575C42.2732 84.4575 41.0018 84.894 39.9773 85.6893C39.8112 85.5702 39.6079 85.4999 39.3885 85.4999C38.8297 85.4999 38.3751 85.9545 38.3751 86.5133C38.3751 86.7663 38.4685 86.9978 38.6225 87.1756C38.0226 88.1165 37.7061 89.2024 37.7061 90.3259C37.7061 91.4552 38.0257 92.5458 38.6314 93.4899C38.4721 93.669 38.3751 93.9046 38.3751 94.1626C38.3751 94.7214 38.8297 95.176 39.3885 95.176C39.6151 95.176 39.8247 95.1012 39.9937 94.9749C41.0151 95.7622 42.2805 96.1943 43.5745 96.1943C44.8693 96.1943 46.1355 95.7617 47.1574 94.9735C47.3268 95.1006 47.537 95.176 47.7645 95.176C48.3233 95.176 48.7779 94.7214 48.7779 94.1626C48.7779 93.9034 48.68 93.6668 48.5194 93.4874C49.1241 92.5438 49.4431 91.4541 49.4431 90.3259C49.4431 90.0002 49.416 89.6742 49.3628 89.3545C49.7035 89.191 49.9393 88.8427 49.9393 88.4402ZM47.7505 88.548L44.5988 91.9963C44.4357 91.884 44.2383 91.818 44.0257 91.818C43.8285 91.818 43.6444 91.8749 43.4885 91.9727L42.5862 90.3716C42.7873 90.1863 42.9136 89.9209 42.9136 89.6265C42.9136 89.0677 42.459 88.6131 41.9002 88.6131C41.6803 88.6131 41.4768 88.6837 41.3105 88.8031L40.0599 87.2714C40.1746 87.1697 40.2662 87.0424 40.3256 86.8986L47.7505 88.548ZM43.3707 92.8314C43.3707 92.4703 43.6646 92.1764 44.0257 92.1764C44.3869 92.1764 44.6807 92.4703 44.6807 92.8314C44.6807 93.1926 44.3869 93.4864 44.0257 93.4864C43.6645 93.4864 43.3707 93.1926 43.3707 92.8314ZM41.2452 89.6265C41.2452 89.2653 41.5391 88.9715 41.9002 88.9715C42.2614 88.9715 42.5552 89.2653 42.5552 89.6265C42.5552 89.9877 42.2614 90.2815 41.9002 90.2815C41.5391 90.2815 41.2452 89.9877 41.2452 89.6265ZM39.3885 85.8583C39.7497 85.8583 40.0435 86.1521 40.0435 86.5133C40.0435 86.8744 39.7497 87.1683 39.3885 87.1683C39.0273 87.1683 38.7335 86.8744 38.7335 86.5133C38.7335 86.1521 39.0273 85.8583 39.3885 85.8583ZM38.903 87.4025C39.1383 87.5342 39.4637 87.5688 39.7507 87.4595L41.0591 89.0619C40.9504 89.2233 40.8868 89.4176 40.8868 89.6265C40.8868 89.9273 41.0187 90.1977 41.2275 90.3835L39.9895 93.3472C39.8212 93.2229 39.6133 93.1492 39.3885 93.1492C39.2173 93.1492 39.056 93.192 38.9145 93.2672C38.3579 92.3877 38.0645 91.3747 38.0645 90.3259C38.0645 89.2846 38.3539 88.2778 38.903 87.4025ZM38.7335 94.1626C38.7335 93.8014 39.0273 93.5076 39.3885 93.5076C39.7497 93.5076 40.0435 93.8014 40.0435 94.1626C40.0435 94.5237 39.7497 94.8176 39.3885 94.8176C39.0273 94.8176 38.7335 94.5237 38.7335 94.1626ZM40.2395 94.7117C40.3421 94.5534 40.4019 94.3649 40.4019 94.1626C40.4019 94.0332 40.3773 93.9096 40.3329 93.7958L41.7262 93.5733C41.824 93.5577 41.8905 93.4659 41.875 93.3681C41.8593 93.2704 41.7674 93.2039 41.6697 93.2194L40.3428 93.4313L41.5371 90.5723C41.6499 90.6158 41.7723 90.6398 41.9003 90.6398C42.0358 90.6398 42.1652 90.6129 42.2835 90.5644L43.2172 92.2212C43.0888 92.3911 43.0123 92.6025 43.0123 92.8314C43.0123 92.8898 43.0176 92.9469 43.0271 93.0027L42.4967 93.0873C42.399 93.1029 42.3325 93.1948 42.348 93.2926C42.3621 93.3807 42.4383 93.4435 42.5248 93.4435C42.5342 93.4435 42.5437 93.4428 42.5533 93.4412L43.1529 93.3455C43.3295 93.644 43.6545 93.8448 44.0257 93.8448C44.3143 93.8448 44.5749 93.7233 44.7596 93.5291L46.76 94.0307C46.7264 94.2215 46.7881 94.532 46.9123 94.7097C45.9574 95.4369 44.7792 95.8358 43.5745 95.8358C42.3709 95.8359 41.1937 95.4377 40.2395 94.7117ZM47.7645 94.8176C47.4034 94.8176 47.1095 94.5237 47.1095 94.1626C47.1095 93.8014 47.4034 93.5076 47.7645 93.5076C48.1257 93.5076 48.4195 93.8014 48.4195 94.1626C48.4195 94.5237 48.1257 94.8176 47.7645 94.8176ZM49.0847 90.3259C49.0847 91.374 48.7916 92.3866 48.2357 93.2658C48.0948 93.1915 47.9346 93.1492 47.7645 93.1492C47.3769 93.1492 47.0396 93.3681 46.8692 93.6886L44.965 93.2112C45.0127 93.0938 45.0391 92.9657 45.0391 92.8314C45.0391 92.6145 44.9704 92.4135 44.8539 92.2485L47.9869 88.8206C48.1421 89.2084 48.5624 89.4922 49.0149 89.4495C49.061 89.7382 49.0847 90.0321 49.0847 90.3259ZM48.9259 89.0953C48.5648 89.0953 48.2709 88.8014 48.2709 88.4402C48.2709 88.0791 48.5648 87.7852 48.9259 87.7852C49.2871 87.7852 49.5809 88.0791 49.5809 88.4402C49.5809 88.8014 49.2871 89.0953 48.9259 89.0953Z" fill="#151515"/>
</g>
</g>
<path d="M56.1106 92.2878C54.5378 92.2878 53.5708 91.0645 53.5708 89.0374V89.0316C53.5708 86.9986 54.5378 85.787 56.1106 85.787C56.996 85.787 57.695 86.2413 58.0329 86.9986H58.0678V83.754H59.7688V92.1597H58.0678V91.0937H58.0329C57.7009 91.8335 57.0135 92.2878 56.1106 92.2878ZM56.6815 90.8781C57.5086 90.8781 58.0737 90.1675 58.0737 89.0374V89.0316C58.0737 87.9073 57.5028 87.1967 56.6815 87.1967C55.8368 87.1967 55.3009 87.8898 55.3009 89.0316V89.0374C55.3009 90.1733 55.831 90.8781 56.6815 90.8781ZM61.5254 94.2159C61.1934 94.2159 60.8555 94.1752 60.6575 94.1402V92.8762C60.7798 92.8995 60.9778 92.9344 61.2283 92.9344C61.7351 92.9344 62.0147 92.7888 62.1662 92.3635L62.2419 92.1597L60.0342 85.9151H61.904L63.2205 90.7966H63.2671L64.5894 85.9151H66.3836L64.2399 92.2703C63.7506 93.7441 62.9118 94.2159 61.5254 94.2159ZM66.6198 92.1597V85.9151H68.3208V86.9404H68.3557C68.6761 86.2239 69.3169 85.787 70.2605 85.787C71.6353 85.787 72.4158 86.6666 72.4158 88.1287V92.1597H70.7149V88.4782C70.7149 87.6627 70.3304 87.1967 69.5673 87.1967C68.8042 87.1967 68.3208 87.7559 68.3208 88.5714V92.1597H66.6198ZM74.9938 92.2587C73.7414 92.2587 72.8968 91.4723 72.8968 90.3714V90.3597C72.8968 89.2238 73.7763 88.5597 75.3258 88.4607L76.8695 88.3675V87.9831C76.8695 87.4297 76.5083 87.086 75.8443 87.086C75.2093 87.086 74.8249 87.3831 74.7433 87.785L74.7317 87.8374H73.1764L73.1822 87.7675C73.2754 86.6141 74.2657 85.787 75.9142 85.787C77.5277 85.787 78.5704 86.62 78.5704 87.8782V92.1597H76.8695V91.2276H76.8345C76.4792 91.8684 75.8151 92.2587 74.9938 92.2587ZM74.5802 90.284C74.5802 90.7442 74.9588 91.0179 75.5472 91.0179C76.3103 91.0179 76.8695 90.5286 76.8695 89.8762V89.4277L75.5821 89.5092C74.9239 89.55 74.5802 89.8296 74.5802 90.2723V90.284ZM79.3135 92.1597V85.9151H81.0144V86.9637H81.0494C81.3057 86.253 81.9581 85.787 82.7969 85.787C83.6707 85.787 84.3056 86.253 84.5153 87.0743H84.5503C84.8299 86.2879 85.5755 85.787 86.49 85.787C87.7133 85.787 88.5347 86.6316 88.5347 87.8898V92.1597H86.8337V88.3151C86.8337 87.5928 86.4726 87.1967 85.8143 87.1967C85.1677 87.1967 84.7425 87.6685 84.7425 88.3617V92.1597H83.1056V88.2627C83.1056 87.5928 82.727 87.1967 82.0979 87.1967C81.4513 87.1967 81.0144 87.686 81.0144 88.3908V92.1597H79.3135ZM91.1126 92.2587C89.8602 92.2587 89.0156 91.4723 89.0156 90.3714V90.3597C89.0156 89.2238 89.8952 88.5597 91.4447 88.4607L92.9883 88.3675V87.9831C92.9883 87.4297 92.6272 87.086 91.9631 87.086C91.3282 87.086 90.9437 87.3831 90.8621 87.785L90.8505 87.8374H89.2952L89.301 87.7675C89.3942 86.6141 90.3845 85.787 92.033 85.787C93.6466 85.787 94.6893 86.62 94.6893 87.8782V92.1597H92.9883V91.2276H92.9534C92.598 91.8684 91.934 92.2587 91.1126 92.2587ZM90.699 90.284C90.699 90.7442 91.0777 91.0179 91.666 91.0179C92.4291 91.0179 92.9883 90.5286 92.9883 89.8762V89.4277L91.701 89.5092C91.0427 89.55 90.699 89.8296 90.699 90.2723V90.284ZM97.9138 92.2878C96.5274 92.2878 95.875 91.7519 95.875 90.4121V87.1967H95.0071V85.9151H95.875V84.3889H97.5934V85.9151H98.7352V87.1967H97.5934V90.2257C97.5934 90.8082 97.8556 91.0063 98.3682 91.0063C98.5196 91.0063 98.6303 90.9888 98.7352 90.9772V92.2237C98.5429 92.2529 98.2692 92.2878 97.9138 92.2878ZM100.201 85.1113C99.6879 85.1113 99.2918 84.7093 99.2918 84.2258C99.2918 83.7424 99.6879 83.3404 100.201 83.3404C100.713 83.3404 101.109 83.7424 101.109 84.2258C101.109 84.7093 100.713 85.1113 100.201 85.1113ZM99.3501 92.1597V85.9151H101.051V92.1597H99.3501ZM104.689 92.2878C102.784 92.2878 101.608 91.0471 101.608 89.0316V89.0257C101.608 87.0277 102.802 85.787 104.672 85.787C106.367 85.787 107.444 86.8297 107.509 88.1811V88.2219H105.93L105.918 88.1695C105.813 87.5753 105.4 87.1209 104.695 87.1209C103.862 87.1209 103.338 87.8374 103.338 89.0316V89.0374C103.338 90.2607 103.862 90.9539 104.701 90.9539C105.382 90.9539 105.808 90.5345 105.924 89.9053L105.93 89.8529H107.514V89.8879C107.433 91.2509 106.355 92.2878 104.689 92.2878Z" fill="#151515"/>
<path d="M37.1373 104.87C37.1032 104.582 36.965 104.358 36.7226 104.199C36.4801 104.04 36.1828 103.961 35.8305 103.961C35.5729 103.961 35.3476 104.002 35.1544 104.086C34.9631 104.169 34.8135 104.284 34.7055 104.429C34.5995 104.575 34.5464 104.741 34.5464 104.927C34.5464 105.082 34.5834 105.215 34.6572 105.327C34.733 105.437 34.8296 105.529 34.947 105.603C35.0644 105.675 35.1875 105.734 35.3163 105.782C35.4451 105.827 35.5635 105.864 35.6714 105.892L36.2623 106.052C36.4139 106.091 36.5824 106.146 36.768 106.216C36.9555 106.286 37.1345 106.382 37.305 106.503C37.4773 106.623 37.6193 106.776 37.7311 106.964C37.8428 107.151 37.8987 107.381 37.8987 107.654C37.8987 107.968 37.8163 108.252 37.6515 108.506C37.4887 108.76 37.25 108.962 36.9356 109.111C36.6231 109.261 36.2434 109.336 35.7964 109.336C35.3798 109.336 35.019 109.268 34.714 109.134C34.411 108.999 34.1724 108.812 33.9981 108.571C33.8258 108.331 33.7282 108.052 33.7055 107.733H34.4328C34.4517 107.953 34.5256 108.135 34.6544 108.279C34.7851 108.421 34.9498 108.527 35.1487 108.597C35.3495 108.665 35.5654 108.699 35.7964 108.699C36.0654 108.699 36.3068 108.656 36.5209 108.569C36.7349 108.48 36.9044 108.357 37.0294 108.199C37.1544 108.04 37.2169 107.855 37.2169 107.642C37.2169 107.449 37.1629 107.292 37.055 107.171C36.947 107.05 36.805 106.951 36.6288 106.875C36.4527 106.8 36.2623 106.733 36.0578 106.677L35.3419 106.472C34.8873 106.341 34.5275 106.155 34.2623 105.912C33.9972 105.67 33.8646 105.353 33.8646 104.961C33.8646 104.635 33.9527 104.351 34.1288 104.108C34.3068 103.864 34.5455 103.675 34.8447 103.54C35.1459 103.404 35.482 103.336 35.8532 103.336C36.2282 103.336 36.5616 103.403 36.8532 103.537C37.1449 103.67 37.376 103.852 37.5464 104.083C37.7188 104.314 37.8097 104.576 37.8192 104.87H37.1373ZM40.8639 104.87V105.438H38.6025V104.87H40.8639ZM39.2616 103.824H39.9321V107.983C39.9321 108.173 39.9595 108.315 40.0145 108.41C40.0713 108.502 40.1433 108.565 40.2304 108.597C40.3194 108.627 40.4131 108.642 40.5116 108.642C40.5855 108.642 40.6461 108.639 40.6934 108.631C40.7408 108.622 40.7787 108.614 40.8071 108.608L40.9434 109.211C40.898 109.228 40.8345 109.245 40.7531 109.262C40.6717 109.281 40.5684 109.29 40.4434 109.29C40.2541 109.29 40.0684 109.249 39.8866 109.168C39.7067 109.087 39.5571 108.963 39.4378 108.796C39.3203 108.629 39.2616 108.419 39.2616 108.165V103.824ZM43.1565 109.336C42.88 109.336 42.6291 109.284 42.4037 109.179C42.1783 109.073 41.9993 108.921 41.8667 108.722C41.7342 108.521 41.6679 108.279 41.6679 107.995C41.6679 107.745 41.7171 107.542 41.8156 107.387C41.9141 107.23 42.0457 107.107 42.2105 107.017C42.3753 106.928 42.5571 106.862 42.7559 106.819C42.9567 106.773 43.1584 106.737 43.3611 106.711C43.6262 106.677 43.8412 106.651 44.0059 106.634C44.1726 106.615 44.2938 106.584 44.3696 106.54C44.4472 106.497 44.4861 106.421 44.4861 106.313V106.29C44.4861 106.01 44.4094 105.792 44.2559 105.637C44.1044 105.482 43.8743 105.404 43.5656 105.404C43.2455 105.404 42.9946 105.474 42.8128 105.614C42.6309 105.754 42.5031 105.904 42.4292 106.063L41.7929 105.836C41.9065 105.571 42.058 105.364 42.2474 105.216C42.4387 105.067 42.647 104.963 42.8724 104.904C43.0997 104.843 43.3232 104.813 43.5429 104.813C43.683 104.813 43.844 104.83 44.0258 104.864C44.2095 104.896 44.3866 104.964 44.5571 105.066C44.7294 105.168 44.8724 105.322 44.9861 105.529C45.0997 105.735 45.1565 106.012 45.1565 106.358V109.233H44.4861V108.642H44.452C44.4065 108.737 44.3308 108.839 44.2247 108.946C44.1186 109.054 43.9775 109.146 43.8014 109.222C43.6253 109.298 43.4103 109.336 43.1565 109.336ZM43.2588 108.733C43.5239 108.733 43.7474 108.681 43.9292 108.577C44.113 108.473 44.2512 108.339 44.344 108.174C44.4387 108.009 44.4861 107.836 44.4861 107.654V107.04C44.4577 107.074 44.3952 107.106 44.2986 107.134C44.2039 107.16 44.094 107.184 43.969 107.205C43.8459 107.224 43.7256 107.241 43.6082 107.256C43.4927 107.269 43.3989 107.281 43.327 107.29C43.1527 107.313 42.9898 107.35 42.8383 107.401C42.6887 107.45 42.5675 107.525 42.4747 107.625C42.3838 107.724 42.3383 107.858 42.3383 108.029C42.3383 108.262 42.4245 108.438 42.5969 108.557C42.7711 108.675 42.9917 108.733 43.2588 108.733ZM46.3802 109.233V104.87H47.028V105.529H47.0734C47.153 105.313 47.2969 105.138 47.5052 105.003C47.7136 104.869 47.9484 104.802 48.2098 104.802C48.259 104.802 48.3206 104.803 48.3944 104.804C48.4683 104.806 48.5242 104.809 48.5621 104.813V105.495C48.5393 105.489 48.4872 105.481 48.4058 105.469C48.3263 105.456 48.242 105.449 48.153 105.449C47.9408 105.449 47.7515 105.494 47.5848 105.583C47.42 105.67 47.2893 105.791 47.1927 105.946C47.098 106.1 47.0507 106.275 47.0507 106.472V109.233H46.3802ZM53.5045 104.87V105.438H51.2432V104.87H53.5045ZM51.9023 103.824H52.5727V107.983C52.5727 108.173 52.6002 108.315 52.6551 108.41C52.7119 108.502 52.7839 108.565 52.871 108.597C52.96 108.627 53.0538 108.642 53.1523 108.642C53.2261 108.642 53.2867 108.639 53.3341 108.631C53.3814 108.622 53.4193 108.614 53.4477 108.608L53.5841 109.211C53.5386 109.228 53.4752 109.245 53.3937 109.262C53.3123 109.281 53.2091 109.29 53.0841 109.29C52.8947 109.29 52.7091 109.249 52.5273 109.168C52.3473 109.087 52.1977 108.963 52.0784 108.796C51.961 108.629 51.9023 108.419 51.9023 108.165V103.824ZM56.2957 109.324C55.8753 109.324 55.5126 109.232 55.2077 109.046C54.9046 108.858 54.6707 108.597 54.5059 108.262C54.3431 107.925 54.2616 107.533 54.2616 107.086C54.2616 106.639 54.3431 106.245 54.5059 105.904C54.6707 105.561 54.8999 105.294 55.1934 105.103C55.4889 104.91 55.8336 104.813 56.2275 104.813C56.4548 104.813 56.6792 104.851 56.9008 104.927C57.1224 105.002 57.3241 105.125 57.5059 105.296C57.6878 105.464 57.8327 105.688 57.9406 105.966C58.0486 106.245 58.1025 106.588 58.1025 106.995V107.279H54.7389V106.699H57.4207C57.4207 106.453 57.3715 106.233 57.273 106.04C57.1764 105.847 57.0381 105.695 56.8582 105.583C56.6802 105.471 56.47 105.415 56.2275 105.415C55.9605 105.415 55.7294 105.482 55.5344 105.614C55.3412 105.745 55.1925 105.915 55.0883 106.125C54.9842 106.336 54.9321 106.561 54.9321 106.802V107.188C54.9321 107.517 54.9889 107.797 55.1025 108.026C55.2181 108.253 55.3781 108.427 55.5827 108.546C55.7872 108.663 56.0249 108.722 56.2957 108.722C56.4719 108.722 56.6309 108.697 56.773 108.648C56.9169 108.597 57.041 108.521 57.1452 108.421C57.2493 108.319 57.3298 108.192 57.3866 108.04L58.0344 108.222C57.9662 108.442 57.8516 108.635 57.6906 108.802C57.5296 108.966 57.3308 109.095 57.094 109.188C56.8573 109.279 56.5912 109.324 56.2957 109.324ZM59.5052 104.87L60.5507 106.654L61.5961 104.87H62.3689L60.9598 107.052L62.3689 109.233H61.5961L60.5507 107.54L59.5052 109.233H58.7325L60.1189 107.052L58.7325 104.87H59.5052ZM65.2233 104.87V105.438H62.9619V104.87H65.2233ZM63.621 103.824H64.2915V107.983C64.2915 108.173 64.3189 108.315 64.3738 108.41C64.4307 108.502 64.5026 108.565 64.5898 108.597C64.6788 108.627 64.7725 108.642 64.871 108.642C64.9449 108.642 65.0055 108.639 65.0528 108.631C65.1002 108.622 65.1381 108.614 65.1665 108.608L65.3028 109.211C65.2574 109.228 65.1939 109.245 65.1125 109.262C65.031 109.281 64.9278 109.29 64.8028 109.29C64.6134 109.29 64.4278 109.249 64.246 109.168C64.0661 109.087 63.9165 108.963 63.7971 108.796C63.6797 108.629 63.621 108.419 63.621 108.165V103.824ZM69.1523 103.415V109.233H68.4818V103.415H69.1523ZM71.6643 109.336C71.3878 109.336 71.1369 109.284 70.9115 109.179C70.6861 109.073 70.5071 108.921 70.3746 108.722C70.242 108.521 70.1757 108.279 70.1757 107.995C70.1757 107.745 70.2249 107.542 70.3234 107.387C70.4219 107.23 70.5535 107.107 70.7183 107.017C70.8831 106.928 71.0649 106.862 71.2638 106.819C71.4645 106.773 71.6662 106.737 71.8689 106.711C72.134 106.677 72.349 106.651 72.5138 106.634C72.6804 106.615 72.8016 106.584 72.8774 106.54C72.955 106.497 72.9939 106.421 72.9939 106.313V106.29C72.9939 106.01 72.9172 105.792 72.7638 105.637C72.6122 105.482 72.3821 105.404 72.0734 105.404C71.7533 105.404 71.5024 105.474 71.3206 105.614C71.1388 105.754 71.0109 105.904 70.9371 106.063L70.3007 105.836C70.4143 105.571 70.5658 105.364 70.7552 105.216C70.9465 105.067 71.1549 104.963 71.3802 104.904C71.6075 104.843 71.831 104.813 72.0507 104.813C72.1908 104.813 72.3518 104.83 72.5336 104.864C72.7174 104.896 72.8944 104.964 73.0649 105.066C73.2372 105.168 73.3802 105.322 73.4939 105.529C73.6075 105.735 73.6643 106.012 73.6643 106.358V109.233H72.9939V108.642H72.9598C72.9143 108.737 72.8386 108.839 72.7325 108.946C72.6265 109.054 72.4854 109.146 72.3092 109.222C72.1331 109.298 71.9181 109.336 71.6643 109.336ZM71.7666 108.733C72.0318 108.733 72.2552 108.681 72.4371 108.577C72.6208 108.473 72.759 108.339 72.8518 108.174C72.9465 108.009 72.9939 107.836 72.9939 107.654V107.04C72.9655 107.074 72.903 107.106 72.8064 107.134C72.7117 107.16 72.6018 107.184 72.4768 107.205C72.3537 107.224 72.2335 107.241 72.116 107.256C72.0005 107.269 71.9068 107.281 71.8348 107.29C71.6605 107.313 71.4977 107.35 71.3461 107.401C71.1965 107.45 71.0753 107.525 70.9825 107.625C70.8916 107.724 70.8461 107.858 70.8461 108.029C70.8461 108.262 70.9323 108.438 71.1047 108.557C71.2789 108.675 71.4996 108.733 71.7666 108.733ZM75.1636 110.87C75.05 110.87 74.9487 110.86 74.8596 110.841C74.7706 110.824 74.7091 110.807 74.675 110.79L74.8454 110.199C75.0083 110.241 75.1523 110.256 75.2773 110.245C75.4023 110.233 75.5131 110.178 75.6096 110.077C75.7081 109.979 75.7981 109.819 75.8795 109.597L76.0045 109.256L74.3909 104.87H75.1182L76.3227 108.347H76.3682L77.5727 104.87H78.3L76.4477 109.87C76.3644 110.095 76.2612 110.282 76.1381 110.429C76.0149 110.579 75.872 110.69 75.7091 110.762C75.5481 110.834 75.3663 110.87 75.1636 110.87ZM80.8582 109.324C80.4378 109.324 80.0751 109.232 79.7702 109.046C79.4671 108.858 79.2332 108.597 79.0684 108.262C78.9056 107.925 78.8241 107.533 78.8241 107.086C78.8241 106.639 78.9056 106.245 79.0684 105.904C79.2332 105.561 79.4624 105.294 79.7559 105.103C80.0514 104.91 80.3961 104.813 80.79 104.813C81.0173 104.813 81.2417 104.851 81.4633 104.927C81.6849 105.002 81.8866 105.125 82.0684 105.296C82.2503 105.464 82.3952 105.688 82.5031 105.966C82.6111 106.245 82.665 106.588 82.665 106.995V107.279H79.3014V106.699H81.9832C81.9832 106.453 81.934 106.233 81.8355 106.04C81.7389 105.847 81.6006 105.695 81.4207 105.583C81.2427 105.471 81.0325 105.415 80.79 105.415C80.523 105.415 80.2919 105.482 80.0969 105.614C79.9037 105.745 79.755 105.915 79.6508 106.125C79.5467 106.336 79.4946 106.561 79.4946 106.802V107.188C79.4946 107.517 79.5514 107.797 79.665 108.026C79.7806 108.253 79.9406 108.427 80.1452 108.546C80.3497 108.663 80.5874 108.722 80.8582 108.722C81.0344 108.722 81.1934 108.697 81.3355 108.648C81.4794 108.597 81.6035 108.521 81.7077 108.421C81.8118 108.319 81.8923 108.192 81.9491 108.04L82.5969 108.222C82.5287 108.442 82.4141 108.635 82.2531 108.802C82.0921 108.966 81.8933 109.095 81.6565 109.188C81.4198 109.279 81.1537 109.324 80.8582 109.324ZM83.6849 109.233V104.87H84.3327V105.529H84.3781C84.4577 105.313 84.6016 105.138 84.8099 105.003C85.0183 104.869 85.2531 104.802 85.5145 104.802C85.5637 104.802 85.6253 104.803 85.6991 104.804C85.773 104.806 85.8289 104.809 85.8667 104.813V105.495C85.844 105.489 85.7919 105.481 85.7105 105.469C85.6309 105.456 85.5467 105.449 85.4577 105.449C85.2455 105.449 85.0561 105.494 84.8895 105.583C84.7247 105.67 84.594 105.791 84.4974 105.946C84.4027 106.1 84.3554 106.275 84.3554 106.472V109.233H83.6849ZM90.8547 104.87V105.438H88.5024V104.87H90.8547ZM89.2069 109.233V104.267C89.2069 104.017 89.2657 103.809 89.3831 103.642C89.5005 103.476 89.653 103.351 89.8405 103.267C90.028 103.184 90.2259 103.142 90.4342 103.142C90.599 103.142 90.7335 103.156 90.8376 103.182C90.9418 103.209 91.0194 103.233 91.0706 103.256L90.8774 103.836C90.8433 103.824 90.796 103.81 90.7354 103.793C90.6766 103.776 90.599 103.767 90.5024 103.767C90.2808 103.767 90.1208 103.823 90.0223 103.935C89.9257 104.047 89.8774 104.211 89.8774 104.427V109.233H89.2069ZM91.7943 109.233V104.87H92.4648V109.233H91.7943ZM92.1352 104.142C92.0045 104.142 91.8918 104.098 91.7971 104.009C91.7043 103.92 91.6579 103.813 91.6579 103.688C91.6579 103.563 91.7043 103.456 91.7971 103.367C91.8918 103.278 92.0045 103.233 92.1352 103.233C92.2659 103.233 92.3776 103.278 92.4704 103.367C92.5651 103.456 92.6125 103.563 92.6125 103.688C92.6125 103.813 92.5651 103.92 92.4704 104.009C92.3776 104.098 92.2659 104.142 92.1352 104.142ZM95.4541 110.961C95.1302 110.961 94.8518 110.919 94.6189 110.836C94.3859 110.754 94.1918 110.646 94.0365 110.512C93.8831 110.379 93.7609 110.237 93.67 110.086L94.2041 109.711C94.2647 109.79 94.3414 109.881 94.4342 109.983C94.527 110.088 94.6539 110.178 94.8149 110.253C94.9778 110.331 95.1908 110.37 95.4541 110.37C95.8064 110.37 96.0971 110.285 96.3263 110.114C96.5554 109.944 96.67 109.677 96.67 109.313V108.427H96.6132C96.564 108.506 96.4939 108.605 96.403 108.722C96.314 108.838 96.1852 108.941 96.0166 109.032C95.8499 109.121 95.6246 109.165 95.3405 109.165C94.9882 109.165 94.6719 109.082 94.3916 108.915C94.1132 108.749 93.8925 108.506 93.7297 108.188C93.5687 107.87 93.4882 107.483 93.4882 107.029C93.4882 106.582 93.5668 106.193 93.724 105.861C93.8812 105.528 94.0999 105.27 94.3802 105.089C94.6605 104.905 94.9844 104.813 95.3518 104.813C95.6359 104.813 95.8613 104.86 96.028 104.955C96.1965 105.048 96.3253 105.154 96.4143 105.273C96.5052 105.391 96.5753 105.487 96.6246 105.563H96.6927V104.87H97.3405V109.358C97.3405 109.733 97.2552 110.038 97.0848 110.273C96.9162 110.51 96.689 110.683 96.403 110.793C96.1189 110.905 95.8026 110.961 95.4541 110.961ZM95.4314 108.563C95.7003 108.563 95.9276 108.501 96.1132 108.378C96.2988 108.255 96.4399 108.078 96.5365 107.847C96.6331 107.616 96.6814 107.339 96.6814 107.017C96.6814 106.703 96.634 106.426 96.5393 106.185C96.4446 105.945 96.3045 105.756 96.1189 105.62C95.9333 105.483 95.7041 105.415 95.4314 105.415C95.1473 105.415 94.9105 105.487 94.7211 105.631C94.5336 105.775 94.3925 105.968 94.2979 106.211C94.205 106.453 94.1586 106.722 94.1586 107.017C94.1586 107.321 94.206 107.589 94.3007 107.821C94.3973 108.053 94.5393 108.234 94.7268 108.367C94.9162 108.498 95.1511 108.563 95.4314 108.563ZM98.5677 109.233V104.87H99.2155V105.552H99.2723C99.3632 105.319 99.51 105.138 99.7126 105.009C99.9153 104.878 100.159 104.813 100.443 104.813C100.731 104.813 100.97 104.878 101.161 105.009C101.355 105.138 101.505 105.319 101.613 105.552H101.659C101.77 105.326 101.938 105.147 102.161 105.015C102.385 104.88 102.653 104.813 102.965 104.813C103.356 104.813 103.675 104.935 103.923 105.179C104.171 105.422 104.295 105.8 104.295 106.313V109.233H103.625V106.313C103.625 105.991 103.536 105.761 103.36 105.623C103.184 105.484 102.977 105.415 102.738 105.415C102.431 105.415 102.194 105.508 102.025 105.694C101.857 105.877 101.772 106.11 101.772 106.392V109.233H101.09V106.245C101.09 105.997 101.01 105.797 100.849 105.645C100.688 105.492 100.481 105.415 100.227 105.415C100.053 105.415 99.8897 105.462 99.7382 105.554C99.5886 105.647 99.4674 105.776 99.3746 105.941C99.2836 106.104 99.2382 106.292 99.2382 106.506V109.233H98.5677ZM106.805 109.336C106.528 109.336 106.277 109.284 106.052 109.179C105.827 109.073 105.648 108.921 105.515 108.722C105.383 108.521 105.316 108.279 105.316 107.995C105.316 107.745 105.366 107.542 105.464 107.387C105.563 107.23 105.694 107.107 105.859 107.017C106.024 106.928 106.206 106.862 106.404 106.819C106.605 106.773 106.807 106.737 107.009 106.711C107.275 106.677 107.49 106.651 107.654 106.634C107.821 106.615 107.942 106.584 108.018 106.54C108.096 106.497 108.134 106.421 108.134 106.313V106.29C108.134 106.01 108.058 105.792 107.904 105.637C107.753 105.482 107.523 105.404 107.214 105.404C106.894 105.404 106.643 105.474 106.461 105.614C106.279 105.754 106.152 105.904 106.078 106.063L105.441 105.836C105.555 105.571 105.706 105.364 105.896 105.216C106.087 105.067 106.295 104.963 106.521 104.904C106.748 104.843 106.972 104.813 107.191 104.813C107.331 104.813 107.492 104.83 107.674 104.864C107.858 104.896 108.035 104.964 108.206 105.066C108.378 105.168 108.521 105.322 108.634 105.529C108.748 105.735 108.805 106.012 108.805 106.358V109.233H108.134V108.642H108.1C108.055 108.737 107.979 108.839 107.873 108.946C107.767 109.054 107.626 109.146 107.45 109.222C107.274 109.298 107.059 109.336 106.805 109.336ZM106.907 108.733C107.172 108.733 107.396 108.681 107.578 108.577C107.761 108.473 107.9 108.339 107.992 108.174C108.087 108.009 108.134 107.836 108.134 107.654V107.04C108.106 107.074 108.044 107.106 107.947 107.134C107.852 107.16 107.742 107.184 107.617 107.205C107.494 107.224 107.374 107.241 107.257 107.256C107.141 107.269 107.047 107.281 106.975 107.29C106.801 107.313 106.638 107.35 106.487 107.401C106.337 107.45 106.216 107.525 106.123 107.625C106.032 107.724 105.987 107.858 105.987 108.029C105.987 108.262 106.073 108.438 106.245 108.557C106.42 108.675 106.64 108.733 106.907 108.733ZM114.222 104.87V105.438H111.87V104.87H114.222ZM112.574 109.233V104.267C112.574 104.017 112.633 103.809 112.75 103.642C112.868 103.476 113.02 103.351 113.208 103.267C113.395 103.184 113.593 103.142 113.801 103.142C113.966 103.142 114.101 103.156 114.205 103.182C114.309 103.209 114.387 103.233 114.438 103.256L114.245 103.836C114.21 103.824 114.163 103.81 114.103 103.793C114.044 103.776 113.966 103.767 113.87 103.767C113.648 103.767 113.488 103.823 113.389 103.935C113.293 104.047 113.245 104.211 113.245 104.427V109.233H112.574ZM116.755 109.324C116.361 109.324 116.015 109.231 115.718 109.043C115.422 108.856 115.191 108.593 115.024 108.256C114.86 107.919 114.777 107.525 114.777 107.074C114.777 106.62 114.86 106.223 115.024 105.884C115.191 105.545 115.422 105.282 115.718 105.094C116.015 104.907 116.361 104.813 116.755 104.813C117.148 104.813 117.493 104.907 117.789 105.094C118.086 105.282 118.317 105.545 118.482 105.884C118.648 106.223 118.732 106.62 118.732 107.074C118.732 107.525 118.648 107.919 118.482 108.256C118.317 108.593 118.086 108.856 117.789 109.043C117.493 109.231 117.148 109.324 116.755 109.324ZM116.755 108.722C117.054 108.722 117.3 108.645 117.493 108.492C117.686 108.339 117.829 108.137 117.922 107.887C118.015 107.637 118.061 107.366 118.061 107.074C118.061 106.783 118.015 106.511 117.922 106.259C117.829 106.007 117.686 105.803 117.493 105.648C117.3 105.493 117.054 105.415 116.755 105.415C116.455 105.415 116.209 105.493 116.016 105.648C115.823 105.803 115.68 106.007 115.587 106.259C115.494 106.511 115.448 106.783 115.448 107.074C115.448 107.366 115.494 107.637 115.587 107.887C115.68 108.137 115.823 108.339 116.016 108.492C116.209 108.645 116.455 108.722 116.755 108.722ZM120.426 106.608V109.233H119.755V104.87H120.403V105.552H120.46C120.562 105.33 120.717 105.152 120.926 105.017C121.134 104.881 121.403 104.813 121.733 104.813C122.028 104.813 122.286 104.874 122.508 104.995C122.73 105.114 122.902 105.296 123.025 105.54C123.148 105.783 123.21 106.089 123.21 106.461V109.233H122.539V106.506C122.539 106.163 122.45 105.896 122.272 105.705C122.094 105.512 121.85 105.415 121.539 105.415C121.325 105.415 121.134 105.462 120.965 105.554C120.799 105.647 120.667 105.783 120.571 105.961C120.474 106.139 120.426 106.355 120.426 106.608ZM126.333 104.87V105.438H124.071V104.87H126.333ZM124.73 103.824H125.401V107.983C125.401 108.173 125.428 108.315 125.483 108.41C125.54 108.502 125.612 108.565 125.699 108.597C125.788 108.627 125.882 108.642 125.98 108.642C126.054 108.642 126.115 108.639 126.162 108.631C126.21 108.622 126.247 108.614 126.276 108.608L126.412 109.211C126.367 109.228 126.303 109.245 126.222 109.262C126.14 109.281 126.037 109.29 125.912 109.29C125.723 109.29 125.537 109.249 125.355 109.168C125.175 109.087 125.026 108.963 124.907 108.796C124.789 108.629 124.73 108.419 124.73 108.165V103.824ZM131.364 109.324C130.97 109.324 130.624 109.231 130.327 109.043C130.032 108.856 129.8 108.593 129.634 108.256C129.469 107.919 129.387 107.525 129.387 107.074C129.387 106.62 129.469 106.223 129.634 105.884C129.8 105.545 130.032 105.282 130.327 105.094C130.624 104.907 130.97 104.813 131.364 104.813C131.758 104.813 132.103 104.907 132.398 105.094C132.695 105.282 132.926 105.545 133.091 105.884C133.258 106.223 133.341 106.62 133.341 107.074C133.341 107.525 133.258 107.919 133.091 108.256C132.926 108.593 132.695 108.856 132.398 109.043C132.103 109.231 131.758 109.324 131.364 109.324ZM131.364 108.722C131.663 108.722 131.909 108.645 132.103 108.492C132.296 108.339 132.439 108.137 132.532 107.887C132.624 107.637 132.671 107.366 132.671 107.074C132.671 106.783 132.624 106.511 132.532 106.259C132.439 106.007 132.296 105.803 132.103 105.648C131.909 105.493 131.663 105.415 131.364 105.415C131.065 105.415 130.818 105.493 130.625 105.648C130.432 105.803 130.289 106.007 130.196 106.259C130.103 106.511 130.057 106.783 130.057 107.074C130.057 107.366 130.103 107.637 130.196 107.887C130.289 108.137 130.432 108.339 130.625 108.492C130.818 108.645 131.065 108.722 131.364 108.722ZM134.365 110.87V104.87H135.012V105.563H135.092C135.141 105.487 135.209 105.391 135.296 105.273C135.385 105.154 135.512 105.048 135.677 104.955C135.844 104.86 136.069 104.813 136.353 104.813C136.721 104.813 137.045 104.905 137.325 105.089C137.605 105.272 137.824 105.533 137.981 105.87C138.138 106.207 138.217 106.605 138.217 107.063C138.217 107.525 138.138 107.926 137.981 108.265C137.824 108.602 137.606 108.863 137.328 109.049C137.049 109.232 136.728 109.324 136.365 109.324C136.084 109.324 135.86 109.278 135.691 109.185C135.523 109.09 135.393 108.983 135.302 108.864C135.211 108.743 135.141 108.642 135.092 108.563H135.035V110.87H134.365ZM135.024 107.052C135.024 107.381 135.072 107.672 135.169 107.924C135.265 108.174 135.406 108.37 135.592 108.512C135.777 108.652 136.005 108.722 136.274 108.722C136.554 108.722 136.788 108.648 136.975 108.5C137.165 108.351 137.307 108.15 137.402 107.898C137.498 107.644 137.546 107.362 137.546 107.052C137.546 106.745 137.499 106.468 137.404 106.222C137.312 105.974 137.17 105.778 136.981 105.634C136.794 105.488 136.558 105.415 136.274 105.415C136.001 105.415 135.772 105.484 135.586 105.623C135.401 105.759 135.26 105.95 135.166 106.196C135.071 106.441 135.024 106.726 135.024 107.052ZM140.524 109.336C140.247 109.336 139.996 109.284 139.771 109.179C139.545 109.073 139.367 108.921 139.234 108.722C139.101 108.521 139.035 108.279 139.035 107.995C139.035 107.745 139.084 107.542 139.183 107.387C139.281 107.23 139.413 107.107 139.578 107.017C139.742 106.928 139.924 106.862 140.123 106.819C140.324 106.773 140.526 106.737 140.728 106.711C140.993 106.677 141.208 106.651 141.373 106.634C141.54 106.615 141.661 106.584 141.737 106.54C141.814 106.497 141.853 106.421 141.853 106.313V106.29C141.853 106.01 141.777 105.792 141.623 105.637C141.472 105.482 141.242 105.404 140.933 105.404C140.613 105.404 140.362 105.474 140.18 105.614C139.998 105.754 139.87 105.904 139.796 106.063L139.16 105.836C139.274 105.571 139.425 105.364 139.615 105.216C139.806 105.067 140.014 104.963 140.24 104.904C140.467 104.843 140.69 104.813 140.91 104.813C141.05 104.813 141.211 104.83 141.393 104.864C141.577 104.896 141.754 104.964 141.924 105.066C142.097 105.168 142.24 105.322 142.353 105.529C142.467 105.735 142.524 106.012 142.524 106.358V109.233H141.853V108.642H141.819C141.774 108.737 141.698 108.839 141.592 108.946C141.486 109.054 141.345 109.146 141.169 109.222C140.992 109.298 140.777 109.336 140.524 109.336ZM140.626 108.733C140.891 108.733 141.115 108.681 141.296 108.577C141.48 108.473 141.618 108.339 141.711 108.174C141.806 108.009 141.853 107.836 141.853 107.654V107.04C141.825 107.074 141.762 107.106 141.666 107.134C141.571 107.16 141.461 107.184 141.336 107.205C141.213 107.224 141.093 107.241 140.975 107.256C140.86 107.269 140.766 107.281 140.694 107.29C140.52 107.313 140.357 107.35 140.206 107.401C140.056 107.45 139.935 107.525 139.842 107.625C139.751 107.724 139.706 107.858 139.706 108.029C139.706 108.262 139.792 108.438 139.964 108.557C140.138 108.675 140.359 108.733 140.626 108.733ZM145.52 109.324C145.111 109.324 144.759 109.228 144.463 109.035C144.168 108.841 143.941 108.575 143.782 108.236C143.622 107.897 143.543 107.51 143.543 107.074C143.543 106.631 143.624 106.24 143.787 105.901C143.952 105.56 144.181 105.294 144.475 105.103C144.77 104.91 145.115 104.813 145.509 104.813C145.816 104.813 146.092 104.87 146.338 104.983C146.585 105.097 146.786 105.256 146.943 105.461C147.101 105.665 147.198 105.904 147.236 106.177H146.566C146.514 105.978 146.401 105.802 146.225 105.648C146.05 105.493 145.816 105.415 145.52 105.415C145.259 105.415 145.03 105.483 144.833 105.62C144.638 105.754 144.485 105.945 144.375 106.191C144.267 106.435 144.213 106.722 144.213 107.052C144.213 107.389 144.266 107.682 144.372 107.932C144.48 108.182 144.632 108.376 144.827 108.515C145.024 108.653 145.255 108.722 145.52 108.722C145.694 108.722 145.853 108.692 145.995 108.631C146.137 108.571 146.257 108.483 146.355 108.37C146.454 108.256 146.524 108.12 146.566 107.961H147.236C147.198 108.218 147.104 108.45 146.955 108.657C146.807 108.861 146.611 109.024 146.367 109.145C146.124 109.265 145.842 109.324 145.52 109.324ZM148.216 109.233V104.87H148.887V109.233H148.216ZM148.557 104.142C148.426 104.142 148.314 104.098 148.219 104.009C148.126 103.92 148.08 103.813 148.08 103.688C148.08 103.563 148.126 103.456 148.219 103.367C148.314 103.278 148.426 103.233 148.557 103.233C148.688 103.233 148.8 103.278 148.892 103.367C148.987 103.456 149.034 103.563 149.034 103.688C149.034 103.813 148.987 103.92 148.892 104.009C148.8 104.098 148.688 104.142 148.557 104.142ZM152.012 104.87V105.438H149.751V104.87H152.012ZM150.41 103.824H151.081V107.983C151.081 108.173 151.108 108.315 151.163 108.41C151.22 108.502 151.292 108.565 151.379 108.597C151.468 108.627 151.562 108.642 151.66 108.642C151.734 108.642 151.795 108.639 151.842 108.631C151.889 108.622 151.927 108.614 151.956 108.608L152.092 109.211C152.046 109.228 151.983 109.245 151.902 109.262C151.82 109.281 151.717 109.29 151.592 109.29C151.402 109.29 151.217 109.249 151.035 109.168C150.855 109.087 150.706 108.963 150.586 108.796C150.469 108.629 150.41 108.419 150.41 108.165V103.824ZM153.453 110.87C153.339 110.87 153.238 110.86 153.149 110.841C153.06 110.824 152.998 110.807 152.964 110.79L153.134 110.199C153.297 110.241 153.441 110.256 153.566 110.245C153.691 110.233 153.802 110.178 153.899 110.077C153.997 109.979 154.087 109.819 154.169 109.597L154.294 109.256L152.68 104.87H153.407L154.612 108.347H154.657L155.862 104.87H156.589L154.737 109.87C154.653 110.095 154.55 110.282 154.427 110.429C154.304 110.579 154.161 110.69 153.998 110.762C153.837 110.834 153.655 110.87 153.453 110.87ZM33.8646 120.87V114.87H34.5123V115.563H34.5919C34.6411 115.487 34.7093 115.391 34.7964 115.273C34.8854 115.154 35.0123 115.048 35.1771 114.955C35.3438 114.86 35.5692 114.813 35.8532 114.813C36.2207 114.813 36.5445 114.905 36.8248 115.089C37.1051 115.272 37.3239 115.533 37.4811 115.87C37.6383 116.207 37.7169 116.605 37.7169 117.063C37.7169 117.525 37.6383 117.926 37.4811 118.265C37.3239 118.602 37.1061 118.863 36.8277 119.049C36.5493 119.232 36.2282 119.324 35.8646 119.324C35.5843 119.324 35.3599 119.278 35.1913 119.185C35.0228 119.09 34.893 118.983 34.8021 118.864C34.7112 118.743 34.6411 118.642 34.5919 118.563H34.5351V120.87H33.8646ZM34.5237 117.052C34.5237 117.381 34.572 117.672 34.6686 117.924C34.7652 118.174 34.9063 118.37 35.0919 118.512C35.2775 118.652 35.5048 118.722 35.7737 118.722C36.054 118.722 36.2879 118.648 36.4754 118.5C36.6648 118.351 36.8068 118.15 36.9015 117.898C36.9981 117.644 37.0464 117.362 37.0464 117.052C37.0464 116.745 36.9991 116.468 36.9044 116.222C36.8116 115.974 36.6705 115.778 36.4811 115.634C36.2936 115.488 36.0578 115.415 35.7737 115.415C35.501 115.415 35.2718 115.484 35.0862 115.623C34.9006 115.759 34.7604 115.95 34.6657 116.196C34.5711 116.441 34.5237 116.726 34.5237 117.052ZM40.5692 119.324C40.1487 119.324 39.786 119.232 39.4811 119.046C39.1781 118.858 38.9442 118.597 38.7794 118.262C38.6165 117.925 38.5351 117.533 38.5351 117.086C38.5351 116.639 38.6165 116.245 38.7794 115.904C38.9442 115.561 39.1733 115.294 39.4669 115.103C39.7623 114.91 40.107 114.813 40.501 114.813C40.7282 114.813 40.9527 114.851 41.1743 114.927C41.3959 115.002 41.5976 115.125 41.7794 115.296C41.9612 115.464 42.1061 115.688 42.214 115.966C42.322 116.245 42.376 116.588 42.376 116.995V117.279H39.0123V116.699H41.6942C41.6942 116.453 41.6449 116.233 41.5464 116.04C41.4498 115.847 41.3116 115.695 41.1317 115.583C40.9536 115.471 40.7434 115.415 40.501 115.415C40.2339 115.415 40.0029 115.482 39.8078 115.614C39.6146 115.745 39.4659 115.915 39.3618 116.125C39.2576 116.336 39.2055 116.561 39.2055 116.802V117.188C39.2055 117.517 39.2623 117.797 39.376 118.026C39.4915 118.253 39.6515 118.427 39.8561 118.546C40.0606 118.663 40.2983 118.722 40.5692 118.722C40.7453 118.722 40.9044 118.697 41.0464 118.648C41.1904 118.597 41.3144 118.521 41.4186 118.421C41.5228 118.319 41.6032 118.192 41.6601 118.04L42.3078 118.222C42.2396 118.442 42.125 118.635 41.964 118.802C41.8031 118.966 41.6042 119.095 41.3675 119.188C41.1307 119.279 40.8646 119.324 40.5692 119.324ZM44.0663 116.608V119.233H43.3959V114.87H44.0436V115.552H44.1004C44.2027 115.33 44.358 115.152 44.5663 115.017C44.7747 114.881 45.0436 114.813 45.3731 114.813C45.6686 114.813 45.9271 114.874 46.1487 114.995C46.3703 115.114 46.5426 115.296 46.6657 115.54C46.7889 115.783 46.8504 116.089 46.8504 116.461V119.233H46.18V116.506C46.18 116.163 46.0909 115.896 45.9129 115.705C45.7349 115.512 45.4906 115.415 45.18 115.415C44.9659 115.415 44.7747 115.462 44.6061 115.554C44.4394 115.647 44.3078 115.783 44.2112 115.961C44.1146 116.139 44.0663 116.355 44.0663 116.608ZM49.8483 119.324C49.4392 119.324 49.0869 119.228 48.7915 119.035C48.496 118.841 48.2687 118.575 48.1096 118.236C47.9506 117.897 47.871 117.51 47.871 117.074C47.871 116.631 47.9524 116.24 48.1153 115.901C48.2801 115.56 48.5093 115.294 48.8028 115.103C49.0983 114.91 49.443 114.813 49.8369 114.813C50.1437 114.813 50.4202 114.87 50.6665 114.983C50.9127 115.097 51.1144 115.256 51.2716 115.461C51.4288 115.665 51.5263 115.904 51.5642 116.177H50.8937C50.8426 115.978 50.729 115.802 50.5528 115.648C50.3786 115.493 50.1437 115.415 49.8483 115.415C49.5869 115.415 49.3577 115.483 49.1608 115.62C48.9657 115.754 48.8132 115.945 48.7034 116.191C48.5954 116.435 48.5415 116.722 48.5415 117.052C48.5415 117.389 48.5945 117.682 48.7006 117.932C48.8085 118.182 48.96 118.376 49.1551 118.515C49.3521 118.653 49.5831 118.722 49.8483 118.722C50.0225 118.722 50.1807 118.692 50.3227 118.631C50.4648 118.571 50.585 118.483 50.6835 118.37C50.782 118.256 50.8521 118.12 50.8937 117.961H51.5642C51.5263 118.218 51.4326 118.45 51.2829 118.657C51.1352 118.861 50.9392 119.024 50.6949 119.145C50.4524 119.265 50.1702 119.324 49.8483 119.324ZM52.5443 119.233V114.87H53.2148V119.233H52.5443ZM52.8852 114.142C52.7545 114.142 52.6418 114.098 52.5471 114.009C52.4543 113.92 52.4079 113.813 52.4079 113.688C52.4079 113.563 52.4543 113.456 52.5471 113.367C52.6418 113.278 52.7545 113.233 52.8852 113.233C53.0159 113.233 53.1276 113.278 53.2204 113.367C53.3151 113.456 53.3625 113.563 53.3625 113.688C53.3625 113.813 53.3151 113.92 53.2204 114.009C53.1276 114.098 53.0159 114.142 52.8852 114.142ZM55.1132 113.415V119.233H54.4427V113.415H55.1132ZM60.4207 119.324C60.0003 119.324 59.6376 119.232 59.3327 119.046C59.0296 118.858 58.7957 118.597 58.6309 118.262C58.4681 117.925 58.3866 117.533 58.3866 117.086C58.3866 116.639 58.4681 116.245 58.6309 115.904C58.7957 115.561 59.0249 115.294 59.3184 115.103C59.6139 114.91 59.9586 114.813 60.3525 114.813C60.5798 114.813 60.8042 114.851 61.0258 114.927C61.2474 115.002 61.4491 115.125 61.6309 115.296C61.8128 115.464 61.9577 115.688 62.0656 115.966C62.1736 116.245 62.2275 116.588 62.2275 116.995V117.279H58.8639V116.699H61.5457C61.5457 116.453 61.4965 116.233 61.398 116.04C61.3014 115.847 61.1631 115.695 60.9832 115.583C60.8052 115.471 60.595 115.415 60.3525 115.415C60.0855 115.415 59.8544 115.482 59.6594 115.614C59.4662 115.745 59.3175 115.915 59.2133 116.125C59.1092 116.336 59.0571 116.561 59.0571 116.802V117.188C59.0571 117.517 59.1139 117.797 59.2275 118.026C59.3431 118.253 59.5031 118.427 59.7077 118.546C59.9122 118.663 60.1499 118.722 60.4207 118.722C60.5969 118.722 60.7559 118.697 60.898 118.648C61.0419 118.597 61.166 118.521 61.2702 118.421C61.3743 118.319 61.4548 118.192 61.5116 118.04L62.1594 118.222C62.0912 118.442 61.9766 118.635 61.8156 118.802C61.6546 118.966 61.4558 119.095 61.219 119.188C60.9823 119.279 60.7162 119.324 60.4207 119.324ZM63.9179 113.415V119.233H63.2474V113.415H63.9179ZM65.8163 113.415V119.233H65.1459V113.415H65.8163ZM67.0443 119.233V114.87H67.7148V119.233H67.0443ZM67.3852 114.142C67.2545 114.142 67.1418 114.098 67.0471 114.009C66.9543 113.92 66.9079 113.813 66.9079 113.688C66.9079 113.563 66.9543 113.456 67.0471 113.367C67.1418 113.278 67.2545 113.233 67.3852 113.233C67.5159 113.233 67.6276 113.278 67.7204 113.367C67.8151 113.456 67.8625 113.563 67.8625 113.688C67.8625 113.813 67.8151 113.92 67.7204 114.009C67.6276 114.098 67.5159 114.142 67.3852 114.142ZM68.9427 120.87V114.87H69.5905V115.563H69.67C69.7193 115.487 69.7874 115.391 69.8746 115.273C69.9636 115.154 70.0905 115.048 70.2552 114.955C70.4219 114.86 70.6473 114.813 70.9314 114.813C71.2988 114.813 71.6227 114.905 71.903 115.089C72.1833 115.272 72.402 115.533 72.5592 115.87C72.7164 116.207 72.795 116.605 72.795 117.063C72.795 117.525 72.7164 117.926 72.5592 118.265C72.402 118.602 72.1842 118.863 71.9058 119.049C71.6274 119.232 71.3064 119.324 70.9427 119.324C70.6624 119.324 70.438 119.278 70.2694 119.185C70.1009 119.09 69.9711 118.983 69.8802 118.864C69.7893 118.743 69.7193 118.642 69.67 118.563H69.6132V120.87H68.9427ZM69.6018 117.052C69.6018 117.381 69.6501 117.672 69.7467 117.924C69.8433 118.174 69.9844 118.37 70.17 118.512C70.3556 118.652 70.5829 118.722 70.8518 118.722C71.1321 118.722 71.366 118.648 71.5535 118.5C71.7429 118.351 71.885 118.15 71.9797 117.898C72.0763 117.644 72.1246 117.362 72.1246 117.052C72.1246 116.745 72.0772 116.468 71.9825 116.222C71.8897 115.974 71.7486 115.778 71.5592 115.634C71.3717 115.488 71.1359 115.415 70.8518 115.415C70.5791 115.415 70.3499 115.484 70.1643 115.623C69.9787 115.759 69.8386 115.95 69.7439 116.196C69.6492 116.441 69.6018 116.726 69.6018 117.052ZM76.9086 115.847L76.3064 116.017C76.2685 115.917 76.2126 115.82 76.1388 115.725C76.0668 115.628 75.9683 115.549 75.8433 115.486C75.7183 115.424 75.5583 115.392 75.3632 115.392C75.0961 115.392 74.8736 115.454 74.6956 115.577C74.5194 115.698 74.4314 115.853 74.4314 116.04C74.4314 116.207 74.492 116.339 74.6132 116.435C74.7344 116.532 74.9238 116.612 75.1814 116.677L75.8291 116.836C76.2193 116.93 76.51 117.075 76.7013 117.27C76.8925 117.464 76.9882 117.713 76.9882 118.017C76.9882 118.267 76.9162 118.491 76.7723 118.688C76.6302 118.885 76.4314 119.04 76.1757 119.154C75.92 119.267 75.6227 119.324 75.2836 119.324C74.8386 119.324 74.4702 119.228 74.1785 119.035C73.8869 118.841 73.7022 118.559 73.6246 118.188L74.2609 118.029C74.3215 118.264 74.4361 118.44 74.6047 118.557C74.7751 118.675 74.9977 118.733 75.2723 118.733C75.5848 118.733 75.8329 118.667 76.0166 118.535C76.2022 118.4 76.295 118.239 76.295 118.052C76.295 117.9 76.242 117.773 76.1359 117.671C76.0299 117.567 75.867 117.489 75.6473 117.438L74.92 117.267C74.5204 117.173 74.2268 117.026 74.0393 116.827C73.8537 116.626 73.7609 116.375 73.7609 116.074C73.7609 115.828 73.83 115.61 73.9683 115.421C74.1085 115.232 74.2988 115.083 74.5393 114.975C74.7818 114.867 75.0564 114.813 75.3632 114.813C75.795 114.813 76.134 114.908 76.3802 115.097C76.6283 115.286 76.8045 115.536 76.9086 115.847ZM79.827 119.324C79.4065 119.324 79.0438 119.232 78.7389 119.046C78.4359 118.858 78.202 118.597 78.0372 118.262C77.8743 117.925 77.7929 117.533 77.7929 117.086C77.7929 116.639 77.8743 116.245 78.0372 115.904C78.202 115.561 78.4311 115.294 78.7247 115.103C79.0202 114.91 79.3648 114.813 79.7588 114.813C79.9861 114.813 80.2105 114.851 80.4321 114.927C80.6537 115.002 80.8554 115.125 81.0372 115.296C81.219 115.464 81.3639 115.688 81.4719 115.966C81.5798 116.245 81.6338 116.588 81.6338 116.995V117.279H78.2702V116.699H80.952C80.952 116.453 80.9027 116.233 80.8042 116.04C80.7077 115.847 80.5694 115.695 80.3895 115.583C80.2114 115.471 80.0012 115.415 79.7588 115.415C79.4917 115.415 79.2607 115.482 79.0656 115.614C78.8724 115.745 78.7238 115.915 78.6196 116.125C78.5154 116.336 78.4633 116.561 78.4633 116.802V117.188C78.4633 117.517 78.5202 117.797 78.6338 118.026C78.7493 118.253 78.9094 118.427 79.1139 118.546C79.3184 118.663 79.5561 118.722 79.827 118.722C80.0031 118.722 80.1622 118.697 80.3042 118.648C80.4482 118.597 80.5722 118.521 80.6764 118.421C80.7806 118.319 80.8611 118.192 80.9179 118.04L81.5656 118.222C81.4974 118.442 81.3828 118.635 81.2219 118.802C81.0609 118.966 80.862 119.095 80.6253 119.188C80.3885 119.279 80.1224 119.324 79.827 119.324ZM83.1423 119.279C83.0022 119.279 82.8819 119.229 82.7815 119.128C82.6811 119.028 82.6309 118.908 82.6309 118.767C82.6309 118.627 82.6811 118.507 82.7815 118.407C82.8819 118.306 83.0022 118.256 83.1423 118.256C83.2825 118.256 83.4027 118.306 83.5031 118.407C83.6035 118.507 83.6537 118.627 83.6537 118.767C83.6537 118.86 83.63 118.946 83.5827 119.023C83.5372 119.101 83.4756 119.163 83.398 119.211C83.3222 119.256 83.237 119.279 83.1423 119.279ZM87.1977 119.233V113.415H90.7091V114.04H87.9023V116.006H90.5273V116.631H87.9023V118.608H90.7545V119.233H87.1977ZM93.5358 119.324C93.1721 119.324 92.8511 119.232 92.5727 119.049C92.2943 118.863 92.0765 118.602 91.9193 118.265C91.7621 117.926 91.6835 117.525 91.6835 117.063C91.6835 116.605 91.7621 116.207 91.9193 115.87C92.0765 115.533 92.2952 115.272 92.5756 115.089C92.8559 114.905 93.1797 114.813 93.5471 114.813C93.8312 114.813 94.0557 114.86 94.2204 114.955C94.3871 115.048 94.514 115.154 94.6011 115.273C94.6901 115.391 94.7593 115.487 94.8085 115.563H94.8653V113.415H95.5358V119.233H94.8881V118.563H94.8085C94.7593 118.642 94.6892 118.743 94.5983 118.864C94.5074 118.983 94.3776 119.09 94.2091 119.185C94.0405 119.278 93.8161 119.324 93.5358 119.324ZM93.6267 118.722C93.8956 118.722 94.1229 118.652 94.3085 118.512C94.4941 118.37 94.6352 118.174 94.7318 117.924C94.8284 117.672 94.8767 117.381 94.8767 117.052C94.8767 116.726 94.8293 116.441 94.7346 116.196C94.6399 115.95 94.4998 115.759 94.3142 115.623C94.1286 115.484 93.8994 115.415 93.6267 115.415C93.3426 115.415 93.1059 115.488 92.9165 115.634C92.729 115.778 92.5879 115.974 92.4932 116.222C92.4004 116.468 92.354 116.745 92.354 117.052C92.354 117.362 92.4013 117.644 92.496 117.898C92.5926 118.15 92.7346 118.351 92.9221 118.5C93.1115 118.648 93.3464 118.722 93.6267 118.722ZM96.8568 119.233V114.87H97.5273V119.233H96.8568ZM97.1977 114.142C97.067 114.142 96.9543 114.098 96.8596 114.009C96.7668 113.92 96.7204 113.813 96.7204 113.688C96.7204 113.563 96.7668 113.456 96.8596 113.367C96.9543 113.278 97.067 113.233 97.1977 113.233C97.3284 113.233 97.4401 113.278 97.5329 113.367C97.6276 113.456 97.675 113.563 97.675 113.688C97.675 113.813 97.6276 113.92 97.5329 114.009C97.4401 114.098 97.3284 114.142 97.1977 114.142ZM100.653 114.87V115.438H98.3916V114.87H100.653ZM99.0507 113.824H99.7211V117.983C99.7211 118.173 99.7486 118.315 99.8035 118.41C99.8604 118.502 99.9323 118.565 100.019 118.597C100.108 118.627 100.202 118.642 100.301 118.642C100.375 118.642 100.435 118.639 100.483 118.631C100.53 118.622 100.568 118.614 100.596 118.608L100.733 119.211C100.687 119.228 100.624 119.245 100.542 119.262C100.461 119.281 100.358 119.29 100.233 119.29C100.043 119.29 99.8575 119.249 99.6757 119.168C99.4958 119.087 99.3461 118.963 99.2268 118.796C99.1094 118.629 99.0507 118.419 99.0507 118.165V113.824ZM103.387 119.324C102.993 119.324 102.648 119.231 102.35 119.043C102.055 118.856 101.824 118.593 101.657 118.256C101.492 117.919 101.41 117.525 101.41 117.074C101.41 116.62 101.492 116.223 101.657 115.884C101.824 115.545 102.055 115.282 102.35 115.094C102.648 114.907 102.993 114.813 103.387 114.813C103.781 114.813 104.126 114.907 104.421 115.094C104.719 115.282 104.95 115.545 105.115 115.884C105.281 116.223 105.365 116.62 105.365 117.074C105.365 117.525 105.281 117.919 105.115 118.256C104.95 118.593 104.719 118.856 104.421 119.043C104.126 119.231 103.781 119.324 103.387 119.324ZM103.387 118.722C103.687 118.722 103.933 118.645 104.126 118.492C104.319 118.339 104.462 118.137 104.555 117.887C104.648 117.637 104.694 117.366 104.694 117.074C104.694 116.783 104.648 116.511 104.555 116.259C104.462 116.007 104.319 115.803 104.126 115.648C103.933 115.493 103.687 115.415 103.387 115.415C103.088 115.415 102.842 115.493 102.649 115.648C102.456 115.803 102.313 116.007 102.22 116.259C102.127 116.511 102.081 116.783 102.081 117.074C102.081 117.366 102.127 117.637 102.22 117.887C102.313 118.137 102.456 118.339 102.649 118.492C102.842 118.645 103.088 118.722 103.387 118.722ZM106.388 119.233V114.87H107.036V115.529H107.081C107.161 115.313 107.305 115.138 107.513 115.003C107.721 114.869 107.956 114.802 108.218 114.802C108.267 114.802 108.328 114.803 108.402 114.804C108.476 114.806 108.532 114.809 108.57 114.813V115.495C108.547 115.489 108.495 115.481 108.414 115.469C108.334 115.456 108.25 115.449 108.161 115.449C107.949 115.449 107.759 115.494 107.593 115.583C107.428 115.67 107.297 115.791 107.201 115.946C107.106 116.1 107.059 116.275 107.059 116.472V119.233H106.388ZM113.387 119.324C112.978 119.324 112.626 119.228 112.331 119.035C112.035 118.841 111.808 118.575 111.649 118.236C111.49 117.897 111.41 117.51 111.41 117.074C111.41 116.631 111.492 116.24 111.654 115.901C111.819 115.56 112.048 115.294 112.342 115.103C112.637 114.91 112.982 114.813 113.376 114.813C113.683 114.813 113.959 114.87 114.206 114.983C114.452 115.097 114.653 115.256 114.811 115.461C114.968 115.665 115.065 115.904 115.103 116.177H114.433C114.382 115.978 114.268 115.802 114.092 115.648C113.918 115.493 113.683 115.415 113.387 115.415C113.126 115.415 112.897 115.483 112.7 115.62C112.505 115.754 112.352 115.945 112.242 116.191C112.134 116.435 112.081 116.722 112.081 117.052C112.081 117.389 112.134 117.682 112.24 117.932C112.348 118.182 112.499 118.376 112.694 118.515C112.891 118.653 113.122 118.722 113.387 118.722C113.562 118.722 113.72 118.692 113.862 118.631C114.004 118.571 114.124 118.483 114.223 118.37C114.321 118.256 114.391 118.12 114.433 117.961H115.103C115.065 118.218 114.972 118.45 114.822 118.657C114.674 118.861 114.478 119.024 114.234 119.145C113.992 119.265 113.709 119.324 113.387 119.324ZM117.856 119.324C117.462 119.324 117.117 119.231 116.819 119.043C116.524 118.856 116.293 118.593 116.126 118.256C115.961 117.919 115.879 117.525 115.879 117.074C115.879 116.62 115.961 116.223 116.126 115.884C116.293 115.545 116.524 115.282 116.819 115.094C117.117 114.907 117.462 114.813 117.856 114.813C118.25 114.813 118.595 114.907 118.89 115.094C119.188 115.282 119.419 115.545 119.583 115.884C119.75 116.223 119.833 116.62 119.833 117.074C119.833 117.525 119.75 117.919 119.583 118.256C119.419 118.593 119.188 118.856 118.89 119.043C118.595 119.231 118.25 119.324 117.856 119.324ZM117.856 118.722C118.155 118.722 118.402 118.645 118.595 118.492C118.788 118.339 118.931 118.137 119.024 117.887C119.117 117.637 119.163 117.366 119.163 117.074C119.163 116.783 119.117 116.511 119.024 116.259C118.931 116.007 118.788 115.803 118.595 115.648C118.402 115.493 118.155 115.415 117.856 115.415C117.557 115.415 117.311 115.493 117.117 115.648C116.924 115.803 116.781 116.007 116.688 116.259C116.596 116.511 116.549 116.783 116.549 117.074C116.549 117.366 116.596 117.637 116.688 117.887C116.781 118.137 116.924 118.339 117.117 118.492C117.311 118.645 117.557 118.722 117.856 118.722ZM120.857 119.233V114.87H121.505V115.552H121.561C121.652 115.319 121.799 115.138 122.002 115.009C122.204 114.878 122.448 114.813 122.732 114.813C123.02 114.813 123.259 114.878 123.451 115.009C123.644 115.138 123.794 115.319 123.902 115.552H123.948C124.059 115.326 124.227 115.147 124.451 115.015C124.674 114.88 124.942 114.813 125.255 114.813C125.645 114.813 125.964 114.935 126.212 115.179C126.46 115.422 126.584 115.8 126.584 116.313V119.233H125.914V116.313C125.914 115.991 125.826 115.761 125.649 115.623C125.473 115.484 125.266 115.415 125.027 115.415C124.72 115.415 124.483 115.508 124.314 115.694C124.146 115.877 124.061 116.11 124.061 116.392V119.233H123.38V116.245C123.38 115.997 123.299 115.797 123.138 115.645C122.977 115.492 122.77 115.415 122.516 115.415C122.342 115.415 122.179 115.462 122.027 115.554C121.878 115.647 121.756 115.776 121.664 115.941C121.573 116.104 121.527 116.292 121.527 116.506V119.233H120.857ZM127.81 119.233V114.87H128.458V115.552H128.514C128.605 115.319 128.752 115.138 128.955 115.009C129.157 114.878 129.401 114.813 129.685 114.813C129.973 114.813 130.212 114.878 130.404 115.009C130.597 115.138 130.747 115.319 130.855 115.552H130.901C131.013 115.326 131.18 115.147 131.404 115.015C131.627 114.88 131.895 114.813 132.208 114.813C132.598 114.813 132.917 114.935 133.165 115.179C133.413 115.422 133.537 115.8 133.537 116.313V119.233H132.867V116.313C132.867 115.991 132.779 115.761 132.603 115.623C132.426 115.484 132.219 115.415 131.98 115.415C131.674 115.415 131.436 115.508 131.267 115.694C131.099 115.877 131.014 116.11 131.014 116.392V119.233H130.333V116.245C130.333 115.997 130.252 115.797 130.091 115.645C129.93 115.492 129.723 115.415 129.469 115.415C129.295 115.415 129.132 115.462 128.98 115.554C128.831 115.647 128.71 115.776 128.617 115.941C128.526 116.104 128.48 116.292 128.48 116.506V119.233H127.81ZM136.593 119.324C136.172 119.324 135.809 119.232 135.505 119.046C135.201 118.858 134.968 118.597 134.803 118.262C134.64 117.925 134.559 117.533 134.559 117.086C134.559 116.639 134.64 116.245 134.803 115.904C134.968 115.561 135.197 115.294 135.49 115.103C135.786 114.91 136.13 114.813 136.524 114.813C136.752 114.813 136.976 114.851 137.198 114.927C137.419 115.002 137.621 115.125 137.803 115.296C137.985 115.464 138.13 115.688 138.237 115.966C138.345 116.245 138.399 116.588 138.399 116.995V117.279H135.036V116.699H137.718C137.718 116.453 137.668 116.233 137.57 116.04C137.473 115.847 137.335 115.695 137.155 115.583C136.977 115.471 136.767 115.415 136.524 115.415C136.257 115.415 136.026 115.482 135.831 115.614C135.638 115.745 135.489 115.915 135.385 116.125C135.281 116.336 135.229 116.561 135.229 116.802V117.188C135.229 117.517 135.286 117.797 135.399 118.026C135.515 118.253 135.675 118.427 135.88 118.546C136.084 118.663 136.322 118.722 136.593 118.722C136.769 118.722 136.928 118.697 137.07 118.648C137.214 118.597 137.338 118.521 137.442 118.421C137.546 118.319 137.627 118.192 137.684 118.04L138.331 118.222C138.263 118.442 138.148 118.635 137.987 118.802C137.826 118.966 137.628 119.095 137.391 119.188C137.154 119.279 136.888 119.324 136.593 119.324ZM140.09 116.608V119.233H139.419V114.87H140.067V115.552H140.124C140.226 115.33 140.381 115.152 140.59 115.017C140.798 114.881 141.067 114.813 141.397 114.813C141.692 114.813 141.951 114.874 142.172 114.995C142.394 115.114 142.566 115.296 142.689 115.54C142.812 115.783 142.874 116.089 142.874 116.461V119.233H142.203V116.506C142.203 116.163 142.114 115.896 141.936 115.705C141.758 115.512 141.514 115.415 141.203 115.415C140.989 115.415 140.798 115.462 140.63 115.554C140.463 115.647 140.331 115.783 140.235 115.961C140.138 116.139 140.09 116.355 140.09 116.608ZM145.997 114.87V115.438H143.735V114.87H145.997ZM144.394 113.824H145.065V117.983C145.065 118.173 145.092 118.315 145.147 118.41C145.204 118.502 145.276 118.565 145.363 118.597C145.452 118.627 145.546 118.642 145.644 118.642C145.718 118.642 145.779 118.639 145.826 118.631C145.874 118.622 145.911 118.614 145.94 118.608L146.076 119.211C146.031 119.228 145.967 119.245 145.886 119.262C145.804 119.281 145.701 119.29 145.576 119.29C145.387 119.29 145.201 119.249 145.019 119.168C144.84 119.087 144.69 118.963 144.571 118.796C144.453 118.629 144.394 118.419 144.394 118.165V113.824ZM35.5123 129.324C35.1487 129.324 34.8277 129.232 34.5493 129.049C34.2709 128.863 34.0531 128.602 33.8959 128.265C33.7387 127.926 33.6601 127.525 33.6601 127.063C33.6601 126.605 33.7387 126.207 33.8959 125.87C34.0531 125.533 34.2718 125.272 34.5521 125.089C34.8324 124.905 35.1563 124.813 35.5237 124.813C35.8078 124.813 36.0322 124.86 36.197 124.955C36.3637 125.048 36.4906 125.154 36.5777 125.273C36.6667 125.391 36.7358 125.487 36.7851 125.563H36.8419V123.415H37.5123V129.233H36.8646V128.563H36.7851C36.7358 128.642 36.6657 128.743 36.5748 128.864C36.4839 128.983 36.3542 129.09 36.1856 129.185C36.0171 129.278 35.7926 129.324 35.5123 129.324ZM35.6032 128.722C35.8722 128.722 36.0995 128.652 36.2851 128.512C36.4707 128.37 36.6118 128.174 36.7084 127.924C36.805 127.672 36.8532 127.381 36.8532 127.052C36.8532 126.726 36.8059 126.441 36.7112 126.196C36.6165 125.95 36.4764 125.759 36.2907 125.623C36.1051 125.484 35.876 125.415 35.6032 125.415C35.3192 125.415 35.0824 125.488 34.893 125.634C34.7055 125.778 34.5644 125.974 34.4697 126.222C34.3769 126.468 34.3305 126.745 34.3305 127.052C34.3305 127.362 34.3779 127.644 34.4726 127.898C34.5692 128.15 34.7112 128.351 34.8987 128.5C35.0881 128.648 35.3229 128.722 35.6032 128.722ZM40.6629 129.324C40.2425 129.324 39.8798 129.232 39.5748 129.046C39.2718 128.858 39.0379 128.597 38.8731 128.262C38.7103 127.925 38.6288 127.533 38.6288 127.086C38.6288 126.639 38.7103 126.245 38.8731 125.904C39.0379 125.561 39.2671 125.294 39.5606 125.103C39.8561 124.91 40.2008 124.813 40.5947 124.813C40.822 124.813 41.0464 124.851 41.268 124.927C41.4896 125.002 41.6913 125.125 41.8731 125.296C42.055 125.464 42.1998 125.688 42.3078 125.966C42.4157 126.245 42.4697 126.588 42.4697 126.995V127.279H39.1061V126.699H41.7879C41.7879 126.453 41.7387 126.233 41.6402 126.04C41.5436 125.847 41.4053 125.695 41.2254 125.583C41.0474 125.471 40.8372 125.415 40.5947 125.415C40.3277 125.415 40.0966 125.482 39.9015 125.614C39.7084 125.745 39.5597 125.915 39.4555 126.125C39.3514 126.336 39.2993 126.561 39.2993 126.802V127.188C39.2993 127.517 39.3561 127.797 39.4697 128.026C39.5853 128.253 39.7453 128.427 39.9498 128.546C40.1544 128.663 40.3921 128.722 40.6629 128.722C40.839 128.722 40.9981 128.697 41.1402 128.648C41.2841 128.597 41.4082 128.521 41.5123 128.421C41.6165 128.319 41.697 128.192 41.7538 128.04L42.4015 128.222C42.3334 128.442 42.2188 128.635 42.0578 128.802C41.8968 128.966 41.6979 129.095 41.4612 129.188C41.2245 129.279 40.9584 129.324 40.6629 129.324ZM46.925 124.87L45.3113 129.233H44.6295L43.0159 124.87H43.7432L44.9477 128.347H44.9932L46.1977 124.87H46.925ZM47.8099 129.233V124.87H48.4804V129.233H47.8099ZM48.1508 124.142C48.0202 124.142 47.9075 124.098 47.8128 124.009C47.72 123.92 47.6736 123.813 47.6736 123.688C47.6736 123.563 47.72 123.456 47.8128 123.367C47.9075 123.278 48.0202 123.233 48.1508 123.233C48.2815 123.233 48.3933 123.278 48.4861 123.367C48.5808 123.456 48.6281 123.563 48.6281 123.688C48.6281 123.813 48.5808 123.92 48.4861 124.009C48.3933 124.098 48.2815 124.142 48.1508 124.142ZM51.4811 129.324C51.072 129.324 50.7197 129.228 50.4243 129.035C50.1288 128.841 49.9015 128.575 49.7425 128.236C49.5834 127.897 49.5038 127.51 49.5038 127.074C49.5038 126.631 49.5853 126.24 49.7481 125.901C49.9129 125.56 50.1421 125.294 50.4356 125.103C50.7311 124.91 51.0758 124.813 51.4697 124.813C51.7765 124.813 52.0531 124.87 52.2993 124.983C52.5455 125.097 52.7472 125.256 52.9044 125.461C53.0616 125.665 53.1591 125.904 53.197 126.177H52.5265C52.4754 125.978 52.3618 125.802 52.1856 125.648C52.0114 125.493 51.7765 125.415 51.4811 125.415C51.2197 125.415 50.9906 125.483 50.7936 125.62C50.5985 125.754 50.4461 125.945 50.3362 126.191C50.2282 126.435 50.1743 126.722 50.1743 127.052C50.1743 127.389 50.2273 127.682 50.3334 127.932C50.4413 128.182 50.5928 128.376 50.7879 128.515C50.9849 128.653 51.2159 128.722 51.4811 128.722C51.6553 128.722 51.8135 128.692 51.9555 128.631C52.0976 128.571 52.2178 128.483 52.3163 128.37C52.4148 128.256 52.4849 128.12 52.5265 127.961H53.197C53.1591 128.218 53.0654 128.45 52.9157 128.657C52.768 128.861 52.572 129.024 52.3277 129.145C52.0853 129.265 51.8031 129.324 51.4811 129.324ZM56.0067 129.324C55.5862 129.324 55.2235 129.232 54.9186 129.046C54.6156 128.858 54.3817 128.597 54.2169 128.262C54.054 127.925 53.9726 127.533 53.9726 127.086C53.9726 126.639 54.054 126.245 54.2169 125.904C54.3817 125.561 54.6108 125.294 54.9044 125.103C55.1998 124.91 55.5445 124.813 55.9385 124.813C56.1657 124.813 56.3902 124.851 56.6118 124.927C56.8334 125.002 57.0351 125.125 57.2169 125.296C57.3987 125.464 57.5436 125.688 57.6515 125.966C57.7595 126.245 57.8135 126.588 57.8135 126.995V127.279H54.4498V126.699H57.1317C57.1317 126.453 57.0824 126.233 56.9839 126.04C56.8873 125.847 56.7491 125.695 56.5692 125.583C56.3911 125.471 56.1809 125.415 55.9385 125.415C55.6714 125.415 55.4404 125.482 55.2453 125.614C55.0521 125.745 54.9034 125.915 54.7993 126.125C54.6951 126.336 54.643 126.561 54.643 126.802V127.188C54.643 127.517 54.6998 127.797 54.8135 128.026C54.929 128.253 55.089 128.427 55.2936 128.546C55.4981 128.663 55.7358 128.722 56.0067 128.722C56.1828 128.722 56.3419 128.697 56.4839 128.648C56.6279 128.597 56.7519 128.521 56.8561 128.421C56.9603 128.319 57.0407 128.192 57.0976 128.04L57.7453 128.222C57.6771 128.442 57.5625 128.635 57.4015 128.802C57.2406 128.966 57.0417 129.095 56.805 129.188C56.5682 129.279 56.3021 129.324 56.0067 129.324ZM64.1743 125.847L63.572 126.017C63.5341 125.917 63.4782 125.82 63.4044 125.725C63.3324 125.628 63.2339 125.549 63.1089 125.486C62.9839 125.424 62.8239 125.392 62.6288 125.392C62.3618 125.392 62.1392 125.454 61.9612 125.577C61.7851 125.698 61.697 125.853 61.697 126.04C61.697 126.207 61.7576 126.339 61.8788 126.435C62 126.532 62.1894 126.612 62.447 126.677L63.0947 126.836C63.4849 126.93 63.7756 127.075 63.9669 127.27C64.1582 127.464 64.2538 127.713 64.2538 128.017C64.2538 128.267 64.1818 128.491 64.0379 128.688C63.8959 128.885 63.697 129.04 63.4413 129.154C63.1856 129.267 62.8883 129.324 62.5493 129.324C62.1042 129.324 61.7358 129.228 61.4442 129.035C61.1525 128.841 60.9678 128.559 60.8902 128.188L61.5265 128.029C61.5872 128.264 61.7017 128.44 61.8703 128.557C62.0407 128.675 62.2633 128.733 62.5379 128.733C62.8504 128.733 63.0985 128.667 63.2822 128.535C63.4678 128.4 63.5606 128.239 63.5606 128.052C63.5606 127.9 63.5076 127.773 63.4015 127.671C63.2955 127.567 63.1326 127.489 62.9129 127.438L62.1856 127.267C61.786 127.173 61.4925 127.026 61.305 126.827C61.1193 126.626 61.0265 126.375 61.0265 126.074C61.0265 125.828 61.0957 125.61 61.2339 125.421C61.3741 125.232 61.5644 125.083 61.805 124.975C62.0474 124.867 62.322 124.813 62.6288 124.813C63.0606 124.813 63.3997 124.908 63.6459 125.097C63.894 125.286 64.0701 125.536 64.1743 125.847ZM65.9335 126.608V129.233H65.2631V123.415H65.9335V125.552H65.9903C66.0926 125.326 66.246 125.147 66.4506 125.015C66.657 124.88 66.9316 124.813 67.2744 124.813C67.5718 124.813 67.8322 124.873 68.0557 124.992C68.2791 125.109 68.4524 125.29 68.5756 125.535C68.7006 125.777 68.7631 126.086 68.7631 126.461V129.233H68.0926V126.506C68.0926 126.16 68.0026 125.892 67.8227 125.702C67.6447 125.511 67.3975 125.415 67.0812 125.415C66.8615 125.415 66.6646 125.462 66.4903 125.554C66.318 125.647 66.1816 125.783 66.0812 125.961C65.9827 126.139 65.9335 126.355 65.9335 126.608ZM71.2737 129.336C70.9972 129.336 70.7462 129.284 70.5209 129.179C70.2955 129.073 70.1165 128.921 69.9839 128.722C69.8514 128.521 69.7851 128.279 69.7851 127.995C69.7851 127.745 69.8343 127.542 69.9328 127.387C70.0313 127.23 70.1629 127.107 70.3277 127.017C70.4925 126.928 70.6743 126.862 70.8731 126.819C71.0739 126.773 71.2756 126.737 71.4782 126.711C71.7434 126.677 71.9584 126.651 72.1231 126.634C72.2898 126.615 72.411 126.584 72.4868 126.54C72.5644 126.497 72.6032 126.421 72.6032 126.313V126.29C72.6032 126.01 72.5265 125.792 72.3731 125.637C72.2216 125.482 71.9915 125.404 71.6828 125.404C71.3627 125.404 71.1118 125.474 70.93 125.614C70.7481 125.754 70.6203 125.904 70.5464 126.063L69.9101 125.836C70.0237 125.571 70.1752 125.364 70.3646 125.216C70.5559 125.067 70.7642 124.963 70.9896 124.904C71.2169 124.843 71.4404 124.813 71.6601 124.813C71.8002 124.813 71.9612 124.83 72.143 124.864C72.3267 124.896 72.5038 124.964 72.6743 125.066C72.8466 125.168 72.9896 125.322 73.1032 125.529C73.2169 125.735 73.2737 126.012 73.2737 126.358V129.233H72.6032V128.642H72.5692C72.5237 128.737 72.4479 128.839 72.3419 128.946C72.2358 129.054 72.0947 129.146 71.9186 129.222C71.7425 129.298 71.5275 129.336 71.2737 129.336ZM71.376 128.733C71.6411 128.733 71.8646 128.681 72.0464 128.577C72.2301 128.473 72.3684 128.339 72.4612 128.174C72.5559 128.009 72.6032 127.836 72.6032 127.654V127.04C72.5748 127.074 72.5123 127.106 72.4157 127.134C72.3211 127.16 72.2112 127.184 72.0862 127.205C71.9631 127.224 71.8428 127.241 71.7254 127.256C71.6099 127.269 71.5161 127.281 71.4442 127.29C71.2699 127.313 71.107 127.35 70.9555 127.401C70.8059 127.45 70.6847 127.525 70.5919 127.625C70.501 127.724 70.4555 127.858 70.4555 128.029C70.4555 128.262 70.5417 128.438 70.714 128.557C70.8883 128.675 71.1089 128.733 71.376 128.733ZM76.1452 129.324C75.7815 129.324 75.4605 129.232 75.1821 129.049C74.9037 128.863 74.6859 128.602 74.5287 128.265C74.3715 127.926 74.2929 127.525 74.2929 127.063C74.2929 126.605 74.3715 126.207 74.5287 125.87C74.6859 125.533 74.9046 125.272 75.1849 125.089C75.4652 124.905 75.7891 124.813 76.1565 124.813C76.4406 124.813 76.665 124.86 76.8298 124.955C76.9965 125.048 77.1234 125.154 77.2105 125.273C77.2995 125.391 77.3686 125.487 77.4179 125.563H77.4747V123.415H78.1452V129.233H77.4974V128.563H77.4179C77.3686 128.642 77.2986 128.743 77.2077 128.864C77.1167 128.983 76.987 129.09 76.8184 129.185C76.6499 129.278 76.4255 129.324 76.1452 129.324ZM76.2361 128.722C76.505 128.722 76.7323 128.652 76.9179 128.512C77.1035 128.37 77.2446 128.174 77.3412 127.924C77.4378 127.672 77.4861 127.381 77.4861 127.052C77.4861 126.726 77.4387 126.441 77.344 126.196C77.2493 125.95 77.1092 125.759 76.9236 125.623C76.738 125.484 76.5088 125.415 76.2361 125.415C75.952 125.415 75.7152 125.488 75.5258 125.634C75.3383 125.778 75.1972 125.974 75.1025 126.222C75.0097 126.468 74.9633 126.745 74.9633 127.052C74.9633 127.362 75.0107 127.644 75.1054 127.898C75.202 128.15 75.344 128.351 75.5315 128.5C75.7209 128.648 75.9558 128.722 76.2361 128.722ZM81.2389 129.324C80.845 129.324 80.4993 129.231 80.202 129.043C79.9065 128.856 79.6755 128.593 79.5088 128.256C79.344 127.919 79.2616 127.525 79.2616 127.074C79.2616 126.62 79.344 126.223 79.5088 125.884C79.6755 125.545 79.9065 125.282 80.202 125.094C80.4993 124.907 80.845 124.813 81.2389 124.813C81.6328 124.813 81.9775 124.907 82.273 125.094C82.5703 125.282 82.8014 125.545 82.9662 125.884C83.1328 126.223 83.2162 126.62 83.2162 127.074C83.2162 127.525 83.1328 127.919 82.9662 128.256C82.8014 128.593 82.5703 128.856 82.273 129.043C81.9775 129.231 81.6328 129.324 81.2389 129.324ZM81.2389 128.722C81.5381 128.722 81.7844 128.645 81.9775 128.492C82.1707 128.339 82.3137 128.137 82.4065 127.887C82.4993 127.637 82.5457 127.366 82.5457 127.074C82.5457 126.783 82.4993 126.511 82.4065 126.259C82.3137 126.007 82.1707 125.803 81.9775 125.648C81.7844 125.493 81.5381 125.415 81.2389 125.415C80.9397 125.415 80.6934 125.493 80.5003 125.648C80.3071 125.803 80.1641 126.007 80.0713 126.259C79.9785 126.511 79.9321 126.783 79.9321 127.074C79.9321 127.366 79.9785 127.637 80.0713 127.887C80.1641 128.137 80.3071 128.339 80.5003 128.492C80.6934 128.645 80.9397 128.722 81.2389 128.722ZM85.0798 129.233L83.7503 124.87H84.4548L85.398 128.211H85.4434L86.3753 124.87H87.0912L88.0116 128.199H88.0571L89.0003 124.87H89.7048L88.3753 129.233H87.7162L86.7616 125.881H86.6934L85.7389 129.233H85.0798ZM94.6139 129.324C94.2048 129.324 93.8525 129.228 93.5571 129.035C93.2616 128.841 93.0344 128.575 92.8753 128.236C92.7162 127.897 92.6366 127.51 92.6366 127.074C92.6366 126.631 92.7181 126.24 92.8809 125.901C93.0457 125.56 93.2749 125.294 93.5684 125.103C93.8639 124.91 94.2086 124.813 94.6025 124.813C94.9094 124.813 95.1859 124.87 95.4321 124.983C95.6783 125.097 95.88 125.256 96.0372 125.461C96.1944 125.665 96.2919 125.904 96.3298 126.177H95.6594C95.6082 125.978 95.4946 125.802 95.3184 125.648C95.1442 125.493 94.9094 125.415 94.6139 125.415C94.3525 125.415 94.1234 125.483 93.9264 125.62C93.7313 125.754 93.5789 125.945 93.469 126.191C93.3611 126.435 93.3071 126.722 93.3071 127.052C93.3071 127.389 93.3601 127.682 93.4662 127.932C93.5741 128.182 93.7256 128.376 93.9207 128.515C94.1177 128.653 94.3488 128.722 94.6139 128.722C94.7881 128.722 94.9463 128.692 95.0883 128.631C95.2304 128.571 95.3506 128.483 95.4491 128.37C95.5476 128.256 95.6177 128.12 95.6594 127.961H96.3298C96.2919 128.218 96.1982 128.45 96.0486 128.657C95.9008 128.861 95.7048 129.024 95.4605 129.145C95.2181 129.265 94.9359 129.324 94.6139 129.324ZM99.0827 129.324C98.6887 129.324 98.3431 129.231 98.0457 129.043C97.7503 128.856 97.5192 128.593 97.3525 128.256C97.1878 127.919 97.1054 127.525 97.1054 127.074C97.1054 126.62 97.1878 126.223 97.3525 125.884C97.5192 125.545 97.7503 125.282 98.0457 125.094C98.3431 124.907 98.6887 124.813 99.0827 124.813C99.4766 124.813 99.8213 124.907 100.117 125.094C100.414 125.282 100.645 125.545 100.81 125.884C100.977 126.223 101.06 126.62 101.06 127.074C101.06 127.525 100.977 127.919 100.81 128.256C100.645 128.593 100.414 128.856 100.117 129.043C99.8213 129.231 99.4766 129.324 99.0827 129.324ZM99.0827 128.722C99.3819 128.722 99.6281 128.645 99.8213 128.492C100.014 128.339 100.157 128.137 100.25 127.887C100.343 127.637 100.389 127.366 100.389 127.074C100.389 126.783 100.343 126.511 100.25 126.259C100.157 126.007 100.014 125.803 99.8213 125.648C99.6281 125.493 99.3819 125.415 99.0827 125.415C98.7834 125.415 98.5372 125.493 98.344 125.648C98.1508 125.803 98.0078 126.007 97.915 126.259C97.8222 126.511 97.7758 126.783 97.7758 127.074C97.7758 127.366 97.8222 127.637 97.915 127.887C98.0078 128.137 98.1508 128.339 98.344 128.492C98.5372 128.645 98.7834 128.722 99.0827 128.722ZM102.083 129.233V124.87H102.731V125.552H102.788C102.879 125.319 103.026 125.138 103.228 125.009C103.431 124.878 103.674 124.813 103.958 124.813C104.246 124.813 104.486 124.878 104.677 125.009C104.87 125.138 105.021 125.319 105.129 125.552H105.174C105.286 125.326 105.454 125.147 105.677 125.015C105.901 124.88 106.169 124.813 106.481 124.813C106.871 124.813 107.19 124.935 107.438 125.179C107.687 125.422 107.811 125.8 107.811 126.313V129.233H107.14V126.313C107.14 125.991 107.052 125.761 106.876 125.623C106.7 125.484 106.492 125.415 106.254 125.415C105.947 125.415 105.709 125.508 105.541 125.694C105.372 125.877 105.288 126.11 105.288 126.392V129.233H104.606V126.245C104.606 125.997 104.526 125.797 104.365 125.645C104.204 125.492 103.996 125.415 103.742 125.415C103.568 125.415 103.405 125.462 103.254 125.554C103.104 125.647 102.983 125.776 102.89 125.941C102.799 126.104 102.754 126.292 102.754 126.506V129.233H102.083ZM109.036 129.233V124.87H109.684V125.552H109.741C109.832 125.319 109.979 125.138 110.181 125.009C110.384 124.878 110.627 124.813 110.911 124.813C111.199 124.813 111.439 124.878 111.63 125.009C111.823 125.138 111.974 125.319 112.082 125.552H112.127C112.239 125.326 112.407 125.147 112.63 125.015C112.854 124.88 113.122 124.813 113.434 124.813C113.824 124.813 114.143 124.935 114.392 125.179C114.64 125.422 114.764 125.8 114.764 126.313V129.233H114.093V126.313C114.093 125.991 114.005 125.761 113.829 125.623C113.653 125.484 113.446 125.415 113.207 125.415C112.9 125.415 112.662 125.508 112.494 125.694C112.325 125.877 112.241 126.11 112.241 126.392V129.233H111.559V126.245C111.559 125.997 111.479 125.797 111.318 125.645C111.157 125.492 110.949 125.415 110.696 125.415C110.521 125.415 110.358 125.462 110.207 125.554C110.057 125.647 109.936 125.776 109.843 125.941C109.752 126.104 109.707 126.292 109.707 126.506V129.233H109.036ZM117.819 129.324C117.399 129.324 117.036 129.232 116.731 129.046C116.428 128.858 116.194 128.597 116.029 128.262C115.867 127.925 115.785 127.533 115.785 127.086C115.785 126.639 115.867 126.245 116.029 125.904C116.194 125.561 116.423 125.294 116.717 125.103C117.012 124.91 117.357 124.813 117.751 124.813C117.978 124.813 118.203 124.851 118.424 124.927C118.646 125.002 118.848 125.125 119.029 125.296C119.211 125.464 119.356 125.688 119.464 125.966C119.572 126.245 119.626 126.588 119.626 126.995V127.279H116.262V126.699H118.944C118.944 126.453 118.895 126.233 118.796 126.04C118.7 125.847 118.562 125.695 118.382 125.583C118.204 125.471 117.993 125.415 117.751 125.415C117.484 125.415 117.253 125.482 117.058 125.614C116.865 125.745 116.716 125.915 116.612 126.125C116.508 126.336 116.456 126.561 116.456 126.802V127.188C116.456 127.517 116.512 127.797 116.626 128.026C116.742 128.253 116.902 128.427 117.106 128.546C117.311 128.663 117.548 128.722 117.819 128.722C117.995 128.722 118.154 128.697 118.296 128.648C118.44 128.597 118.564 128.521 118.669 128.421C118.773 128.319 118.853 128.192 118.91 128.04L119.558 128.222C119.49 128.442 119.375 128.635 119.214 128.802C119.053 128.966 118.854 129.095 118.617 129.188C118.381 129.279 118.115 129.324 117.819 129.324ZM121.316 126.608V129.233H120.646V124.87H121.294V125.552H121.35C121.453 125.33 121.608 125.152 121.816 125.017C122.025 124.881 122.294 124.813 122.623 124.813C122.919 124.813 123.177 124.874 123.399 124.995C123.62 125.114 123.793 125.296 123.916 125.54C124.039 125.783 124.1 126.089 124.1 126.461V129.233H123.43V126.506C123.43 126.163 123.341 125.896 123.163 125.705C122.985 125.512 122.741 125.415 122.43 125.415C122.216 125.415 122.025 125.462 121.856 125.554C121.689 125.647 121.558 125.783 121.461 125.961C121.365 126.139 121.316 126.355 121.316 126.608ZM127.223 124.87V125.438H124.962V124.87H127.223ZM125.621 123.824H126.291V127.983C126.291 128.173 126.319 128.315 126.374 128.41C126.431 128.502 126.503 128.565 126.59 128.597C126.679 128.627 126.773 128.642 126.871 128.642C126.945 128.642 127.005 128.639 127.053 128.631C127.1 128.622 127.138 128.614 127.166 128.608L127.303 129.211C127.257 129.228 127.194 129.245 127.112 129.262C127.031 129.281 126.928 129.29 126.803 129.29C126.613 129.29 126.428 129.249 126.246 129.168C126.066 129.087 125.916 128.963 125.797 128.796C125.68 128.629 125.621 128.419 125.621 128.165V123.824ZM130.482 130.87V124.87H131.13V125.563H131.209C131.258 125.487 131.326 125.391 131.414 125.273C131.503 125.154 131.63 125.048 131.794 124.955C131.961 124.86 132.186 124.813 132.47 124.813C132.838 124.813 133.162 124.905 133.442 125.089C133.722 125.272 133.941 125.533 134.098 125.87C134.255 126.207 134.334 126.605 134.334 127.063C134.334 127.525 134.255 127.926 134.098 128.265C133.941 128.602 133.723 128.863 133.445 129.049C133.166 129.232 132.845 129.324 132.482 129.324C132.201 129.324 131.977 129.278 131.809 129.185C131.64 129.09 131.51 128.983 131.419 128.864C131.328 128.743 131.258 128.642 131.209 128.563H131.152V130.87H130.482ZM131.141 127.052C131.141 127.381 131.189 127.672 131.286 127.924C131.382 128.174 131.523 128.37 131.709 128.512C131.895 128.652 132.122 128.722 132.391 128.722C132.671 128.722 132.905 128.648 133.093 128.5C133.282 128.351 133.424 128.15 133.519 127.898C133.615 127.644 133.664 127.362 133.664 127.052C133.664 126.745 133.616 126.468 133.522 126.222C133.429 125.974 133.288 125.778 133.098 125.634C132.911 125.488 132.675 125.415 132.391 125.415C132.118 125.415 131.889 125.484 131.703 125.623C131.518 125.759 131.378 125.95 131.283 126.196C131.188 126.441 131.141 126.726 131.141 127.052ZM135.357 129.233V124.87H136.005V125.529H136.05C136.13 125.313 136.273 125.138 136.482 125.003C136.69 124.869 136.925 124.802 137.186 124.802C137.236 124.802 137.297 124.803 137.371 124.804C137.445 124.806 137.501 124.809 137.539 124.813V125.495C137.516 125.489 137.464 125.481 137.382 125.469C137.303 125.456 137.219 125.449 137.13 125.449C136.917 125.449 136.728 125.494 136.561 125.583C136.397 125.67 136.266 125.791 136.169 125.946C136.075 126.1 136.027 126.275 136.027 126.472V129.233H135.357ZM139.973 129.324C139.579 129.324 139.234 129.231 138.936 129.043C138.641 128.856 138.41 128.593 138.243 128.256C138.078 127.919 137.996 127.525 137.996 127.074C137.996 126.62 138.078 126.223 138.243 125.884C138.41 125.545 138.641 125.282 138.936 125.094C139.234 124.907 139.579 124.813 139.973 124.813C140.367 124.813 140.712 124.907 141.007 125.094C141.305 125.282 141.536 125.545 141.701 125.884C141.867 126.223 141.951 126.62 141.951 127.074C141.951 127.525 141.867 127.919 141.701 128.256C141.536 128.593 141.305 128.856 141.007 129.043C140.712 129.231 140.367 129.324 139.973 129.324ZM139.973 128.722C140.273 128.722 140.519 128.645 140.712 128.492C140.905 128.339 141.048 128.137 141.141 127.887C141.234 127.637 141.28 127.366 141.28 127.074C141.28 126.783 141.234 126.511 141.141 126.259C141.048 126.007 140.905 125.803 140.712 125.648C140.519 125.493 140.273 125.415 139.973 125.415C139.674 125.415 139.428 125.493 139.235 125.648C139.041 125.803 138.898 126.007 138.806 126.259C138.713 126.511 138.666 126.783 138.666 127.074C138.666 127.366 138.713 127.637 138.806 127.887C138.898 128.137 139.041 128.339 139.235 128.492C139.428 128.645 139.674 128.722 139.973 128.722ZM142.974 124.87H143.644V129.552C143.644 129.821 143.598 130.053 143.505 130.25C143.414 130.447 143.276 130.6 143.09 130.708C142.907 130.816 142.675 130.87 142.394 130.87C142.372 130.87 142.349 130.87 142.326 130.87C142.304 130.87 142.281 130.87 142.258 130.87V130.245C142.281 130.245 142.302 130.245 142.321 130.245C142.34 130.245 142.36 130.245 142.383 130.245C142.588 130.245 142.737 130.184 142.832 130.063C142.927 129.944 142.974 129.773 142.974 129.552V124.87ZM143.304 124.142C143.173 124.142 143.06 124.098 142.965 124.009C142.873 123.92 142.826 123.813 142.826 123.688C142.826 123.563 142.873 123.456 142.965 123.367C143.06 123.278 143.173 123.233 143.304 123.233C143.434 123.233 143.546 123.278 143.639 123.367C143.733 123.456 143.781 123.563 143.781 123.688C143.781 123.813 143.733 123.92 143.639 124.009C143.546 124.098 143.434 124.142 143.304 124.142ZM146.702 129.324C146.282 129.324 145.919 129.232 145.614 129.046C145.311 128.858 145.077 128.597 144.912 128.262C144.749 127.925 144.668 127.533 144.668 127.086C144.668 126.639 144.749 126.245 144.912 125.904C145.077 125.561 145.306 125.294 145.6 125.103C145.895 124.91 146.24 124.813 146.634 124.813C146.861 124.813 147.085 124.851 147.307 124.927C147.529 125.002 147.73 125.125 147.912 125.296C148.094 125.464 148.239 125.688 148.347 125.966C148.455 126.245 148.509 126.588 148.509 126.995V127.279H145.145V126.699H147.827C147.827 126.453 147.778 126.233 147.679 126.04C147.583 125.847 147.444 125.695 147.264 125.583C147.086 125.471 146.876 125.415 146.634 125.415C146.367 125.415 146.136 125.482 145.941 125.614C145.747 125.745 145.599 125.915 145.495 126.125C145.39 126.336 145.338 126.561 145.338 126.802V127.188C145.338 127.517 145.395 127.797 145.509 128.026C145.624 128.253 145.784 128.427 145.989 128.546C146.193 128.663 146.431 128.722 146.702 128.722C146.878 128.722 147.037 128.697 147.179 128.648C147.323 128.597 147.447 128.521 147.551 128.421C147.656 128.319 147.736 128.192 147.793 128.04L148.441 128.222C148.372 128.442 148.258 128.635 148.097 128.802C147.936 128.966 147.737 129.095 147.5 129.188C147.264 129.279 146.997 129.324 146.702 129.324ZM151.301 129.324C150.892 129.324 150.54 129.228 150.245 129.035C149.949 128.841 149.722 128.575 149.563 128.236C149.404 127.897 149.324 127.51 149.324 127.074C149.324 126.631 149.406 126.24 149.568 125.901C149.733 125.56 149.962 125.294 150.256 125.103C150.551 124.91 150.896 124.813 151.29 124.813C151.597 124.813 151.873 124.87 152.12 124.983C152.366 125.097 152.568 125.256 152.725 125.461C152.882 125.665 152.979 125.904 153.017 126.177H152.347C152.296 125.978 152.182 125.802 152.006 125.648C151.832 125.493 151.597 125.415 151.301 125.415C151.04 125.415 150.811 125.483 150.614 125.62C150.419 125.754 150.266 125.945 150.157 126.191C150.049 126.435 149.995 126.722 149.995 127.052C149.995 127.389 150.048 127.682 150.154 127.932C150.262 128.182 150.413 128.376 150.608 128.515C150.805 128.653 151.036 128.722 151.301 128.722C151.476 128.722 151.634 128.692 151.776 128.631C151.918 128.571 152.038 128.483 152.137 128.37C152.235 128.256 152.305 128.12 152.347 127.961H153.017C152.979 128.218 152.886 128.45 152.736 128.657C152.588 128.861 152.392 129.024 152.148 129.145C151.906 129.265 151.623 129.324 151.301 129.324ZM155.895 124.87V125.438H153.634V124.87H155.895ZM154.293 123.824H154.963V127.983C154.963 128.173 154.991 128.315 155.046 128.41C155.103 128.502 155.175 128.565 155.262 128.597C155.351 128.627 155.444 128.642 155.543 128.642C155.617 128.642 155.677 128.639 155.725 128.631C155.772 128.622 155.81 128.614 155.838 128.608L155.975 129.211C155.929 129.228 155.866 129.245 155.784 129.262C155.703 129.281 155.6 129.29 155.475 129.29C155.285 129.29 155.1 129.249 154.918 129.168C154.738 129.087 154.588 128.963 154.469 128.796C154.352 128.629 154.293 128.419 154.293 128.165V123.824ZM157.392 129.279C157.252 129.279 157.132 129.229 157.032 129.128C156.931 129.028 156.881 128.908 156.881 128.767C156.881 128.627 156.931 128.507 157.032 128.407C157.132 128.306 157.252 128.256 157.392 128.256C157.532 128.256 157.653 128.306 157.753 128.407C157.853 128.507 157.904 128.627 157.904 128.767C157.904 128.86 157.88 128.946 157.833 129.023C157.787 129.101 157.726 129.163 157.648 129.211C157.572 129.256 157.487 129.279 157.392 129.279Z" fill="#5A585C"/>
<rect x="33.4957" y="136.372" width="117.467" height="18.2995" rx="4.64975" stroke="#D7D7D7" stroke-opacity="0.6" stroke-width="0.489447"/>
<path d="M43.5754 142.504H45.4299C47.0665 142.504 48.0339 143.525 48.0339 145.261C48.0339 147.001 47.0703 148.022 45.4299 148.022H43.5754V142.504ZM44.2637 143.124V147.403H45.384C46.6344 147.403 47.3303 146.638 47.3303 145.269C47.3303 143.889 46.6382 143.124 45.384 143.124H44.2637ZM48.7872 148.022V144.045H49.4143V144.696H49.4296C49.5596 144.256 49.9267 143.977 50.3932 143.977C50.5079 143.977 50.6074 143.996 50.6609 144.003V144.65C50.6074 144.631 50.4659 144.611 50.3053 144.611C49.7891 144.611 49.4526 144.982 49.4526 145.544V148.022H48.7872ZM52.439 147.525C53.0661 147.525 53.5479 147.085 53.5479 146.512V146.187L52.4848 146.252C51.9495 146.286 51.6436 146.523 51.6436 146.898C51.6436 147.277 51.961 147.525 52.439 147.525ZM52.2898 148.091C51.4983 148.091 50.9668 147.613 50.9668 146.898C50.9668 146.217 51.4907 145.789 52.4084 145.736L53.5479 145.671V145.338C53.5479 144.852 53.2267 144.562 52.676 144.562C52.1636 144.562 51.8424 144.803 51.7583 145.193H51.1159C51.1618 144.504 51.7507 143.977 52.6913 143.977C53.6243 143.977 54.2132 144.481 54.2132 145.273V148.022H53.5823V147.338H53.567C53.3299 147.793 52.8252 148.091 52.2898 148.091ZM56.6757 147.468C57.3678 147.468 57.8305 146.894 57.8305 146.019C57.8305 145.143 57.3678 144.562 56.6757 144.562C55.9913 144.562 55.5439 145.128 55.5439 146.019C55.5439 146.909 55.9913 147.468 56.6757 147.468ZM56.6987 149.521C55.823 149.521 55.1309 149.028 55.02 148.351H55.7045C55.8345 148.714 56.2283 148.955 56.7254 148.955C57.4137 148.955 57.8305 148.558 57.8305 147.965V147.338H57.8152C57.5705 147.77 57.1002 148.053 56.5419 148.053C55.5286 148.053 54.8632 147.254 54.8632 146.019C54.8632 144.772 55.5286 143.977 56.5572 143.977C57.1193 143.977 57.5858 144.252 57.8496 144.715H57.8611V144.045H58.4959V147.942C58.4959 148.89 57.7961 149.521 56.6987 149.521ZM64.9772 148.022L64.4648 147.468C63.9983 147.881 63.3559 148.114 62.7021 148.114C61.6123 148.114 60.8513 147.472 60.8513 146.554C60.8513 145.908 61.2031 145.411 61.9335 145.024C62.0444 144.967 62.1132 144.929 62.1438 144.917C61.6505 144.393 61.4593 144.038 61.4593 143.636C61.4593 142.937 62.0558 142.413 62.8512 142.413C63.6618 142.413 64.2469 142.929 64.2469 143.644C64.2469 144.206 63.9066 144.615 63.0653 145.059L64.4304 146.531C64.6101 146.194 64.6943 145.743 64.6943 145.063V144.898H65.329V145.066C65.329 145.908 65.1761 146.519 64.874 146.994L65.8414 148.022H64.9772ZM62.3273 145.426C61.7576 145.774 61.532 146.084 61.532 146.508C61.532 147.124 62.0291 147.54 62.7632 147.54C63.2565 147.54 63.7689 147.342 64.0633 147.028L62.5109 145.326C62.4612 145.349 62.3617 145.403 62.3273 145.426ZM62.6982 144.673C63.3597 144.336 63.6045 144.061 63.6045 143.667C63.6045 143.246 63.3024 142.952 62.855 142.952C62.4191 142.952 62.1094 143.254 62.1094 143.675C62.1094 143.977 62.27 144.244 62.6982 144.673ZM67.9177 142.504H69.7723C71.4089 142.504 72.3763 143.525 72.3763 145.261C72.3763 147.001 71.4127 148.022 69.7723 148.022H67.9177V142.504ZM68.606 143.124V147.403H69.7264C70.9768 147.403 71.6727 146.638 71.6727 145.269C71.6727 143.889 70.9806 143.124 69.7264 143.124H68.606ZM73.1296 148.022V144.045H73.7567V144.696H73.772C73.902 144.256 74.2691 143.977 74.7356 143.977C74.8503 143.977 74.9497 143.996 75.0032 144.003V144.65C74.9497 144.631 74.8082 144.611 74.6476 144.611C74.1314 144.611 73.7949 144.982 73.7949 145.544V148.022H73.1296ZM77.0031 148.091C75.9018 148.091 75.16 147.3 75.16 146.034C75.16 144.764 75.9018 143.977 77.0031 143.977C78.1005 143.977 78.8423 144.764 78.8423 146.034C78.8423 147.3 78.1005 148.091 77.0031 148.091ZM77.0031 147.506C77.7067 147.506 78.1655 146.971 78.1655 146.034C78.1655 145.097 77.7067 144.562 77.0031 144.562C76.2995 144.562 75.8368 145.097 75.8368 146.034C75.8368 146.971 76.2995 147.506 77.0031 147.506ZM81.4464 143.977C82.4597 143.977 83.1479 144.787 83.1479 146.034C83.1479 147.28 82.4635 148.091 81.4616 148.091C80.8919 148.091 80.433 147.812 80.196 147.376H80.1807V149.349H79.5153V144.045H80.1463V144.718H80.1616C80.4063 144.271 80.869 143.977 81.4464 143.977ZM81.3163 147.506C82.0237 147.506 82.4673 146.936 82.4673 146.034C82.4673 145.135 82.0237 144.562 81.3163 144.562C80.6357 144.562 80.1768 145.151 80.1768 146.034C80.1768 146.921 80.6357 147.506 81.3163 147.506Z" fill="black" fill-opacity="0.6"/>
</g>
<defs>
<filter id="filter0_d_636_10834" x="-55.4326" y="0.191406" width="295.323" height="242.514" filterUnits="userSpaceOnUse" color-interpolation-filters="sRGB">
<feFlood flood-opacity="0" result="BackgroundImageFix"/>
<feColorMatrix in="SourceAlpha" type="matrix" values="0 0 0 0 0 0 0 0 0 0 0 0 0 0 0 0 0 0 127 0" result="hardAlpha"/>
<feOffset dy="4"/>
<feGaussianBlur stdDeviation="37"/>
<feComposite in2="hardAlpha" operator="out"/>
<feColorMatrix type="matrix" values="0 0 0 0 0 0 0 0 0 0 0 0 0 0 0 0 0 0 0.25 0"/>
<feBlend mode="normal" in2="BackgroundImageFix" result="effect1_dropShadow_636_10834"/>
<feBlend mode="normal" in="SourceGraphic" in2="effect1_dropShadow_636_10834" result="shape"/>
</filter>
<clipPath id="clip0_636_10834">
<rect x="36.064" y="82.7935" width="10.1944" height="10.1944" rx="5.0972" fill="white"/>
</clipPath>
<clipPath id="clip1_636_10834">
<rect width="12.2333" height="12.2333" fill="white" transform="translate(37.7065 84.2092)"/>
</clipPath>
</defs>
</svg>
