<svg width="24" height="25" viewBox="0 0 24 25" fill="none" xmlns="http://www.w3.org/2000/svg">
<path d="M19 11.6245C19.4142 11.6245 19.75 11.9603 19.75 12.3745C19.75 12.7887 19.4142 13.1245 19 13.1245V11.6245ZM4.46967 12.9048C4.17678 12.6119 4.17678 12.1371 4.46967 11.8442L9.24264 7.07121C9.53553 6.77832 10.0104 6.77832 10.3033 7.07121C10.5962 7.3641 10.5962 7.83898 10.3033 8.13187L6.06066 12.3745L10.3033 16.6172C10.5962 16.91 10.5962 17.3849 10.3033 17.6778C10.0104 17.9707 9.53553 17.9707 9.24264 17.6778L4.46967 12.9048ZM19 13.1245L5 13.1245V11.6245L19 11.6245V13.1245Z" fill="#00070B"/>
</svg>
