<svg width="18" height="19" viewBox="0 0 18 19" fill="none" xmlns="http://www.w3.org/2000/svg">
<path d="M4.39122 15.6054L4.83206 14.9987L4.39122 15.6054ZM3.64457 14.8588L4.25133 14.4179L3.64457 14.8588ZM14.5054 14.8588L13.8987 14.4179L14.5054 14.8588ZM13.7588 15.6054L14.1996 16.2122L13.7588 15.6054ZM13.7588 4.74457L14.1996 4.1378L13.7588 4.74457ZM14.5054 5.49122L13.8987 5.93206L14.5054 5.49122ZM4.39122 4.74457L4.83206 5.35133L4.39122 4.74457ZM3.64457 5.49122L4.25133 5.93206L3.64457 5.49122ZM13.947 12.2416L13.8297 11.5008L13.947 12.2416ZM11.1416 15.047L10.4008 14.9297L11.1416 15.047ZM10.35 4.775C10.35 5.18921 10.6858 5.525 11.1 5.525C11.5142 5.525 11.85 5.18921 11.85 4.775H10.35ZM11.85 2.75C11.85 2.33579 11.5142 2 11.1 2C10.6858 2 10.35 2.33579 10.35 2.75H11.85ZM6.3 4.775C6.3 5.18921 6.63579 5.525 7.05 5.525C7.46421 5.525 7.8 5.18921 7.8 4.775H6.3ZM7.8 2.75C7.8 2.33579 7.46421 2 7.05 2C6.63579 2 6.3 2.33579 6.3 2.75H7.8ZM15.1305 12.2L15.88 12.2257L15.1305 12.2ZM11.1 16.2305L11.1257 16.98L11.1 16.2305ZM9.075 15.5C7.79276 15.5 6.89132 15.499 6.19744 15.4238C5.51758 15.3501 5.12649 15.2126 4.83206 14.9987L3.95039 16.2122C4.54313 16.6429 5.22839 16.8276 6.03587 16.9151C6.82931 17.001 7.82617 17 9.075 17V15.5ZM2.25 10.175C2.25 11.4238 2.24897 12.4207 2.33493 13.2141C2.42242 14.0216 2.60715 14.7069 3.0378 15.2996L4.25133 14.4179C4.03742 14.1235 3.89986 13.7324 3.82621 13.0526C3.75103 12.3587 3.75 11.4572 3.75 10.175H2.25ZM4.83206 14.9987C4.60922 14.8368 4.41324 14.6408 4.25133 14.4179L3.0378 15.2996C3.29223 15.6498 3.6002 15.9578 3.95039 16.2122L4.83206 14.9987ZM13.8987 14.4179C13.7368 14.6408 13.5408 14.8368 13.3179 14.9987L14.1996 16.2122C14.5498 15.9578 14.8578 15.6498 15.1122 15.2996L13.8987 14.4179ZM15.9 10.175C15.9 8.92617 15.901 7.92931 15.8151 7.13587C15.7276 6.32839 15.5429 5.64313 15.1122 5.05039L13.8987 5.93206C14.1126 6.22649 14.2501 6.61758 14.3238 7.29744C14.399 7.99132 14.4 8.89276 14.4 10.175H15.9ZM13.3179 5.35133C13.5408 5.51324 13.7368 5.70922 13.8987 5.93206L15.1122 5.05039C14.8578 4.70019 14.5498 4.39223 14.1996 4.1378L13.3179 5.35133ZM3.75 10.175C3.75 8.89276 3.75103 7.99132 3.82621 7.29744C3.89986 6.61758 4.03742 6.22649 4.25133 5.93206L3.0378 5.05039C2.60715 5.64313 2.42242 6.32839 2.33493 7.13587C2.24897 7.92931 2.25 8.92617 2.25 10.175H3.75ZM3.95039 4.1378C3.6002 4.39223 3.29223 4.7002 3.0378 5.05039L4.25133 5.93206C4.41324 5.70922 4.60922 5.51324 4.83206 5.35133L3.95039 4.1378ZM13.8297 11.5008C12.0647 11.7803 10.6803 13.1647 10.4008 14.9297L11.8823 15.1644C12.0602 14.0411 12.9411 13.1602 14.0644 12.9823L13.8297 11.5008ZM7.8 4.775V4.11953H6.3V4.775H7.8ZM7.8 4.11953V2.75H6.3V4.11953H7.8ZM9.075 3.35C8.29013 3.35 7.60983 3.34991 7.02432 3.36997L7.07568 4.86909C7.63004 4.85009 8.28182 4.85 9.075 4.85V3.35ZM7.02432 3.36997C5.75673 3.4134 4.76005 3.54955 3.95039 4.1378L4.83206 5.35133C5.24362 5.05232 5.82662 4.91188 7.07568 4.86909L7.02432 3.36997ZM11.85 4.775V4.11953H10.35V4.775H11.85ZM11.85 4.11953V2.75H10.35V4.11953H11.85ZM9.075 4.85C9.86818 4.85 10.52 4.85009 11.0743 4.86909L11.1257 3.36997C10.5402 3.34991 9.85987 3.35 9.075 3.35V4.85ZM11.0743 4.86909C12.3234 4.91188 12.9064 5.05232 13.3179 5.35133L14.1996 4.1378C13.3899 3.54955 12.3933 3.4134 11.1257 3.36997L11.0743 4.86909ZM15.1305 11.45C14.5439 11.45 14.1621 11.4481 13.8297 11.5008L14.0644 12.9823C14.2512 12.9527 14.4889 12.95 15.1305 12.95L15.1305 11.45ZM14.4 10.175C14.4 10.9682 14.3999 11.62 14.3809 12.1743L15.88 12.2257C15.9001 11.6402 15.9 10.9599 15.9 10.175H14.4ZM14.3809 12.1743C14.3381 13.4234 14.1977 14.0064 13.8987 14.4179L15.1122 15.2996C15.7005 14.49 15.8366 13.4933 15.88 12.2257L14.3809 12.1743ZM11.85 16.2305C11.85 15.5889 11.8527 15.3512 11.8823 15.1644L10.4008 14.9297C10.3481 15.2621 10.35 15.6439 10.35 16.2305L11.85 16.2305ZM9.075 17C9.85988 17 10.5402 17.0001 11.1257 16.98L11.0743 15.4809C10.52 15.4999 9.86817 15.5 9.075 15.5V17ZM11.1257 16.98C12.3933 16.9366 13.3899 16.8005 14.1996 16.2122L13.3179 14.9987C12.9064 15.2977 12.3234 15.4381 11.0743 15.4809L11.1257 16.98Z" fill="#374144"/>
<path d="M6.37539 7.47493C6.37539 7.84772 6.07318 8.14993 5.70039 8.14993C5.3276 8.14993 5.02539 7.84772 5.02539 7.47493C5.02539 7.10213 5.3276 6.79993 5.70039 6.79993C6.07318 6.79993 6.37539 7.10213 6.37539 7.47493Z" fill="#374144"/>
<path d="M6.37539 10.1749C6.37539 10.5477 6.07318 10.8499 5.70039 10.8499C5.3276 10.8499 5.02539 10.5477 5.02539 10.1749C5.02539 9.80213 5.3276 9.49993 5.70039 9.49993C6.07318 9.49993 6.37539 9.80213 6.37539 10.1749Z" fill="#374144"/>
<path d="M9.75039 7.47493C9.75039 7.84772 9.44818 8.14993 9.07539 8.14993C8.7026 8.14993 8.40039 7.84772 8.40039 7.47493C8.40039 7.10213 8.7026 6.79993 9.07539 6.79993C9.44818 6.79993 9.75039 7.10213 9.75039 7.47493Z" fill="#374144"/>
<path d="M9.75039 10.1749C9.75039 10.5477 9.44818 10.8499 9.07539 10.8499C8.7026 10.8499 8.40039 10.5477 8.40039 10.1749C8.40039 9.80213 8.7026 9.49993 9.07539 9.49993C9.44818 9.49993 9.75039 9.80213 9.75039 10.1749Z" fill="#374144"/>
<path d="M9.75039 12.8749C9.75039 13.2477 9.44818 13.5499 9.07539 13.5499C8.7026 13.5499 8.40039 13.2477 8.40039 12.8749C8.40039 12.5021 8.7026 12.1999 9.07539 12.1999C9.44818 12.1999 9.75039 12.5021 9.75039 12.8749Z" fill="#374144"/>
<path d="M13.1254 7.47493C13.1254 7.84772 12.8232 8.14993 12.4504 8.14993C12.0776 8.14993 11.7754 7.84772 11.7754 7.47493C11.7754 7.10213 12.0776 6.79993 12.4504 6.79993C12.8232 6.79993 13.1254 7.10213 13.1254 7.47493Z" fill="#374144"/>
<path d="M13.1254 10.1749C13.1254 10.5477 12.8232 10.8499 12.4504 10.8499C12.0776 10.8499 11.7754 10.5477 11.7754 10.1749C11.7754 9.80213 12.0776 9.49993 12.4504 9.49993C12.8232 9.49993 13.1254 9.80213 13.1254 10.1749Z" fill="#374144"/>
<path d="M6.37539 12.8749C6.37539 13.2477 6.07318 13.5499 5.70039 13.5499C5.3276 13.5499 5.02539 13.2477 5.02539 12.8749C5.02539 12.5021 5.3276 12.1999 5.70039 12.1999C6.07318 12.1999 6.37539 12.5021 6.37539 12.8749Z" fill="#374144"/>
</svg>
