<svg width="22" height="21" viewBox="0 0 22 21" fill="none" xmlns="http://www.w3.org/2000/svg">
<path d="M10.0489 1.42705C10.3483 0.505742 11.6517 0.50574 11.9511 1.42705L13.6942 6.79179C13.828 7.20382 14.212 7.48278 14.6452 7.48278H20.2861C21.2548 7.48278 21.6576 8.72239 20.8738 9.2918L16.3103 12.6074C15.9598 12.862 15.8132 13.3134 15.947 13.7254L17.6902 19.0902C17.9895 20.0115 16.935 20.7776 16.1513 20.2082L11.5878 16.8926C11.2373 16.638 10.7627 16.638 10.4122 16.8926L5.84869 20.2082C5.06498 20.7776 4.0105 20.0115 4.30985 19.0902L6.05296 13.7254C6.18683 13.3134 6.04018 12.862 5.68969 12.6074L1.12616 9.2918C0.342451 8.72239 0.745225 7.48278 1.71395 7.48278H7.35477C7.788 7.48278 8.17196 7.20382 8.30583 6.7918L10.0489 1.42705Z" fill="#FFA800"/>
</svg>
