<svg width="139" height="26" viewBox="0 0 139 26" fill="none" xmlns="http://www.w3.org/2000/svg">
<path d="M12.3182 2.92705C12.6176 2.00574 13.921 2.00574 14.2203 2.92705L15.9635 8.29179C16.0973 8.70382 16.4813 8.98278 16.9145 8.98278H22.5553C23.5241 8.98278 23.9268 10.2224 23.1431 10.7918L18.5796 14.1074C18.2291 14.362 18.0825 14.8134 18.2163 15.2254L19.9594 20.5902C20.2588 21.5115 19.2043 22.2776 18.4206 21.7082L13.8571 18.3926C13.5066 18.138 13.032 18.138 12.6815 18.3926L8.11798 21.7082C7.33426 22.2776 6.27978 21.5115 6.57914 20.5902L8.32225 15.2254C8.45612 14.8134 8.30946 14.362 7.95898 14.1074L3.39545 10.7918C2.61174 10.2224 3.01451 8.98278 3.98324 8.98278H9.62406C10.0573 8.98278 10.4412 8.70382 10.5751 8.2918L12.3182 2.92705Z" fill="#F5B840"/>
<path d="M40.3182 2.92705C40.6176 2.00574 41.921 2.00574 42.2203 2.92705L43.9635 8.29179C44.0973 8.70382 44.4813 8.98278 44.9145 8.98278H50.5553C51.5241 8.98278 51.9268 10.2224 51.1431 10.7918L46.5796 14.1074C46.2291 14.362 46.0825 14.8134 46.2163 15.2254L47.9594 20.5902C48.2588 21.5115 47.2043 22.2776 46.4206 21.7082L41.8571 18.3926C41.5066 18.138 41.032 18.138 40.6815 18.3926L36.118 21.7082C35.3343 22.2776 34.2798 21.5115 34.5791 20.5902L36.3222 15.2254C36.4561 14.8134 36.3095 14.362 35.959 14.1074L31.3955 10.7918C30.6117 10.2224 31.0145 8.98278 31.9832 8.98278H37.6241C38.0573 8.98278 38.4412 8.70382 38.5751 8.2918L40.3182 2.92705Z" fill="#F5B840"/>
<path d="M68.3182 2.92705C68.6176 2.00574 69.921 2.00574 70.2203 2.92705L71.9635 8.29179C72.0973 8.70382 72.4813 8.98278 72.9145 8.98278H78.5553C79.5241 8.98278 79.9268 10.2224 79.1431 10.7918L74.5796 14.1074C74.2291 14.362 74.0825 14.8134 74.2163 15.2254L75.9594 20.5902C76.2588 21.5115 75.2043 22.2776 74.4206 21.7082L69.8571 18.3926C69.5066 18.138 69.032 18.138 68.6815 18.3926L64.118 21.7082C63.3343 22.2776 62.2798 21.5115 62.5791 20.5902L64.3222 15.2254C64.4561 14.8134 64.3095 14.362 63.959 14.1074L59.3955 10.7918C58.6117 10.2224 59.0145 8.98278 59.9832 8.98278H65.6241C66.0573 8.98278 66.4412 8.70382 66.5751 8.2918L68.3182 2.92705Z" fill="#F5B840"/>
<path d="M96.3182 2.92705C96.6176 2.00574 97.921 2.00574 98.2203 2.92705L99.9635 8.29179C100.097 8.70382 100.481 8.98278 100.915 8.98278H106.555C107.524 8.98278 107.927 10.2224 107.143 10.7918L102.58 14.1074C102.229 14.362 102.082 14.8134 102.216 15.2254L103.959 20.5902C104.259 21.5115 103.204 22.2776 102.421 21.7082L97.8571 18.3926C97.5066 18.138 97.032 18.138 96.6815 18.3926L92.118 21.7082C91.3343 22.2776 90.2798 21.5115 90.5791 20.5902L92.3222 15.2254C92.4561 14.8134 92.3095 14.362 91.959 14.1074L87.3955 10.7918C86.6117 10.2224 87.0145 8.98278 87.9832 8.98278H93.6241C94.0573 8.98278 94.4412 8.70382 94.5751 8.2918L96.3182 2.92705Z" fill="#F5B840"/>
<path d="M124.318 2.92705C124.618 2.00574 125.921 2.00574 126.22 2.92705L127.963 8.29179C128.097 8.70382 128.481 8.98278 128.915 8.98278H134.555C135.524 8.98278 135.927 10.2224 135.143 10.7918L130.58 14.1074C130.229 14.362 130.082 14.8134 130.216 15.2254L131.959 20.5902C132.259 21.5115 131.204 22.2776 130.421 21.7082L125.857 18.3926C125.507 18.138 125.032 18.138 124.682 18.3926L120.118 21.7082C119.334 22.2776 118.28 21.5115 118.579 20.5902L120.322 15.2254C120.456 14.8134 120.309 14.362 119.959 14.1074L115.395 10.7918C114.612 10.2224 115.015 8.98278 115.983 8.98278H121.624C122.057 8.98278 122.441 8.70382 122.575 8.2918L124.318 2.92705Z" fill="#F8F8F8"/>
<path d="M124.318 2.92705C124.618 2.00574 125.921 2.00574 126.22 2.92705L127.963 8.29179C128.097 8.70382 128.481 8.98278 128.915 8.98278H134.555C135.524 8.98278 135.927 10.2224 135.143 10.7918L130.58 14.1074C130.229 14.362 130.082 14.8134 130.216 15.2254L131.959 20.5902C132.259 21.5115 131.204 22.2776 130.421 21.7082L125.857 18.3926C125.507 18.138 125.032 18.138 124.682 18.3926L120.118 21.7082C119.334 22.2776 118.28 21.5115 118.579 20.5902L120.322 15.2254C120.456 14.8134 120.309 14.362 119.959 14.1074L115.395 10.7918C114.612 10.2224 115.015 8.98278 115.983 8.98278H121.624C122.057 8.98278 122.441 8.70382 122.575 8.2918L124.318 2.92705Z" fill="url(#paint0_linear_321_2961)"/>
<defs>
<linearGradient id="paint0_linear_321_2961" x1="125.269" y1="12" x2="125.769" y2="12" gradientUnits="userSpaceOnUse">
<stop stop-color="#F5B840"/>
<stop offset="1" stop-color="#F5B840" stop-opacity="0"/>
</linearGradient>
</defs>
</svg>
