<svg width="24" height="25" viewBox="0 0 24 25" fill="none" xmlns="http://www.w3.org/2000/svg">
<path d="M19 11.5C19.5523 11.5 20 11.9477 20 12.5C20 13.0523 19.5523 13.5 19 13.5V11.5ZM4.29289 13.2071C3.90237 12.8166 3.90237 12.1834 4.29289 11.7929L10.6569 5.42893C11.0474 5.03841 11.6805 5.03841 12.0711 5.42893C12.4616 5.81946 12.4616 6.45262 12.0711 6.84315L6.41421 12.5L12.0711 18.1569C12.4616 18.5474 12.4616 19.1805 12.0711 19.5711C11.6805 19.9616 11.0474 19.9616 10.6569 19.5711L4.29289 13.2071ZM19 13.5L5 13.5V11.5L19 11.5V13.5Z" fill="white"/>
</svg>
