<svg width="24" height="24" viewBox="0 0 24 24" fill="none" xmlns="http://www.w3.org/2000/svg">
<path d="M0 12C0 5.37258 5.37258 0 12 0C18.6274 0 24 5.37258 24 12C24 18.6274 18.6274 24 12 24C5.37258 24 0 18.6274 0 12Z" fill="#374144"/>
<path d="M10.021 10.7299L10.154 10.5969C11.4261 9.3248 13.4885 9.3248 14.7605 10.5969C16.0326 11.8689 16.0326 13.9313 14.7605 15.2033L12.9179 17.0459C11.6459 18.318 9.5835 18.318 8.31145 17.0459C7.03941 15.7739 7.03941 13.7115 8.31145 12.4394L8.60996 12.141" stroke="white" stroke-width="1.39286" stroke-linecap="round"/>
<path d="M15.3898 10.859L15.6882 10.5605C16.9603 9.28847 16.9603 7.22608 15.6882 5.95403C14.4162 4.68199 12.3538 4.68199 11.0818 5.95403L9.23919 7.79663C7.96715 9.06867 7.96715 11.1311 9.23919 12.4031C10.5112 13.6752 12.5737 13.6752 13.8457 12.4031L13.9787 12.2701" stroke="white" stroke-width="1.39286" stroke-linecap="round"/>
</svg>
