<svg width="152" height="42" viewBox="0 0 152 42" fill="none" xmlns="http://www.w3.org/2000/svg">
<g clip-path="url(#clip0_1125_825)">
<rect y="0.733337" width="40.5333" height="40.5333" rx="20.2667" fill="#F8F8F8"/>
<path d="M55.1705 23.1856C55.1705 20.9638 53.363 19.1562 51.1412 19.1562C49.2172 19.1562 47.6046 20.5123 47.2069 22.3186L17.2458 15.6628C17.2826 14.9271 17.0311 13.9544 16.5622 13.2757C20.3644 10.3691 25.0591 8.775 29.8635 8.775C33.4013 8.775 36.7777 9.592 39.8989 11.2032C42.8775 12.7408 45.5067 14.9825 47.5023 17.6863C47.6421 17.8755 47.8576 17.9758 48.0761 17.9757C48.2231 17.9757 48.3714 17.9303 48.4987 17.8364C48.8152 17.6027 48.8825 17.1567 48.6488 16.84C46.524 13.9612 43.7243 11.5743 40.5524 9.93695C37.274 8.24462 33.5778 7.3501 29.8634 7.3501C24.6895 7.3501 19.6344 9.08565 15.5609 12.2475C14.9005 11.7742 14.0924 11.4945 13.2198 11.4945C10.9981 11.4945 9.19052 13.302 9.19052 15.5238C9.19052 16.53 9.56216 17.4505 10.1741 18.1574C7.78908 21.8983 6.53052 26.2158 6.53052 30.683C6.53052 35.1732 7.80133 39.5092 10.2099 43.2631C9.5765 43.9752 9.19061 44.9121 9.19061 45.9378C9.19061 48.1595 10.9982 49.9671 13.2199 49.9671C14.1211 49.9671 14.9542 49.6697 15.6261 49.1678C19.6873 52.2978 24.7187 54.0159 29.8635 54.0159C35.0117 54.0159 40.0462 52.2958 44.1096 49.162C44.7828 49.6673 45.6188 49.9671 46.5233 49.9671C48.7451 49.9671 50.5527 48.1595 50.5527 45.9378C50.5527 44.9074 50.1634 43.9664 49.5248 43.2532C51.9289 39.5015 53.1974 35.169 53.1974 30.683C53.1974 29.388 53.0898 28.0916 52.8782 26.8207C54.2329 26.1707 55.1705 24.7856 55.1705 23.1856ZM46.4676 23.614L33.9365 37.3244C33.2878 36.8779 32.503 36.6157 31.6576 36.6157C30.8735 36.6157 30.1415 36.8417 29.5218 37.2307L25.934 30.8648C26.7338 30.128 27.2361 29.0727 27.2361 27.902C27.2361 25.6803 25.4285 23.8727 23.2067 23.8727C22.3324 23.8727 21.523 24.1534 20.862 24.6283L15.8894 18.5383C16.3457 18.1338 16.7099 17.6279 16.9459 17.0559L46.4676 23.614ZM29.0534 40.645C29.0534 39.209 30.2217 38.0407 31.6577 38.0407C33.0938 38.0407 34.2621 39.209 34.2621 40.645C34.2621 42.0811 33.0938 43.2494 31.6577 43.2494C30.2216 43.2494 29.0534 42.0811 29.0534 40.645ZM20.6024 27.9021C20.6024 26.4661 21.7707 25.2978 23.2067 25.2978C24.6427 25.2978 25.8111 26.4661 25.8111 27.9021C25.8111 29.3381 24.6427 30.5064 23.2067 30.5064C21.7707 30.5064 20.6024 29.3381 20.6024 27.9021ZM13.2199 12.9195C14.656 12.9195 15.8243 14.0878 15.8243 15.5238C15.8243 16.9598 14.656 18.1281 13.2199 18.1281C11.7839 18.1281 10.6156 16.9598 10.6156 15.5238C10.6156 14.0878 11.7839 12.9195 13.2199 12.9195ZM11.2895 19.0595C12.225 19.5832 13.5189 19.7208 14.6601 19.286L19.8623 25.6572C19.43 26.2991 19.1773 27.0716 19.1773 27.902C19.1773 29.098 19.7016 30.1734 20.5318 30.912L15.6095 42.6959C14.9404 42.2014 14.1139 41.9084 13.2199 41.9084C12.5394 41.9084 11.898 42.0787 11.3352 42.3778C9.1224 38.8808 7.95552 34.8529 7.95552 30.683C7.95552 26.5426 9.10644 22.5396 11.2895 19.0595ZM10.6156 45.9378C10.6156 44.5018 11.7839 43.3335 13.2199 43.3335C14.656 43.3335 15.8243 44.5018 15.8243 45.9378C15.8243 47.3738 14.656 48.5421 13.2199 48.5421C11.7839 48.5421 10.6156 47.3738 10.6156 45.9378ZM16.6038 48.1213C17.0115 47.4916 17.2494 46.7421 17.2494 45.9378C17.2494 45.4235 17.1515 44.932 16.9751 44.4794L22.5149 43.5949C22.9035 43.5329 23.1682 43.1676 23.1062 42.7789C23.0441 42.3904 22.6786 42.126 22.2903 42.1877L17.0142 43.03L21.7627 31.6626C22.2114 31.8355 22.698 31.9313 23.2068 31.9313C23.7459 31.9313 24.2601 31.8241 24.7304 31.6312L28.4432 38.2189C27.9323 38.8943 27.6285 39.7348 27.6285 40.645C27.6285 40.8771 27.6493 41.1044 27.6872 41.3259L25.5785 41.6626C25.1899 41.7246 24.9253 42.09 24.9872 42.4785C25.0432 42.829 25.3459 43.0788 25.6899 43.0788C25.7273 43.0788 25.7652 43.0758 25.8032 43.0697L28.1875 42.689C28.8893 43.8759 30.1817 44.6741 31.6577 44.6741C32.8052 44.6741 33.8413 44.1912 34.5759 43.4189L42.5294 45.4133C42.3957 46.1721 42.641 47.4066 43.1347 48.1131C39.3382 51.0047 34.6536 52.5906 29.8636 52.5906C25.0779 52.5909 20.3976 51.0077 16.6038 48.1213ZM46.5234 48.5421C45.0874 48.5421 43.9191 47.3738 43.9191 45.9378C43.9191 44.5018 45.0874 43.3335 46.5234 43.3335C47.9595 43.3335 49.1278 44.5018 49.1278 45.9378C49.1278 47.3738 47.9595 48.5421 46.5234 48.5421ZM51.7724 30.683C51.7724 34.8502 50.6069 38.8762 48.3967 42.372C47.8366 42.0766 47.1995 41.9084 46.5234 41.9084C44.9822 41.9084 43.6409 42.7787 42.9634 44.0534L35.3925 42.1549C35.5818 41.6882 35.6871 41.1788 35.6871 40.645C35.6871 39.7826 35.4138 38.9833 34.9505 38.3271L47.4075 24.6978C48.0245 26.2398 49.6956 27.3681 51.4951 27.1985C51.6783 28.3462 51.7724 29.515 51.7724 30.683ZM51.1412 25.7899C49.7052 25.7899 48.5369 24.6216 48.5369 23.1856C48.5369 21.7495 49.7052 20.5812 51.1412 20.5812C52.5772 20.5812 53.7455 21.7495 53.7455 23.1856C53.7455 24.6216 52.5772 25.7899 51.1412 25.7899Z" fill="black"/>
</g>
<path d="M54.4187 28.1943C53.5503 28.1943 52.773 27.9712 52.0869 27.525C51.4008 27.0788 50.8586 26.4311 50.4604 25.5818C50.0621 24.7326 49.863 23.701 49.863 22.4871C49.863 21.2588 50.0645 20.2225 50.4676 19.378C50.8754 18.5288 51.4248 17.8883 52.1157 17.4564C52.8066 17.0198 53.5766 16.8015 54.4259 16.8015C55.0736 16.8015 55.6062 16.9119 56.0236 17.1326C56.441 17.3485 56.7721 17.61 57.0168 17.917C57.2615 18.2193 57.451 18.5048 57.5854 18.7735H57.6933V13.2606H60.3058V28H57.7437V26.2583H57.5854C57.451 26.527 57.2567 26.8125 57.0024 27.1148C56.7481 27.4122 56.4123 27.6665 55.9948 27.8777C55.5774 28.0888 55.052 28.1943 54.4187 28.1943ZM55.1456 26.0568C55.6974 26.0568 56.1676 25.9081 56.5562 25.6106C56.9448 25.3083 57.2399 24.8885 57.4414 24.3511C57.6429 23.8138 57.7437 23.1876 57.7437 22.4727C57.7437 21.7578 57.6429 21.1365 57.4414 20.6087C57.2447 20.0809 56.952 19.6707 56.5634 19.378C56.1796 19.0854 55.7069 18.939 55.1456 18.939C54.565 18.939 54.0804 19.0902 53.6918 19.3924C53.3032 19.6947 53.0105 20.1121 52.8138 20.6447C52.6171 21.1773 52.5187 21.7866 52.5187 22.4727C52.5187 23.1636 52.6171 23.7802 52.8138 24.3223C53.0153 24.8597 53.3104 25.2843 53.699 25.5962C54.0924 25.9033 54.5746 26.0568 55.1456 26.0568ZM64.7014 32.1455C64.3463 32.1455 64.0177 32.1167 63.7154 32.0591C63.4179 32.0063 63.1804 31.9439 63.0029 31.872L63.6074 29.8424C63.9865 29.9528 64.3247 30.0056 64.6222 30.0008C64.9197 29.996 65.1812 29.9024 65.4067 29.7201C65.637 29.5426 65.8313 29.2451 65.9896 28.8277L66.2127 28.2303L62.204 16.9455H64.9677L67.5154 25.2939H67.6305L70.1855 16.9455H72.9563L68.5302 29.3386C68.3238 29.924 68.0504 30.4254 67.7097 30.8428C67.369 31.265 66.9516 31.5865 66.4574 31.8072C65.968 32.0327 65.3827 32.1455 64.7014 32.1455ZM77.3644 21.5227V28H74.7591V16.9455H77.2493V18.8239H77.3788C77.6331 18.2049 78.0385 17.7131 78.5951 17.3485C79.1565 16.9838 79.8498 16.8015 80.675 16.8015C81.4379 16.8015 82.1024 16.9646 82.6686 17.2909C83.2396 17.6172 83.681 18.0898 83.9928 18.7087C84.3095 19.3277 84.4654 20.0785 84.4606 20.9614V28H81.8553V21.3644C81.8553 20.6255 81.6634 20.0473 81.2796 19.6299C80.9005 19.2125 80.3752 19.0038 79.7034 19.0038C79.2476 19.0038 78.8422 19.1045 78.4872 19.3061C78.1369 19.5028 77.861 19.7883 77.6595 20.1625C77.4628 20.5367 77.3644 20.9902 77.3644 21.5227ZM90.2902 28.2231C89.5897 28.2231 88.9588 28.0984 88.3974 27.8489C87.8408 27.5946 87.3994 27.2203 87.0731 26.7261C86.7517 26.2319 86.5909 25.6226 86.5909 24.8981C86.5909 24.2744 86.7061 23.7586 86.9364 23.3508C87.1667 22.9429 87.481 22.6167 87.8792 22.372C88.2774 22.1273 88.726 21.9426 89.225 21.8178C89.7288 21.6883 90.2494 21.5947 90.7868 21.5371C91.4345 21.4699 91.9599 21.41 92.3629 21.3572C92.7659 21.2996 93.0586 21.2133 93.2409 21.0981C93.4281 20.9782 93.5216 20.7934 93.5216 20.5439V20.5008C93.5216 19.9586 93.3609 19.5388 93.0394 19.2413C92.718 18.9438 92.255 18.7951 91.6504 18.7951C91.0123 18.7951 90.5061 18.9342 90.1319 19.2125C89.7624 19.4908 89.5129 19.8194 89.3834 20.1985L86.9508 19.853C87.1427 19.1813 87.4594 18.6199 87.9008 18.1689C88.3422 17.7131 88.882 17.3725 89.5201 17.147C90.1582 16.9167 90.8635 16.8015 91.636 16.8015C92.1686 16.8015 92.6988 16.8639 93.2266 16.9886C93.7543 17.1134 94.2365 17.3197 94.6731 17.6076C95.1098 17.8907 95.46 18.2769 95.7239 18.7663C95.9926 19.2557 96.1269 19.8674 96.1269 20.6015V28H93.6224V26.4814H93.536C93.3777 26.7885 93.1546 27.0764 92.8667 27.3451C92.5836 27.609 92.2262 27.8225 91.7944 27.9856C91.3673 28.1439 90.8659 28.2231 90.2902 28.2231ZM90.9667 26.3087C91.4897 26.3087 91.9431 26.2056 92.3269 25.9992C92.7108 25.7881 93.0058 25.5098 93.2122 25.1644C93.4233 24.8189 93.5288 24.4423 93.5288 24.0345V22.7318C93.4473 22.799 93.3081 22.8614 93.1114 22.9189C92.9195 22.9765 92.7036 23.0269 92.4637 23.0701C92.2238 23.1133 91.9863 23.1516 91.7512 23.1852C91.5161 23.2188 91.3122 23.2476 91.1394 23.2716C90.7508 23.3244 90.4029 23.4107 90.0959 23.5307C89.7888 23.6506 89.5465 23.8186 89.369 24.0345C89.1915 24.2456 89.1027 24.5191 89.1027 24.8549C89.1027 25.3347 89.2778 25.697 89.6281 25.9417C89.9783 26.1864 90.4245 26.3087 90.9667 26.3087ZM98.7466 28V16.9455H101.237V18.8239H101.366C101.597 18.1905 101.978 17.6963 102.511 17.3413C103.043 16.9814 103.679 16.8015 104.418 16.8015C105.166 16.8015 105.797 16.9838 106.311 17.3485C106.829 17.7083 107.193 18.2001 107.405 18.8239H107.52C107.764 18.2097 108.177 17.7203 108.758 17.3557C109.343 16.9862 110.036 16.8015 110.838 16.8015C111.855 16.8015 112.685 17.123 113.328 17.7659C113.971 18.4088 114.292 19.3468 114.292 20.5799V28H111.68V20.983C111.68 20.2968 111.497 19.7955 111.133 19.4788C110.768 19.1573 110.322 18.9966 109.794 18.9966C109.165 18.9966 108.674 19.1933 108.319 19.5867C107.968 19.9754 107.793 20.4816 107.793 21.1053V28H105.238V20.875C105.238 20.304 105.066 19.8482 104.72 19.5076C104.379 19.1669 103.933 18.9966 103.381 18.9966C103.007 18.9966 102.667 19.0926 102.36 19.2845C102.052 19.4716 101.808 19.7379 101.625 20.0833C101.443 20.424 101.352 20.8222 101.352 21.278V28H98.7466ZM120.116 28.2231C119.416 28.2231 118.785 28.0984 118.223 27.8489C117.667 27.5946 117.225 27.2203 116.899 26.7261C116.578 26.2319 116.417 25.6226 116.417 24.8981C116.417 24.2744 116.532 23.7586 116.762 23.3508C116.993 22.9429 117.307 22.6167 117.705 22.372C118.103 22.1273 118.552 21.9426 119.051 21.8178C119.555 21.6883 120.075 21.5947 120.613 21.5371C121.261 21.4699 121.786 21.41 122.189 21.3572C122.592 21.2996 122.885 21.2133 123.067 21.0981C123.254 20.9782 123.348 20.7934 123.348 20.5439V20.5008C123.348 19.9586 123.187 19.5388 122.865 19.2413C122.544 18.9438 122.081 18.7951 121.476 18.7951C120.838 18.7951 120.332 18.9342 119.958 19.2125C119.588 19.4908 119.339 19.8194 119.209 20.1985L116.777 19.853C116.969 19.1813 117.285 18.6199 117.727 18.1689C118.168 17.7131 118.708 17.3725 119.346 17.147C119.984 16.9167 120.69 16.8015 121.462 16.8015C121.995 16.8015 122.525 16.8639 123.053 16.9886C123.58 17.1134 124.063 17.3197 124.499 17.6076C124.936 17.8907 125.286 18.2769 125.55 18.7663C125.819 19.2557 125.953 19.8674 125.953 20.6015V28H123.448V26.4814H123.362C123.204 26.7885 122.981 27.0764 122.693 27.3451C122.41 27.609 122.052 27.8225 121.62 27.9856C121.193 28.1439 120.692 28.2231 120.116 28.2231ZM120.793 26.3087C121.316 26.3087 121.769 26.2056 122.153 25.9992C122.537 25.7881 122.832 25.5098 123.038 25.1644C123.249 24.8189 123.355 24.4423 123.355 24.0345V22.7318C123.273 22.799 123.134 22.8614 122.937 22.9189C122.746 22.9765 122.53 23.0269 122.29 23.0701C122.05 23.1133 121.812 23.1516 121.577 23.1852C121.342 23.2188 121.138 23.2476 120.965 23.2716C120.577 23.3244 120.229 23.4107 119.922 23.5307C119.615 23.6506 119.373 23.8186 119.195 24.0345C119.017 24.2456 118.929 24.5191 118.929 24.8549C118.929 25.3347 119.104 25.697 119.454 25.9417C119.804 26.1864 120.251 26.3087 120.793 26.3087ZM134.093 16.9455V18.9606H127.738V16.9455H134.093ZM129.307 14.297H131.912V24.675C131.912 25.0253 131.965 25.2939 132.07 25.4811C132.181 25.6634 132.325 25.7881 132.502 25.8553C132.68 25.9225 132.876 25.9561 133.092 25.9561C133.255 25.9561 133.404 25.9441 133.539 25.9201C133.678 25.8961 133.783 25.8745 133.855 25.8553L134.294 27.892C134.155 27.94 133.956 27.9928 133.697 28.0504C133.443 28.108 133.131 28.1415 132.761 28.1511C132.109 28.1703 131.521 28.072 130.998 27.8561C130.475 27.6354 130.06 27.2947 129.753 26.8341C129.451 26.3735 129.302 25.7977 129.307 25.1068V14.297ZM136.272 28V16.9455H138.877V28H136.272ZM137.581 15.3765C137.169 15.3765 136.814 15.2398 136.516 14.9663C136.219 14.688 136.07 14.3545 136.07 13.9659C136.07 13.5725 136.219 13.239 136.516 12.9655C136.814 12.6872 137.169 12.5481 137.581 12.5481C137.999 12.5481 138.354 12.6872 138.647 12.9655C138.944 13.239 139.093 13.5725 139.093 13.9659C139.093 14.3545 138.944 14.688 138.647 14.9663C138.354 15.2398 137.999 15.3765 137.581 15.3765ZM146.378 28.2159C145.274 28.2159 144.327 27.9736 143.535 27.489C142.748 27.0044 142.141 26.3351 141.714 25.4811C141.292 24.6222 141.081 23.6338 141.081 22.5159C141.081 21.3932 141.297 20.4024 141.729 19.5436C142.161 18.6799 142.77 18.0082 143.557 17.5284C144.348 17.0438 145.284 16.8015 146.364 16.8015C147.261 16.8015 148.055 16.967 148.746 17.2981C149.441 17.6244 149.996 18.0874 150.408 18.6871C150.821 19.2821 151.056 19.9778 151.114 20.7742H148.623C148.523 20.2417 148.283 19.7979 147.904 19.4428C147.529 19.083 147.028 18.903 146.4 18.903C145.867 18.903 145.399 19.047 144.996 19.3348C144.593 19.6179 144.279 20.0258 144.053 20.5583C143.833 21.0909 143.722 21.729 143.722 22.4727C143.722 23.226 143.833 23.8737 144.053 24.4159C144.274 24.9533 144.584 25.3683 144.982 25.661C145.385 25.9489 145.857 26.0928 146.4 26.0928C146.783 26.0928 147.126 26.0208 147.429 25.8769C147.736 25.7282 147.992 25.5146 148.199 25.2364C148.405 24.9581 148.547 24.6198 148.623 24.2216H151.114C151.051 25.0037 150.821 25.697 150.423 26.3015C150.024 26.9013 149.482 27.3715 148.796 27.7121C148.11 28.048 147.304 28.2159 146.378 28.2159Z" fill="#151515"/>
<defs>
<clipPath id="clip0_1125_825">
<rect y="0.733337" width="40.5333" height="40.5333" rx="20.2667" fill="white"/>
</clipPath>
</defs>
</svg>
