<svg width="24" height="25" viewBox="0 0 24 25" fill="none" xmlns="http://www.w3.org/2000/svg">
<path d="M5 11.6245C4.58579 11.6245 4.25 11.9603 4.25 12.3745C4.25 12.7887 4.58579 13.1245 5 13.1245V11.6245ZM19.5303 12.9048C19.8232 12.6119 19.8232 12.1371 19.5303 11.8442L14.7574 7.07121C14.4645 6.77832 13.9896 6.77832 13.6967 7.07121C13.4038 7.3641 13.4038 7.83898 13.6967 8.13187L17.9393 12.3745L13.6967 16.6172C13.4038 16.91 13.4038 17.3849 13.6967 17.6778C13.9896 17.9707 14.4645 17.9707 14.7574 17.6778L19.5303 12.9048ZM5 13.1245L19 13.1245V11.6245L5 11.6245V13.1245Z" fill="#3A7DFF"/>
</svg>
